<svg width="865" height="206" viewBox="0 0 865 206" fill="none" xmlns="http://www.w3.org/2000/svg">
<path d="M862.988 4.45207H826.238M862.988 4.45207H863M862.988 4.45207H844.613M826.238 4.45207V52.1228C814.088 41.1576 795.117 34.8074 768.795 34.8074C725.55 34.8074 703.864 50.815 696.539 69.677M826.238 4.45207H844.613M826.238 4.45207L863 29.5M696.539 69.677H602.56M696.539 69.677L740.388 131.658M696.539 69.677H649.55M602.56 69.677V37.5487M602.56 69.677H649.55M602.56 69.677L557.738 154.946M602.56 37.5487H704.706M602.56 37.5487L570.022 188.5M704.706 37.5487V4.45207M704.706 37.5487V14.5M704.706 37.5487L669.985 4.45207M704.706 4.45207H565.823M704.706 4.45207V14.5M704.706 4.45207H669.985M565.823 4.45207V47.8851M565.823 4.45207V20.8495M565.823 4.45207H583.183M565.823 47.8851C552.807 40.9313 536.888 37.2469 518.633 37.2469H450.825M565.823 47.8851V20.8495M565.823 47.8851L583.183 4.45207M450.825 37.2469V4.45207M450.825 37.2469V20.8495M450.825 37.2469L414.075 4.45207M450.825 4.45207H414.075M450.825 4.45207H432.45M450.825 4.45207L414.075 83.6475M450.825 4.45207V20.8495M414.075 4.45207V83.6475M414.075 4.45207H432.45M414.075 4.45207V44.0498M414.075 83.6475L415.796 116.744M414.075 83.6475V44.0498M415.796 116.744H413.107L390.568 82.1763M415.796 116.744L432.45 4.45207M390.568 82.1763L331.781 4.45207M390.568 82.1763L357.422 38.3535M331.781 4.45207H292.581M331.781 4.45207L344.183 20.8495M331.781 4.45207H312.181M292.581 4.45207V38.3535M292.581 4.45207L344.183 20.8495M292.581 4.45207H312.181M292.581 38.3535H261.862M292.581 38.3535L246.182 62.3837M292.581 38.3535H277.221M261.862 38.3535L230.502 86.414M261.862 38.3535L246.182 62.3837M261.862 38.3535H277.221M230.502 86.414L216.782 108.483M230.502 86.414L246.182 62.3837M216.782 108.483H214.081L200.361 86.414M216.782 108.483L277.221 38.3535M200.361 86.414L169.001 38.3535M200.361 86.414L177.444 51.2928M200.361 86.414L158.259 38.3535M169.001 38.3535H147.517M169.001 38.3535L177.444 51.2928M169.001 38.3535H158.259M147.517 38.3535C139.199 15.9831 116.295 2 77.2083 2M147.517 38.3535C141.244 21.4825 126.675 9.38196 103.125 4.45207M147.517 38.3535L177.444 51.2928M147.517 38.3535H158.259M77.2083 2C22.0899 2 2 27.9919 2 52.7515M77.2083 2L2 52.7515M77.2083 2C86.8171 2 95.448 2.84507 103.125 4.45207M77.2083 2C60.5917 2 47.1588 4.36224 36.5 8.34083M2 52.7515C2 79.4727 19.3886 94.1851 48.7884 98.8378M2 52.7515C2 43.3483 4.89761 33.7674 11.5111 25.5M2 52.7515C2 56.5788 2.35672 60.1597 3.05437 63.5M48.7884 98.8378L94.8356 105.465C111.734 108.407 117.375 112.079 117.375 122.126C117.375 133.154 110.515 137.58 81.1157 137.58C47.8084 137.58 40.2198 131.457 40.2198 116.254V111.84M48.7884 98.8378C23.5996 94.8515 7.22755 83.4809 3.05437 63.5M48.7884 98.8378L3.05437 63.5M40.2198 111.84H3.48255M40.2198 111.84L4.62315 126M40.2198 111.84H21.8512M3.48255 111.84V113.324M3.48255 111.84H21.8512M3.48255 111.84L31.5 161.416M3.48255 113.324C3.48255 151.563 31.3998 171.18 81.1282 171.18M3.48255 113.324C3.48255 117.806 3.86603 122.031 4.62315 126M81.1282 171.18C133.307 171.18 154.125 147.162 154.125 120.429M81.1282 171.18C60.8027 171.18 44.121 167.903 31.5 161.416M81.1282 171.18C100.32 171.18 115.269 167.931 126.5 162.493M154.125 120.429C154.125 97.8695 140.895 79.9757 104.158 74.0908M154.125 120.429L104.158 74.0908M154.125 120.429C154.125 130.437 151.208 140.064 144.819 148.193M154.125 120.429C154.125 111.654 152.124 103.586 147.517 96.6556M104.158 74.0908L58.1109 66.7346C44.391 64.2825 39.0011 60.8496 39.0011 51.2928C39.0011 40.7427 47.0923 35.5996 73.5396 35.5996C106.131 35.5996 114.197 42.2139 114.197 57.9071V61.34H138.935L196.466 148.193M104.158 74.0908C114.927 75.8158 123.675 78.5726 130.663 82.1763M196.466 148.193V202.629M196.466 148.193V175.411M196.466 202.629H233.454M196.466 202.629H214.96M196.466 202.629L233.454 175.537M196.466 202.629V175.411M233.454 202.629V148.445M233.454 202.629H214.96M233.454 202.629V175.537M233.454 202.629L196.466 175.411M233.454 148.445L292.593 60.4472M233.454 148.445L214.96 202.629M233.454 148.445V175.537M292.593 60.4472V168.741M292.593 60.4472V114.594M292.593 168.741H329.343M292.593 168.741H310.968M292.593 168.741V141.667M292.593 168.741L329.343 148.445M329.343 168.741V89.5451M329.343 168.741H310.968M329.343 168.741L292.593 141.667M329.343 168.741V148.445M329.343 89.5451L327.861 59.3909H330.311L351.142 90.287L411.65 168.741H439.53M329.343 89.5451V148.445M439.53 168.741V201.548M439.53 168.741L476.267 201.548M439.53 168.741V185.144M439.53 201.548H518.658M439.53 201.548H476.267M439.53 201.548V185.144M518.658 201.548C551.199 201.548 576.339 189.828 590.813 168.741M518.658 201.548H476.267M518.658 201.548L439.53 185.144M518.658 201.548C538.907 201.548 556.291 197.01 570.022 188.5M590.813 168.741H699.115M590.813 168.741C585.346 176.706 578.357 183.335 570.022 188.5M699.115 168.741C708.488 192.092 733.993 204 772.74 204M699.115 168.741L749.698 202.366M699.115 168.741C701.646 175.046 705.353 180.517 710.179 185.144M772.74 204C814.515 204 836.163 188.596 843.149 168.741M772.74 204C764.443 204 756.752 203.454 749.698 202.366M772.74 204C785.612 204 796.573 202.538 805.784 199.933M772.74 204L843.149 168.741M843.149 168.741H863M843.149 168.741C838.316 182.478 826.464 194.085 805.784 199.933M863 168.741V4.45207M863 168.741V80M863 4.45207V29.5M730.588 84.0876C730.588 93.6444 735.978 97.0773 749.698 99.5294L795.745 106.886C808.673 108.96 818.687 112.519 826.238 117.247V94.1348H805.784V90.7019C805.784 75.0087 797.717 68.3944 765.126 68.3944C738.679 68.3944 730.588 73.5375 730.588 84.0876ZM730.588 84.0876L649.55 69.677M518.645 168.426H476.267V70.3561H518.645M518.645 168.426C551.965 168.426 565.434 158.869 565.434 119.397M518.645 168.426C537.886 168.426 550.507 165.239 557.738 154.946M518.645 70.3561C551.965 70.3561 565.434 79.9254 565.434 119.397M518.645 70.3561C541.635 70.3561 555.174 74.9117 561.36 90.7019M565.434 119.397C565.434 136.076 563.029 147.414 557.738 154.946M565.434 119.397C565.434 107.16 564.139 97.7969 561.36 90.7019M696.451 102.535H603.302C604.156 107.879 604.621 113.739 604.621 119.41C604.621 125.081 604.194 130.476 603.402 135.631H704.718V144.647H731.819V149.061C731.819 164.264 739.408 170.388 772.728 170.388V170.4C802.115 170.4 808.975 165.974 808.975 154.946C808.975 144.899 803.333 141.227 786.435 138.285M696.451 102.535C702.507 118.681 717.936 128.112 740.388 131.658M696.451 102.535L786.435 138.285M740.388 131.658L786.435 138.285M11.5111 25.5L103.125 4.45207M11.5111 25.5C17.0619 18.5611 25.2302 12.5475 36.5 8.34083M11.5111 80L36.5 8.34083M4.62315 126C5.88937 132.637 8.20069 138.554 11.5111 143.744M21.8512 111.84L11.5111 143.744M11.5111 143.744C16.2072 151.106 22.914 157.004 31.5 161.416M130.663 82.1763L144.819 148.193M130.663 82.1763C138.243 86.0851 143.75 90.9902 147.517 96.6556M144.819 148.193C140.419 153.792 134.373 158.68 126.5 162.493M147.517 96.6556L126.5 162.493M844.613 4.45207L863 80M863 29.5V80M635.265 4.45207L704.706 14.5M635.265 4.45207H669.985M635.265 4.45207H600.544M414.075 44.0498L450.825 20.8495M749.698 202.366C732.704 199.746 719.399 193.984 710.179 185.144M710.179 185.144L805.784 199.933M292.593 114.594L310.968 168.741M292.593 114.594V141.667M561.36 90.7019L602.56 135.631M344.183 20.8495L357.422 38.3535M312.181 4.45207L357.422 38.3535M600.544 4.45207L565.823 20.8495M600.544 4.45207H583.183" stroke="#20105C" stroke-width="3" stroke-miterlimit="10"/>
</svg>
