<svg width="907" height="85" viewBox="0 0 907 85" fill="none" xmlns="http://www.w3.org/2000/svg">
<path d="M880.447 74.5167L871.2 71.5112L827.23 77.8047L785.351 77.8047L744.043 74.5022L670.411 74.5022L599.138 77.3574L495.826 75.3706L405.198 73.3471L313.91 75.3707L282.655 77.8195L242.403 75.1361L217.805 74.8688L178.448 77.8195L152.956 75.1361L128.358 74.8688L89.0005 77.8195L63.5079 75.2181L26.2251 78.714L0.894531 75.316L0.894528 13.5948L23.0944 13.6586L63.5079 13.4172L85.8699 13.2114L126.121 11.181L152.956 13.3551L175.318 13.2114L215.569 11.181L242.403 14.1286L264.156 9.37717L319.328 9.37717L369.489 13.7132L422.193 9.37716L474.358 9.37716L535.792 12.9699L596.454 10.7189L678.908 10.7189L762.012 13.7132L798.159 11.6133L836.014 14.4068L854.438 15.1003L848.659 6.54624L848.659 3.65634L852.936 1.6912L861.605 4.69669L868.772 15.1003L877.768 14.4068L892.701 5.35199L895.244 7.58659L895.244 25.0305L904.26 39.3421L905.301 42.1498L904.26 45.1562L895.244 62.5985L895.244 81.9148L892.701 83.1864L880.447 74.5167Z" fill="#20105C"/>
<path d="M861.605 4.69669L868.772 15.1003L877.767 14.4068L892.701 5.35199L895.244 7.5866L895.244 25.0305L904.26 39.3421L905.301 42.1498L904.26 45.1562L895.244 62.5985L895.244 81.9148L892.701 83.1864L880.447 74.5167L871.2 71.5112L827.23 77.8047M861.605 4.69669L858.484 7.23982L848.658 6.54624M861.605 4.69669L852.936 1.6912L848.658 3.65634L848.658 6.54624M848.658 6.54624L854.438 15.1003L836.014 14.4068L798.159 11.6133L762.012 13.7132L678.908 10.7189L596.454 10.7189L535.792 12.9699L474.358 9.37716L422.193 9.37716L369.489 13.7132L319.328 9.37716L264.156 9.37717L242.403 14.1286L215.569 11.181M827.23 77.8047L785.351 77.8047L744.043 74.5022M827.23 77.8047L785.351 77.3574L744.043 74.5022M744.043 74.5022L670.411 74.5022L599.138 77.3574L495.826 75.3706L405.198 73.3471L313.91 75.3707L282.655 77.8195L242.403 75.1361L217.805 74.8688L178.448 77.8195M152.956 75.2198L178.448 77.8195M152.956 13.4172L175.318 13.2114M242.403 14.2012L215.569 11.181M178.448 77.8195L152.956 75.1361L128.358 74.8688L89.0005 77.8195M215.569 11.181L175.318 13.2114M175.318 13.2114L152.956 13.3551L126.121 11.181L85.8699 13.2114L63.5079 13.4172L23.0944 13.6586L0.894528 13.5948L0.894531 75.316L26.2251 78.714L63.5079 75.2181L89.0005 77.8195M63.5079 75.2265L89.0005 77.8195" stroke="#C52D48" stroke-opacity="0.4" stroke-width="1.78895"/>
<path d="M871.2 71.5112L880.447 74.5167M871.2 71.5112L827.23 77.8047M871.2 71.5112L865.169 61.7243M871.2 71.5112L870.678 59.3896M871.2 71.5112L876.723 56.8277M880.447 74.5167L892.701 83.1864M880.447 74.5167L882.531 65.0904M892.701 83.1864L895.244 81.9148L895.244 62.5985M892.701 83.1864L882.531 65.0904M895.244 62.5985L904.26 45.1562M895.244 62.5985L883.995 58.471M895.244 7.5866L892.701 5.35199L877.767 14.4068L868.772 15.1003M895.244 7.5866L895.244 25.0305M895.244 7.5866L889.494 22.8736M895.244 7.5866L891.683 23.6947M868.772 15.1003L861.605 4.69669M868.772 15.1003L865.704 19.732M868.772 15.1003L868.997 20.3227M868.772 15.1003L889.494 22.8736M861.605 4.69669L858.484 7.23982M861.605 4.69669L852.936 1.6912M861.605 4.69669L856.649 5.40472M852.936 1.6912L848.658 3.65634M852.936 1.6912L856.649 5.40472M848.658 3.65634L848.658 6.54624M848.658 3.65634L854.352 5.73285M848.658 6.54624L854.438 15.1003M848.658 6.54624L858.484 7.23982M848.658 6.54624L854.352 5.73285M854.438 15.1003L836.014 14.4068M854.438 15.1003L853.387 17.5228M854.438 15.1003L856.07 18.0041M858.484 7.23982L856.649 5.40472M858.484 7.23982L854.352 5.73285M904.26 45.1562L905.301 42.1498L904.26 39.3421M904.26 45.1562L885.147 53.257M904.26 45.1562L895.583 41.2464M904.26 39.3421L895.244 25.0305M904.26 39.3421L895.583 41.2464M827.23 77.8047L785.351 77.8047M827.23 77.8047L818.594 58.1419M827.23 77.8047L830.31 55.5706M827.23 77.8047L809.297 60.182M827.23 77.8047L787.581 66.279M827.23 77.8047L837.568 53.9778M827.23 77.8047L843.942 52.5792M827.23 77.8047L865.169 61.7243M836.014 14.4068L798.159 11.6133M836.014 14.4068L832.633 38.8071M836.014 14.4068L847.002 32.2385M836.014 14.4068L851.677 21.4638M836.014 14.4068L853.387 17.5228M798.159 11.6133L762.012 13.7132M798.159 11.6133L788.112 23.2896M798.159 11.6133L780.279 20.4156M798.159 11.6133L776.126 18.8918M798.159 11.6133L795.383 25.9578M798.159 11.6133L806.202 29.9275M762.012 13.7132L678.908 10.7189M762.012 13.7132L732.486 33.3077M762.012 13.7132L713.646 32.6125M762.012 13.7132L704.717 26.9847M762.012 13.7132L765.211 22.4973M762.012 13.7132L769.507 21.0783M762.012 13.7132L776.126 18.8918M242.403 75.1361L242.403 14.1286M242.403 75.1361L282.655 77.8195M242.403 75.1361L255.65 35.0898M242.403 75.1361L267.436 53.7375M242.403 75.1361L217.805 74.8688M242.403 75.1361L224.331 32.0633M242.403 75.1361L216.991 51.6788M242.403 75.1361L217.2 57.6383M242.403 14.1286L264.156 9.37717M242.403 14.1286L258.129 27.5969M242.403 14.1286L255.65 35.0898M895.244 25.0305L891.683 23.6947M895.244 25.0305L891.534 24.3652M895.244 25.0305L891.19 25.9224M495.826 75.3706L599.138 77.3574M495.826 75.3706L405.198 73.3471M495.826 75.3706L469.921 52.1532M495.826 75.3706L456.953 56.3995M495.826 75.3706L486.506 46.7222M495.826 75.3706L450.628 58.4709M495.826 75.3706L515.206 45.1116M495.826 75.3706L532.551 51.7754M495.826 75.3706L546.963 57.3125M495.826 75.3706L557.052 61.1886M599.138 77.3574L670.411 74.5022M599.138 77.3574L578.372 56.2502M599.138 77.3574L598.104 51.6797M599.138 77.3574L565.758 59.172M599.138 77.3574L557.052 61.1886M599.138 77.3574L626.553 54.4554M599.138 77.3574L640.93 61.0269M599.138 77.3574L644.137 62.4927M264.156 9.37717L319.328 9.37716M264.156 9.37717L258.129 27.5969M264.156 9.37717L272.379 39.8014M264.156 9.37717L285.779 38.0571M264.156 9.37717L300.203 25.7264M282.655 77.8195L313.91 75.3707M282.655 77.8195L274.511 47.689M282.655 77.8195L267.436 53.7375M282.655 77.8195L293.386 57.7926M282.655 77.8195L300.976 64.2935M282.655 77.8195L215.569 11.181M313.91 75.3707L405.198 73.3471M313.91 75.3707L300.976 64.2935M313.91 75.3707L303.92 62.1201M313.91 75.3707L341.696 44.5456M313.91 75.3707L315.713 53.414M313.91 75.3707L354.764 50.4724M313.91 75.3707L364.123 54.7176M405.198 73.3471L388.13 44.8435M405.198 73.3471L374.475 50.4597M405.198 73.3471L364.123 54.7176M405.198 73.3471L412.898 44.3636M405.198 73.3471L429.729 50.6568M405.198 73.3471L443.301 55.7312M405.198 73.3471L450.628 58.4709M474.358 9.37716L422.193 9.37716M474.358 9.37716L535.792 12.9699M474.358 9.37716L459.05 23.537M474.358 9.37716L481.809 32.2808M474.358 9.37716L449.165 19.7394M474.358 9.37716L506.127 26.6849M422.193 9.37716L369.489 13.7132M422.193 9.37716L415.794 33.4651M422.193 9.37716L394.805 26.0688M422.193 9.37716L438.602 24.0838M422.193 9.37716L449.165 19.7394M369.489 13.7132L319.328 9.37716M369.489 13.7132L359.768 24.4976M369.489 13.7132L380.614 32.2923M369.489 13.7132L356.524 23.2847M369.489 13.7132L394.805 26.0688M596.454 10.7189L535.792 12.9699M596.454 10.7189L678.908 10.7189M596.454 10.7189L597.277 31.1369M596.454 10.7189L620.408 31.3772M596.454 10.7189L574.945 24.5384M596.454 10.7189L564.067 21.3244M596.454 10.7189L633.532 26.7426M596.454 10.7189L641.679 23.8656M535.792 12.9699L521.607 35.1182M535.792 12.9699L506.127 26.6849M535.792 12.9699L548.898 26.2915M535.792 12.9699L558.242 23.2317M535.792 12.9699L564.067 21.3244M670.411 74.5022L744.043 74.5022M670.411 74.5022L653.066 59.543M670.411 74.5022L673.199 53.5699M670.411 74.5022L644.137 62.4927M670.411 74.5022L693.095 59.4485M670.411 74.5022L698.029 60.9063M670.411 74.5022L712.614 65.2159M744.043 74.5022L785.351 77.8047M744.043 74.5022L719.202 63.7664M744.043 74.5022L712.614 65.2159M744.043 74.5022L756.726 59.7635M744.043 74.5022L770.796 68.6312M678.908 10.7189L675.851 33.671M678.908 10.7189L657.623 28.5004M678.908 10.7189L641.679 23.8656M678.908 10.7189L704.717 26.9847M785.351 77.8047L781.181 66.3523M785.351 77.8047L770.796 68.6312M785.351 77.8047L787.581 66.279M319.328 9.37716L300.203 25.7264M319.328 9.37716L308.542 29.5083M319.328 9.37716L347.219 30.1544M319.328 9.37716L317.348 33.5023M319.328 9.37716L356.524 23.2847M255.65 35.0898L258.129 27.5969M255.65 35.0898L267.436 53.7375M258.129 27.5969L272.379 39.8014M274.511 47.689L272.379 39.8014M274.511 47.689L278.053 44.661M274.511 47.689L267.436 53.7375M272.379 39.8014L278.053 44.661M278.053 44.661L293.386 57.7926M278.053 44.661L285.779 38.0571M293.386 57.7926L300.976 64.2935M293.386 57.7926L296.407 52.1546M300.976 64.2935L303.92 62.1201M300.203 25.7264L285.779 38.0571M300.203 25.7264L308.542 29.5083M285.779 38.0571L296.407 52.1546M296.407 52.1546L303.92 62.1201M296.407 52.1546L308.542 29.5083M303.92 62.1201L315.713 53.414M308.542 29.5083L317.348 33.5023M341.696 44.5456L351.676 33.4746M341.696 44.5456L354.764 50.4724M341.696 44.5456L333.042 40.6205M351.676 33.4746L359.768 24.4976M351.676 33.4746L365.615 43.859M351.676 33.4746L347.219 30.1544M359.768 24.4976L380.614 32.2923M359.768 24.4976L356.524 23.2847M388.13 44.8435L381.678 34.0693M388.13 44.8435L400.535 39.741M388.13 44.8435L374.475 50.4597M381.678 34.0693L380.614 32.2923M381.678 34.0693L383.081 33.2145M381.678 34.0693L365.615 43.859M380.614 32.2923L383.081 33.2145M374.475 50.4597L365.615 43.859M374.475 50.4597L364.123 54.7176M365.615 43.859L354.764 50.4724M347.219 30.1544L333.042 40.6205M347.219 30.1544L356.524 23.2847M317.348 33.5023L315.713 53.414M317.348 33.5023L333.042 40.6205M315.713 53.414L333.042 40.6205M364.123 54.7176L354.764 50.4724M415.794 33.4651L415.124 35.9852M415.794 33.4651L438.602 24.0838M415.794 33.4651L412.628 34.7671M415.124 35.9852L412.898 44.3636M415.124 35.9852L435.068 45.7187M415.124 35.9852L412.628 34.7671M412.898 44.3636L429.729 50.6568M412.898 44.3636L400.535 39.741M394.805 26.0688L383.081 33.2145M394.805 26.0688L412.628 34.7671M383.081 33.2145L400.535 39.741M469.921 52.1532L463.496 46.3946M469.921 52.1532L486.506 46.7222M469.921 52.1532L456.953 56.3995M463.496 46.3946L448.687 33.1221M463.496 46.3946L483.406 37.1897M463.496 46.3946L449.609 52.8149M448.687 33.1221L438.602 24.0838M448.687 33.1221L459.05 23.537M448.687 33.1221L435.068 45.7187M438.602 24.0838L449.165 19.7394M456.953 56.3995L449.609 52.8149M456.953 56.3995L450.628 58.4709M449.609 52.8149L435.068 45.7187M449.609 52.8149L443.301 55.7312M435.068 45.7187L429.729 50.6568M412.628 34.7671L400.535 39.741M459.05 23.537L481.809 32.2808M459.05 23.537L449.165 19.7394M429.729 50.6568L443.301 55.7312M481.809 32.2808L483.406 37.1897M481.809 32.2808L488.48 34.8437M483.406 37.1897L486.506 46.7222M483.406 37.1897L488.48 34.8437M486.506 46.7222L504.263 40.9076M450.628 58.4709L443.301 55.7312M521.607 35.1182L521.517 35.2576M521.607 35.1182L521.733 35.187M521.607 35.1182L506.127 26.6849M521.517 35.2576L515.206 45.1116M521.517 35.2576L521.733 35.187M521.517 35.2576L504.263 40.9076M515.206 45.1116L532.551 51.7754M515.206 45.1116L504.263 40.9076M506.127 26.6849L488.48 34.8437M488.48 34.8437L504.263 40.9076M578.372 56.2502L571.049 48.807M578.372 56.2502L598.104 51.6797M578.372 56.2502L565.758 59.172M571.049 48.807L557.929 35.4707M571.049 48.807L595.39 40.2115M571.049 48.807L556.296 54.0169M557.929 35.4707L548.898 26.2915M557.929 35.4707L569.19 28.2357M557.929 35.4707L541.559 45.9882M548.898 26.2915L558.242 23.2317M548.898 26.2915L521.733 35.187M598.104 51.6797L597.684 41.26M598.104 51.6797L612.954 48.2398M597.684 41.26L597.61 39.4275M597.684 41.26L612.954 48.2398M597.684 41.26L595.39 40.2115M597.61 39.4275L597.277 31.1369M597.61 39.4275L610.241 34.9674M597.61 39.4275L595.39 40.2115M597.277 31.1369L610.241 34.9674M597.277 31.1369L574.945 24.5384M565.758 59.172L556.296 54.0169M565.758 59.172L557.052 61.1886M556.296 54.0169L541.559 45.9882M556.296 54.0169L546.963 57.3125M541.559 45.9882L521.733 35.187M541.559 45.9882L532.551 51.7754M557.052 61.1886L546.963 57.3125M546.963 57.3125L532.551 51.7754M653.066 59.543L650.466 57.3007M653.066 59.543L672.116 53.2499M653.066 59.543L644.137 62.4927M650.466 57.3007L637.024 45.708M650.466 57.3007L665.691 51.3514M650.466 57.3007L640.93 61.0269M637.024 45.708L634.242 43.3089M637.024 45.708L639.524 43.6198M637.024 45.708L626.553 54.4554M634.242 43.3089L632.038 41.4079M634.242 43.3089L636.613 42.7597M634.242 43.3089L612.954 48.2398M632.038 41.4079L620.408 31.3772M632.038 41.4079L636.613 42.7597M632.038 41.4079L610.241 34.9674M620.408 31.3772L633.532 26.7426M620.408 31.3772L610.241 34.9674M673.199 53.5699L673.294 52.8609M673.199 53.5699L693.095 59.4485M673.199 53.5699L672.116 53.2499M673.294 52.8609L673.924 48.1343M673.294 52.8609L685.011 48.9903M673.294 52.8609L672.116 53.2499M673.924 48.1343L674.419 44.413M673.924 48.1343L678.706 46.2656M673.924 48.1343L665.691 51.3514M674.419 44.413L675.834 33.7944M674.419 44.413L658.736 37.6352M674.419 44.413L678.706 46.2656M675.834 33.7944L675.851 33.671M675.834 33.7944L695.782 39.5931M675.834 33.7944L675.605 33.7278M675.851 33.671L704.717 26.9847M675.851 33.671L675.605 33.7278M644.137 62.4927L640.93 61.0269M640.93 61.0269L626.553 54.4554M626.553 54.4554L612.954 48.2398M595.39 40.2115L569.19 28.2357M569.19 28.2357L558.242 23.2317M569.19 28.2357L574.945 24.5384M558.242 23.2317L564.067 21.3244M574.945 24.5384L564.067 21.3244M657.623 28.5004L650.796 34.2035M657.623 28.5004L675.605 33.7278M657.623 28.5004L641.679 23.8656M650.796 34.2035L642.065 41.4968M650.796 34.2035L633.532 26.7426M650.796 34.2035L658.736 37.6352M642.065 41.4968L639.524 43.6198M642.065 41.4968L658.736 37.6352M642.065 41.4968L636.613 42.7597M639.524 43.6198L665.691 51.3514M639.524 43.6198L636.613 42.7597M641.679 23.8656L633.532 26.7426M658.736 37.6352L675.605 33.7278M678.706 46.2656L685.011 48.9903M678.706 46.2656L695.782 39.5931M685.011 48.9903L699.451 55.2307M685.011 48.9903L705.184 42.3264M699.451 55.2307L704.833 57.5567M699.451 55.2307L714.719 45.0981M699.451 55.2307L693.095 59.4485M704.833 57.5567L719.202 63.7664M704.833 57.5567L724.415 47.9167M704.833 57.5567L698.029 60.9063M719.202 63.7664L751.723 56.6105M719.202 63.7664L712.614 65.2159M712.614 65.2159L698.029 60.9063M698.029 60.9063L693.095 59.4485M672.116 53.2499L665.691 51.3514M732.486 33.3077L723.846 39.0411M732.486 33.3077L765.211 22.4973M732.486 33.3077L720.849 37.1518M723.846 39.0411L714.719 45.0981M723.846 39.0411L732.002 44.1815M723.846 39.0411L720.849 37.1518M714.719 45.0981L724.415 47.9167M714.719 45.0981L705.184 42.3264M713.646 32.6125L695.782 39.5931M713.646 32.6125L720.849 37.1518M713.646 32.6125L704.717 26.9847M695.782 39.5931L705.184 42.3264M788.112 23.2896L780.618 31.998M788.112 23.2896L795.383 25.9578M788.112 23.2896L780.279 20.4156M780.618 31.998L772.223 41.7538M780.618 31.998L792.042 43.2249M780.618 31.998L772.652 24.1699M772.223 41.7538L761.241 54.5161M772.223 41.7538L775.711 51.3322M772.223 41.7538L766.859 27.0222M761.241 54.5161L758.415 57.8004M761.241 54.5161L775.711 51.3322M761.241 54.5161L753.202 56.285M758.415 57.8004L756.726 59.7635M758.415 57.8004L780.393 64.1894M758.415 57.8004L753.202 56.285M756.726 59.7635L770.796 68.6312M756.726 59.7635L751.723 56.6105M780.279 20.4156L772.652 24.1699M780.279 20.4156L776.126 18.8918M772.652 24.1699L766.859 27.0222M772.652 24.1699L769.507 21.0783M766.859 27.0222L732.002 44.1815M766.859 27.0222L765.211 22.4973M732.002 44.1815L724.415 47.9167M732.002 44.1815L749.498 55.2084M724.415 47.9167L749.498 55.2084M776.126 18.8918L769.507 21.0783M769.507 21.0783L765.211 22.4973M720.849 37.1518L705.184 42.3264M781.181 66.3523L780.393 64.1894M781.181 66.3523L784.972 65.5204M781.181 66.3523L770.796 68.6312M780.393 64.1894L775.711 51.3322M780.393 64.1894L784.972 65.5204M775.711 51.3322L791.13 47.9394M751.723 56.6105L749.498 55.2084M751.723 56.6105L753.202 56.285M749.498 55.2084L753.202 56.285M787.581 66.279L787.85 64.8886M787.581 66.279L784.972 65.5204M787.85 64.8886L791.13 47.9394M787.85 64.8886L809.297 60.182M787.85 64.8886L784.972 65.5204M791.13 47.9394L792.042 43.2249M791.13 47.9394L795.795 46.9129M792.042 43.2249L795.383 25.9578M792.042 43.2249L795.795 46.9129M795.383 25.9578L806.202 29.9275M818.594 58.1419L812.088 43.3279M818.594 58.1419L830.31 55.5706M818.594 58.1419L809.297 60.182M812.088 43.3279L806.202 29.9275M812.088 43.3279L831.239 39.1139M812.088 43.3279L795.795 46.9129M806.202 29.9275L831.239 39.1139M830.31 55.5706L832.525 39.586M830.31 55.5706L837.568 53.9778M832.525 39.586L832.633 38.8071M832.525 39.586L842.263 43.1589M832.525 39.586L831.239 39.1139M832.633 38.8071L845.367 36.0052M832.633 38.8071L831.239 39.1139M809.297 60.182L795.795 46.9129M865.169 61.7243L857.677 49.5649M865.169 61.7243L870.678 59.3896M857.677 49.5649L857.08 48.5956M857.677 49.5649L858.957 49.2841M857.677 49.5649L843.942 52.5792M857.08 48.5956L852.021 40.3846M857.08 48.5956L858.957 49.2841M857.08 48.5956L848.634 45.4966M852.021 40.3846L848.85 35.2388M852.021 40.3846L856.553 33.5439M852.021 40.3846L848.634 45.4966M848.85 35.2388L847.002 32.2385M848.85 35.2388L856.553 33.5439M848.85 35.2388L845.367 36.0052M847.002 32.2385L851.677 21.4638M847.002 32.2385L845.367 36.0052M853.387 17.5228L851.677 21.4638M853.387 17.5228L856.07 18.0041M851.677 21.4638L860.163 25.2874M845.367 36.0052L842.263 43.1589M842.263 43.1589L837.568 53.9778M842.263 43.1589L848.634 45.4966M837.568 53.9778L843.942 52.5792M882.531 65.0904L877.664 56.4288M882.531 65.0904L883.995 58.471M877.664 56.4288L877.465 56.0752M877.664 56.4288L878.019 56.2783M877.664 56.4288L876.723 56.8277M877.465 56.0752L877.19 55.5856M877.465 56.0752L878.019 56.2783M877.465 56.0752L877.061 55.9271M877.19 55.5856L872.036 46.4139M877.19 55.5856L881.414 44.3559M877.19 55.5856L877.061 55.9271M872.036 46.4139L869.961 42.722M872.036 46.4139L881.414 44.3559M872.036 46.4139L870.138 46.8304M869.961 42.722L863.895 31.9284M869.961 42.722L869.444 30.7074M869.961 42.722L870.138 46.8304M863.895 31.9284L861.017 26.8064M863.895 31.9284L869.444 30.7074M863.895 31.9284L856.553 33.5439M861.017 26.8064L860.163 25.2874M861.017 26.8064L861.595 25.9328M861.017 26.8064L856.553 33.5439M860.163 25.2874L856.07 18.0041M860.163 25.2874L861.595 25.9328M856.07 18.0041L865.704 19.732M865.704 19.732L861.595 25.9328M865.704 19.732L868.997 20.3227M861.595 25.9328L869.389 29.4445M848.634 45.4966L843.942 52.5792M868.997 20.3227L869.389 29.4445M868.997 20.3227L889.097 23.928M869.389 29.4445L869.444 30.7074M869.389 29.4445L871.291 30.3011M869.444 30.7074L871.291 30.3011M870.138 46.8304L870.424 53.4918M870.138 46.8304L858.957 49.2841M870.424 53.4918L870.678 59.3896M870.424 53.4918L877.061 55.9271M870.424 53.4918L858.957 49.2841M870.678 59.3896L876.723 56.8277M883.995 58.471L878.019 56.2783M883.995 58.471L885.147 53.257M878.019 56.2783L885.147 53.257M877.061 55.9271L876.723 56.8277M885.147 53.257L887.406 43.0409M895.583 41.2464L888.507 38.0584M895.583 41.2464L887.406 43.0409M888.507 38.0584L884.467 36.238M888.507 38.0584L891.19 25.9224M888.507 38.0584L887.406 43.0409M884.467 36.238L871.291 30.3011M884.467 36.238L888.09 26.6045M884.467 36.238L881.414 44.3559M871.291 30.3011L888.09 26.6045M887.406 43.0409L881.414 44.3559M891.683 23.6947L889.494 22.8736M891.683 23.6947L891.534 24.3652M889.494 22.8736L889.097 23.928M891.534 24.3652L889.097 23.928M891.534 24.3652L891.19 25.9224M889.097 23.928L888.09 26.6045M891.19 25.9224L888.09 26.6045M856.649 5.40472L854.352 5.73285M152.956 75.1361L178.448 78.2668M152.956 75.1361L164.642 42.7741M152.956 75.1361L172.123 62.0064M152.956 75.1361L128.358 74.8688M152.956 75.1361L134.695 31.614M152.956 75.1361L127.543 51.6788M152.956 75.1361L23.0944 13.6586M178.448 78.2668L217.805 74.8688M178.448 78.2668L203.065 53.4779M178.448 78.2668L172.123 62.0064M178.448 78.2668L177.489 58.3308M178.448 78.2668L215.569 11.181M242.403 13.8644L215.569 11.181M242.403 13.8644L224.331 32.0633M242.403 13.8644L222.434 27.5432M215.569 11.181L175.318 13.2114M215.569 11.181L222.434 27.5432M215.569 11.181L216.291 31.7512M215.569 11.181L128.358 74.8688M175.318 13.2114L153.118 13.1475M175.318 13.2114L195.596 42.639M175.318 13.2114L204.301 39.9647M175.318 13.2114L170.886 25.4835M175.318 13.2114L176.082 29.0909M153.118 13.1475L164.642 42.7741M153.118 13.1475L170.886 25.4835M217.805 74.8688L203.065 53.4779M217.805 74.8688L217.2 57.6383M224.331 32.0633L222.434 27.5432M224.331 32.0633L216.576 39.8719M222.434 27.5432L216.291 31.7512M216.576 39.8719L210.657 45.8324M216.576 39.8719L216.291 31.7512M216.576 39.8719L216.991 51.6788M210.657 45.8324L206.388 50.1316M210.657 45.8324L216.991 51.6788M210.657 45.8324L204.301 39.9647M206.388 50.1316L203.065 53.4779M206.388 50.1316L217.2 57.6383M206.388 50.1316L197.98 44.2943M203.065 53.4779L197.135 44.873M197.135 44.873L195.596 42.639M197.135 44.873L177.489 58.3308M197.135 44.873L197.98 44.2943M195.596 42.639L197.98 44.2943M195.596 42.639L176.082 29.0909M216.991 51.6788L217.2 57.6383M204.301 39.9647L197.98 44.2943M204.301 39.9647L216.291 31.7512M164.642 42.7741L172.123 62.0064M164.642 42.7741L170.886 25.4835M172.123 62.0064L177.489 58.3308M170.886 25.4835L176.082 29.0909M177.489 58.3308L176.082 29.0909M63.5079 75.1361L89.0005 78.2668M63.5079 75.1361L75.1244 42.9678M63.5079 75.1361L82.5637 61.8923M63.5079 75.1361L44.6487 46.4472M63.5079 75.1361L40.9356 52.9502M63.5079 75.1361L26.2251 78.714M63.5079 75.1361L126.121 11.181M89.0005 78.2668L128.358 74.8688M89.0005 78.2668L113.478 53.2758M89.0005 78.2668L82.5637 61.8923M89.0005 78.2668L88.0297 58.0935M152.956 12.9699L126.121 11.181M152.956 12.9699L134.695 31.614M152.956 12.9699L132.761 27.0053M126.121 11.181L85.8699 13.2114M126.121 11.181L132.761 27.0053M126.121 11.181L126.822 31.1329M126.121 11.181L0.894531 75.316M85.8699 13.2114L63.5079 13.4172M85.8699 13.2114L106.411 43.0202M85.8699 13.2114L114.536 39.6718M85.8699 13.2114L81.3499 25.7281L75.1244 42.9678M85.8699 13.2114L86.6481 29.3839L88.0297 58.0935M63.5079 13.4172L75.1244 42.9678M63.5079 13.4172L44.6487 46.4472M63.5079 13.4172L38.9168 37.7277M63.5079 13.4172L23.0944 13.6586M128.358 74.8688L113.478 53.2758M128.358 74.8688L127.756 57.7486L127.543 51.6788M134.695 31.614L132.761 27.0053M134.695 31.614L127.111 39.3571M132.761 27.0053L126.822 31.1329M127.111 39.3571L120.978 45.6185M127.111 39.3571L126.822 31.1329M127.111 39.3571L127.543 51.6788M120.978 45.6185L116.622 50.0659L113.478 53.2758M120.978 45.6185L127.543 51.6788M120.978 45.6185L114.536 39.6718M113.478 53.2758L107.482 44.5743M107.482 44.5743L106.411 43.0202M107.482 44.5743L88.0297 58.0935M107.482 44.5743L108.07 44.1652M106.411 43.0202L108.07 44.1652M114.536 39.6718L108.07 44.1652M114.536 39.6718L126.822 31.1329M75.1244 42.9678L82.5637 61.8923M82.5637 61.8923L88.0297 58.0935M0.894531 75.316L26.2251 78.714M0.894531 75.316L12.4352 43.2633M0.894531 75.316L18.2351 58.1734M0.894531 75.316L0.894528 13.5948M26.2251 78.714L40.9356 52.9502M26.2251 78.714L18.2351 58.1734M26.2251 78.714L24.9187 51.5661M23.0944 13.6586L0.894528 13.5948M23.0944 13.6586L38.9168 37.7277M23.0944 13.6586L17.3087 29.7279M23.0944 13.6586L24.1934 36.4947M0.894528 13.5948L12.4352 43.2633M0.894528 13.5948L17.3087 29.7279M44.6487 46.4472L40.9356 52.9502M44.6487 46.4472L38.9168 37.7277M40.9356 52.9502L32.2018 44.366M38.9168 37.7277L32.2018 44.366M12.4352 43.2633L18.2351 58.1734M12.4352 43.2633L17.3087 29.7279M18.2351 58.1734L24.9187 51.5661M17.3087 29.7279L24.1934 36.4947M24.9187 51.5661L32.2018 44.366M24.9187 51.5661L24.1934 36.4947M32.2018 44.366L24.1934 36.4947" stroke="#C52D48" stroke-opacity="0.4" stroke-width="0.894477"/>
</svg>
