<svg width="148" height="334" viewBox="0 0 148 334" fill="none" xmlns="http://www.w3.org/2000/svg">
<path d="M30.4028 89.6568L34.0639 94.8393L60.2691 101.969L88.5939 93.2978L100.446 80.3879M30.4028 89.6568L19.2271 73.8366L17.3002 43.7776L28.0906 17.187L52.5617 3.69901L80.5011 1.96484L103.623 11.4064L112.294 37.6117L110.175 69.7902L100.446 80.3879M30.4028 89.6568L13.8319 110.447L3.81224 141.855L2.27075 174.804L7.47326 198.119L31.1736 207.56L43.8908 208.392M48.5153 126.247L38.881 148.984L40.4225 165.362L66.6277 164.784L82.428 166.904L92.6403 182.511V196.192L72.4083 210.258L43.8908 208.392M43.8908 208.392L49.0934 251.878L46.2031 278.083L43.3128 308.142L50.4421 325.099L59.4984 332.228L71.0595 331.65L77.8035 328.567L88.5939 316.813M88.5939 316.813L100.155 281.744L103.045 250.337L103.623 231.453M88.5939 316.813L95.1452 328.567L103.045 332.228L116.148 329.338L123.085 319.318L130.792 298.893L134.068 275.578L132.912 238.197M132.912 238.197L129.058 189.063L125.204 166.904L110.56 126.632L103.431 113.722M132.912 238.197L138.114 236.656L145.243 221.241L145.629 177.309L139.27 139.542L129.443 106.786L116.726 90.6002L100.446 80.3879" stroke="white" stroke-width="3"/>
<path d="M17.3002 43.7776L28.0906 17.187M17.3002 43.7776L19.2271 73.8366M17.3002 43.7776L112.294 37.6117M17.3002 43.7776L103.623 11.4064M17.3002 43.7776L88.5939 93.2978M17.3002 43.7776L52.5617 3.69901M17.3002 43.7776L110.175 69.7902M17.3002 43.7776L34.0639 94.8393M28.0906 17.187L52.5617 3.69901M28.0906 17.187L103.623 11.4064M28.0906 17.187L60.2691 101.969M28.0906 17.187L34.0639 94.8393M52.5617 3.69901L80.5011 1.96484M52.5617 3.69901L88.5939 93.2978M52.5617 3.69901L19.2271 73.8366M52.5617 3.69901L103.623 11.4064M52.5617 3.69901L110.175 69.7902M52.5617 3.69901L34.0639 94.8393M52.5617 3.69901L112.294 37.6117M80.5011 1.96484L103.623 11.4064M80.5011 1.96484L60.2691 101.969M80.5011 1.96484L112.294 37.6117M103.623 11.4064L112.294 37.6117M103.623 11.4064L88.5939 93.2978M103.623 11.4064L34.0639 94.8393M112.294 37.6117L110.175 69.7902M112.294 37.6117L60.2691 101.969M112.294 37.6117L88.5939 93.2978M112.294 37.6117L19.2271 73.8366M110.175 69.7902L100.446 80.3879M110.175 69.7902L60.2691 101.969M110.175 69.7902L19.2271 73.8366M88.5939 93.2978L60.2691 101.969M88.5939 93.2978L100.446 80.3879M88.5939 93.2978L48.5153 126.247M88.5939 93.2978L38.881 148.984M88.5939 93.2978L129.443 106.786M88.5939 93.2978L139.27 139.542M60.2691 101.969L34.0639 94.8393M60.2691 101.969L19.2271 73.8366M60.2691 101.969L13.8319 110.447M60.2691 101.969L125.204 166.904M34.0639 94.8393L30.4028 89.6568M34.0639 94.8393L3.81224 141.855M34.0639 94.8393L48.5153 126.247M19.2271 73.8366L30.4028 89.6568M30.4028 89.6568L13.8319 110.447M13.8319 110.447L3.81224 141.855M13.8319 110.447L48.5153 126.247M3.81224 141.855L2.27075 174.804M3.81224 141.855L48.5153 126.247M3.81224 141.855L38.881 148.984M3.81224 141.855L40.4225 165.362M3.81224 141.855L31.1736 207.56M2.27075 174.804L7.47326 198.119M2.27075 174.804L48.5153 126.247M2.27075 174.804L38.881 148.984M2.27075 174.804L40.4225 165.362M2.27075 174.804L31.1736 207.56M7.47326 198.119L31.1736 207.56M7.47326 198.119L66.6277 164.784M31.1736 207.56L43.8908 208.392M31.1736 207.56L66.6277 164.784M31.1736 207.56L92.6403 182.511M31.1736 207.56L92.6403 196.192M72.4083 210.258L92.6403 196.192M72.4083 210.258L43.8908 208.392M72.4083 210.258L92.6403 182.511M72.4083 210.258L82.428 166.904M72.4083 210.258L40.4225 165.362M72.4083 210.258L66.6277 164.784M72.4083 210.258L49.0933 251.878M72.4083 210.258L103.623 231.453M72.4083 210.258L43.3128 308.142M72.4083 210.258L59.4984 332.228M92.6403 196.192V182.511M92.6403 196.192L66.6277 164.784M92.6403 196.192L125.204 166.904M92.6403 196.192L49.0933 251.878M92.6403 196.192L103.623 231.453M92.6403 196.192L129.058 189.063M92.6403 196.192L132.912 238.197M92.6403 182.511L82.428 166.904M92.6403 182.511L66.6277 164.784M92.6403 182.511L125.204 166.904M82.428 166.904L66.6277 164.784M82.428 166.904L103.431 113.722M66.6277 164.784L40.4225 165.362M66.6277 164.784L103.431 113.722M66.6277 164.784L100.446 80.3879M40.4225 165.362L38.881 148.984M40.4225 165.362L103.431 113.722M38.881 148.984L48.5153 126.247M38.881 148.984L103.431 113.722M38.881 148.984L125.204 166.904M48.5153 126.247L116.726 90.6002M43.8908 208.392L49.0933 251.878M43.8908 208.392L103.623 231.453M43.8908 208.392L100.155 281.744M49.0933 251.878L46.2031 278.083M49.0933 251.878L59.4984 332.228M49.0933 251.878L88.5939 316.813M46.2031 278.083L43.3128 308.142M46.2031 278.083L71.0595 331.65M46.2031 278.083L103.045 250.337M43.3128 308.142L50.4422 325.099L59.4984 332.228M43.3128 308.142L103.623 231.453M59.4984 332.228L71.0595 331.65M59.4984 332.228L100.155 281.744M71.0595 331.65L77.8035 328.567L88.5939 316.813M71.0595 331.65L103.623 231.453M88.5939 316.813L100.155 281.744M88.5939 316.813L95.1452 328.567M88.5939 316.813L134.068 275.578M100.155 281.744L103.045 250.337M100.155 281.744L116.148 329.338M103.045 250.337L103.623 231.453M103.045 250.337L116.148 329.338M103.045 250.337L123.085 319.318M103.045 250.337L129.058 189.063M103.623 231.453L130.792 298.893M103.623 231.453L125.204 166.904M95.1452 328.567L103.045 332.228M95.1452 328.567L132.912 238.197M103.045 332.228L116.148 329.338M103.045 332.228L132.912 238.197M116.148 329.338L123.085 319.318M123.085 319.318L130.792 298.893M130.792 298.893L134.068 275.578M134.068 275.578L132.912 238.197M132.912 238.197L129.058 189.063M132.912 238.197L138.114 236.656M132.912 238.197L145.629 177.309M132.912 238.197L139.27 139.542M129.058 189.063L125.204 166.904M129.058 189.063L138.114 236.656M125.204 166.904L110.56 126.632M125.204 166.904L139.27 139.542M125.204 166.904L129.443 106.786M125.204 166.904L145.629 177.309M125.204 166.904L145.243 221.241M110.56 126.632L103.431 113.722M110.56 126.632L139.27 139.542M110.56 126.632L145.629 177.309M138.114 236.656L145.243 221.241M145.243 221.241L145.629 177.309M145.629 177.309L139.27 139.542M139.27 139.542L129.443 106.786M129.443 106.786L116.726 90.6002M116.726 90.6002L100.446 80.3879M116.726 90.6002L103.431 113.722M100.446 80.3879L103.431 113.722" stroke="white"/>
<path d="M33.5695 51.5348L70.3855 61.5298M33.5695 51.5348L40.1524 67.5059M33.5695 51.5348L51.9775 71.5282L42.5891 37.7589M33.5695 51.5348L53.0735 30.6899M33.5695 51.5348L62.5825 26.6644L42.5891 37.7589M33.5695 51.5348L75.5038 25.5684M33.5695 51.5348L91.7196 33.1266M33.5695 51.5348L96.2278 42.2703M33.5695 51.5348L95.2525 55.4361M33.5695 51.5348L36.496 64.821M70.3855 61.5298L42.5891 37.7589M70.3855 61.5298L95.2525 55.4361M42.5891 37.7589L56.975 63.9699M42.5891 37.7589L43.6854 77.3801M42.5891 37.7589L75.5038 25.5684M42.5891 37.7589L91.7196 33.1266M42.5891 37.7589L96.2278 42.2703M42.5891 37.7589L95.2525 55.4361M42.5891 37.7589L36.496 64.821M42.5891 37.7589L32.7151 57.997M56.975 63.9699L91.7196 33.1266M56.975 63.9699L96.2278 42.2703M36.496 64.821L53.0739 30.6898M53.0739 30.6898L43.6854 77.3801M53.0739 30.6898L70.3861 61.5297L75.5042 25.5684M53.0739 30.6898L75.5042 25.5684M53.0739 30.6898L96.2283 42.2703L75.5042 25.5684M53.0739 30.6898L56.9756 63.9698M43.6854 77.3801L51.9779 71.528M43.6854 77.3801L51.9779 76.1602L40.1528 67.5059L56.9756 63.9698M75.5042 25.5684L56.9756 63.9698M75.5038 25.5684L80.6253 66.6512L96.2278 42.2703M75.5038 25.5684L95.2525 55.4361M95.2525 55.4361L91.7196 33.1266" stroke="#C52D48" stroke-linecap="round" stroke-linejoin="round"/>
<path d="M36.4959 64.8211L40.1527 67.5059L43.6855 77.3803L48.4417 81.1577L51.9778 76.1602V71.528L56.9753 63.9698L70.3858 61.5297L80.6255 66.6512L95.2527 55.4361L96.2281 42.2703L91.7199 33.1266L75.504 25.5684L62.5829 26.6644L53.0738 30.6899L42.5894 37.7588L33.5698 51.5346L32.7151 57.9969L36.4959 64.8211Z" fill="#C52D48" fill-opacity="0.4" stroke="#C52D48" stroke-width="2" stroke-linecap="round" stroke-linejoin="round"/>
<path d="M95.9158 161.895H78.9595V164.592L77.418 166.712L77.6107 207.368L81.079 210.066H93.4109L97.0719 206.79L97.2646 167.097L95.7231 164.592L95.9158 161.895Z" fill="#C52D48" fill-opacity="0.4" stroke="#C52D48" stroke-width="2"/>
<path d="M78.9595 161.895H95.9158M78.9595 161.895V164.592M78.9595 161.895L95.7231 164.592M78.9595 161.895L97.2646 167.097M78.9595 161.895L97.0719 206.79M78.9595 161.895L97.1682 186.944M95.9158 161.895L95.7231 164.592M95.9158 161.895L78.9595 164.592M95.9158 161.895L77.418 166.712M95.9158 161.895L77.5143 187.04M95.7231 164.592L97.2646 167.097M95.7231 164.592L77.6107 207.368M95.7231 164.592L81.079 210.066M97.2646 167.097L87.2449 210.066M97.2646 167.097L97.1682 186.944M97.2646 167.097L77.5143 187.04M97.0719 206.79L93.4109 210.066M97.0719 206.79L97.1682 186.944M93.4109 210.066H87.2449M93.4109 210.066L77.418 166.712M81.079 210.066L77.6107 207.368M81.079 210.066H87.2449M81.079 210.066L78.9595 164.592M81.079 210.066L97.1682 186.944M77.6107 207.368L97.1682 186.944M77.6107 207.368L77.5143 187.04M77.418 166.712L78.9595 164.592M77.418 166.712L77.5143 187.04M78.9595 164.592L87.2449 210.066M87.2449 210.066L77.5143 187.04" stroke="#C52D48"/>
</svg>
