<svg width="864" height="370" viewBox="0 0 864 370" fill="none" xmlns="http://www.w3.org/2000/svg">
<path d="M187.196 69.6365L322.443 113.919M187.196 69.6365L140.709 98.941M187.196 69.6365L234.634 56.7367M187.196 69.6365L105.569 314.842M120.472 333.126L181.385 331.871M120.472 333.126L105.569 314.842M120.472 333.126L451.086 260.992M451.086 326.314L105.569 314.842M451.086 326.314L496.671 336.783M451.086 326.314L617.195 242.858M451.086 326.314L700.249 233.792M451.086 326.314L383.661 327.703M633.425 368.191L658.722 363.562M633.425 368.191L587.84 357.722M633.425 368.191L860.811 260.992M862.25 326.314L827.385 332.694M862.25 326.314L861.53 293.653M862.25 326.314L700.249 233.792M858.042 135.359L858.868 172.828M858.042 135.359L822.15 130.625M858.042 135.359L827.385 332.694M858.042 135.359L589.142 152.176M858.042 135.359L783.303 224.725M570.909 97.4883L535.242 71.5884M570.909 97.4883L859.945 221.719M570.909 97.4883L642.692 106.956M570.909 97.4883L407.655 97.1877M570.909 97.4883L234.634 56.7367M438.462 1.30957L523.22 127.544M438.462 1.30957L376.948 18.0371M438.462 1.30957L462.657 18.8793M195.611 186.854L140.709 98.941M195.611 186.854L211.465 177.737M195.611 186.854L227.546 196.122M195.611 186.854L783.303 224.725M195.611 186.854L383.661 327.703M451.086 260.992L698.746 193.13M451.086 260.992L322.443 113.919M451.086 260.992L388.598 242.858M451.086 260.992L181.385 331.871M451.086 260.992L534.14 251.925M783.303 224.725L741.025 208.927M783.303 224.725L741.776 229.258M783.303 224.725L642.692 106.956M523.22 127.544L589.142 152.176M523.22 127.544L259.48 205.389M523.22 127.544L446.177 107.307M523.22 127.544L714.475 116.423M369.134 87.0689L322.443 113.919M369.134 87.0689L94.2228 128.245M369.134 87.0689L407.655 97.1877M369.134 87.0689L227.546 196.122M369.134 87.0689L642.692 106.956M322.443 113.919L446.177 107.307M322.443 113.919L290.735 132.153M94.2228 128.245L140.709 98.941M94.2228 128.245L60.8608 259.99M94.2228 128.245L70.9796 142.898M140.709 98.941L486.852 36.449M140.709 98.941L16.1527 205.138M376.948 18.0371L535.242 71.5884M376.948 18.0371L329.51 30.937M535.242 71.5884L511.047 54.0187M282.072 43.8368L486.852 36.449M282.072 43.8368L234.634 56.7367M282.072 43.8368L329.51 30.937M486.852 36.449L462.657 18.8793M486.852 36.449L511.047 54.0187M698.746 193.13L655.065 176.808M698.746 193.13L741.025 208.927M617.195 242.858L655.065 176.808M617.195 242.858L658.722 238.325M617.195 242.858L575.667 247.392M655.065 176.808L589.142 152.176M700.249 233.792L589.142 152.176M700.249 233.792L658.722 238.325M700.249 233.792L741.776 229.258M589.142 152.176L211.465 177.737M589.142 152.176L388.598 242.858M741.025 208.927L658.722 238.325M714.475 116.423L858.868 172.828M714.475 116.423L786.259 125.891M714.475 116.423L642.692 106.956M858.868 172.828L859.945 221.719M786.259 125.891L859.945 221.719M786.259 125.891L822.15 130.625M859.945 221.719L860.811 260.992M822.15 130.625L860.811 260.992M860.811 260.992L861.53 293.653M860.811 260.992L827.385 332.694M827.385 332.694L764.869 344.135M861.53 293.653L764.869 344.135M764.869 344.135L711.795 353.849M764.869 344.135L496.671 336.783M60.8608 259.99L181.385 331.871M60.8608 259.99L90.6662 296.558M60.8608 259.99L31.0554 223.422M60.8608 259.99L388.598 242.858M181.385 331.871L248.81 330.482M90.6662 296.558L316.235 329.092M90.6662 296.558L105.569 314.842M90.6662 296.558L47.7364 157.55M316.235 329.092L24.4932 172.202M316.235 329.092L383.661 327.703M316.235 329.092L248.81 330.482M259.027 150.387L323.349 223.923M259.027 150.387L227.319 168.62M259.027 150.387L290.735 132.153M323.349 223.923L387.217 242.458M323.349 223.923L259.48 205.389M323.349 223.923L534.14 251.925M227.319 168.62L387.217 242.458M227.319 168.62L211.465 177.737M387.217 242.458L388.598 242.858M259.48 205.389L227.546 196.122M259.48 205.389L383.661 327.703M446.177 107.307L407.655 97.1877M446.177 107.307L741.776 229.258M290.735 132.153L407.655 97.1877M290.735 132.153L575.667 247.392M47.7364 157.55L70.9796 142.898M47.7364 157.55L24.4932 172.202M31.0554 223.422L70.9796 142.898M31.0554 223.422L16.1527 205.138M31.0554 223.422L383.661 327.703M70.9796 142.898L248.81 330.482M16.1527 205.138L8.70135 195.996M24.4932 172.202L1.25 186.854L8.70135 195.996M24.4932 172.202L8.70135 195.996M542.255 347.252L658.722 363.562M542.255 347.252L587.84 357.722M542.255 347.252L496.671 336.783M658.722 363.562L711.795 353.849M711.795 353.849L587.84 357.722M234.634 56.7367L462.657 18.8793M511.047 54.0187L329.51 30.937M534.14 251.925L575.667 247.392" stroke="#20105C" stroke-width="0.801489"/>
</svg>
