<svg width="684" height="825" viewBox="0 0 684 825" fill="none" xmlns="http://www.w3.org/2000/svg">
<path d="M97.5287 200.653L33.7305 254.862L2 374.041L50.7822 450.931L153.867 489.435L253.653 471.202L254.951 411.137L216.157 393.23L123.6 379.211L111.211 345.044L132.819 282.499" stroke="white" stroke-width="3" stroke-linecap="round" stroke-linejoin="round"/>
<path d="M416.928 434.732L383.237 448.465M305.412 439.974L474.358 435.998L416.202 434.732M34.2583 254.929L50.7822 450.93L250.796 470.587L215.589 393.166M34.2583 254.929L152.831 489.434L215.589 393.166M34.2583 254.929L111.211 344.802L215.589 393.166M215.589 393.166L2 374.041L97.5287 200.653L132.819 282.498M215.589 393.166L301.789 396.082M215.589 393.166L132.819 282.498M132.819 282.498L123.6 379.211L301.789 365.057M132.819 282.498L301.789 365.057M132.819 282.498L301.789 396.082M132.819 282.498L278.169 253.092M301.789 365.057L278.169 253.092M301.789 365.057L435.564 396.082L387.401 349.166M301.789 365.057L310.043 235.388M301.789 365.057L343.484 336.14M301.789 365.057L387.401 349.166M278.169 253.092L235.971 215.013L310.043 235.388M278.169 253.092L310.043 235.388M278.169 253.092L264.539 185.451L343.484 336.14M310.043 235.388L295.955 302.326L343.484 336.14M343.484 336.14L301.789 396.082M301.789 396.082L387.401 349.166M458.18 352.963L301.79 396.082M278.57 253.463L296.427 301.729L301.788 365.012V396.08M170.644 235.385L100.175 36.7539L273.978 22.9745M170.644 235.385L220.038 2L293.753 82.9008M170.644 235.385L293.753 82.9008M170.644 235.385L289.559 157.806L156.509 4.99574M110.713 219.205L75.0028 97.8793M75.0028 97.8793L293.751 82.9012L76.5504 170.067M75.0028 97.8793L273.977 22.9745M75.0028 97.8793L156.508 4.99571L76.5504 170.067M75.0028 97.8793L235.969 215.011M75.0028 97.8793L289.557 157.806L76.5504 170.067M156.509 6.37605L110.715 219.205L273.978 22.9745M293.753 82.9008L156.509 4.99574M273.978 22.9745L156.509 4.99574M156.509 4.99574L235.972 215.011M76.5504 170.067L100.174 36.7539M235.972 215.011L293.754 82.9008M235.972 215.011L273.98 22.9745L289.56 157.807M110.715 219.206L235.97 215.012M76.5508 170.068L170.643 235.387M170.646 235.386L295.957 302.324L132.82 282.496L34.2597 254.928L111.213 219.205M50.9688 451.19L111.211 345.042L2 373.845L153.867 489.432L123.672 378.717L83.4532 463.129L34.2583 254.928L310.043 235.386M123.671 378.718L295.954 302.324L111.21 344.801M301.789 365.056L215.59 393.165M83.4539 463.13L131.593 607.926M131.593 607.926L307.921 616.869M131.593 607.926L341.853 520.458M131.593 607.926L286.059 520.458M131.593 607.926L153.868 489.433M131.593 607.926L387.846 529.04M307.921 616.869L402.017 769.616L361.731 816.659M307.921 616.869L291.111 788.924M307.921 616.869L341.853 520.458M361.731 816.659L291.111 788.924M361.731 816.659L291.111 734.147L387.846 529.04M361.731 816.659L417.41 705.908M291.111 788.924L404.053 767.529L320.028 823L387.846 529.04M291.111 788.924L423.918 554.784M341.853 520.458L423.918 554.784M341.853 520.458L90.3788 553.466M341.853 520.458L240.65 618.138M341.853 520.458L423.918 481.81M423.918 554.784L399.929 767.585M423.918 554.784L508.534 622.432M423.918 554.784L501.312 731.834L417.41 705.908M423.918 554.784L423.918 482.279L286.059 520.458M508.534 622.432L402.612 769.533L472.724 791.931L508.534 622.432ZM508.534 622.432L487.137 496.055L343.485 480.973L286.059 520.458M286.059 520.458L320.195 469.288L153.868 489.433M286.059 520.458L417.41 705.908M286.059 520.458L253.94 471.228L90.3788 553.466M153.868 489.433L90.3788 553.466M153.868 489.433L254.559 415.337L123.673 378.717L50.7833 450.929M90.3788 553.466L240.65 618.138M417.41 705.908L387.846 529.04M305.413 440.711L253.654 471.2L240.65 618.138M425.951 798.388L501.309 731.835L402.015 769.617L508.531 538.771L343.482 480.975L254.43 471.377M417.409 705.907L508.533 622.622" stroke="white" stroke-linecap="round" stroke-linejoin="round"/>
<path d="M305.563 439.219C304.739 439.135 304.003 439.736 303.919 440.56C303.836 441.384 304.436 442.12 305.26 442.204L305.563 439.219ZM381.706 448.465L381.554 449.957C381.671 449.969 381.789 449.967 381.906 449.951L381.706 448.465ZM474.358 435.998L474.558 437.484C474.868 437.442 475.157 437.305 475.385 437.091L474.358 435.998ZM484.082 428.921C484.686 428.354 484.716 427.405 484.149 426.801C483.581 426.197 482.632 426.168 482.028 426.735L484.082 428.921ZM265.648 184.441C265.09 183.829 264.142 183.784 263.529 184.342C262.917 184.9 262.872 185.849 263.43 186.461L265.648 184.441ZM310.016 235.387L311.441 234.919C311.375 234.718 311.267 234.533 311.125 234.377L310.016 235.387ZM343.246 336.631L341.821 337.099C341.979 337.58 342.37 337.95 342.859 338.08L343.246 336.631ZM387.842 348.531L387.455 349.98C387.551 350.005 387.649 350.021 387.748 350.028L387.842 348.531ZM458.086 354.46C458.912 354.512 459.625 353.884 459.677 353.057C459.729 352.23 459.101 351.518 458.274 351.466L458.086 354.46ZM303.458 433.34C303.09 432.598 302.191 432.294 301.448 432.662C300.706 433.03 300.402 433.93 300.77 434.672L303.458 433.34ZM318.952 467.983L317.608 468.65C317.744 468.925 317.962 469.151 318.231 469.299L318.952 467.983ZM344.183 481.811L343.462 483.127C343.683 483.248 343.931 483.311 344.183 483.311V481.811ZM423.917 481.811L424.238 480.346C424.133 480.323 424.025 480.311 423.917 480.311V481.811ZM487.64 495.766L488.99 495.111C488.789 494.698 488.41 494.399 487.961 494.301L487.64 495.766ZM508.533 538.77H510.033C510.033 538.543 509.982 538.319 509.883 538.115L508.533 538.77ZM508.533 622.433L510.03 622.532C510.032 622.499 510.033 622.466 510.033 622.433H508.533ZM501.311 731.835L502.674 732.461C502.751 732.295 502.796 732.116 502.808 731.934L501.311 731.835ZM474.275 790.722L474.56 792.195C475.035 792.103 475.436 791.787 475.638 791.348L474.275 790.722ZM423.917 800.479L422.682 801.329C423.02 801.821 423.617 802.065 424.203 801.951L423.917 800.479ZM402.815 767.183C402.346 766.501 401.412 766.328 400.729 766.798C400.047 767.268 399.875 768.202 400.344 768.884L402.815 767.183ZM110.681 219.538L109.453 220.399L109.767 220.848L110.298 220.989L110.681 219.538ZM76.1533 170.214L74.6534 170.238L74.6608 170.697L74.9244 171.074L76.1533 170.214ZM75.0024 97.8795L73.6154 97.3084L73.4977 97.5943L73.5026 97.9034L75.0024 97.8795ZM100.173 36.7546L99.4367 35.4479L98.9841 35.703L98.7863 36.1834L100.173 36.7546ZM156.507 4.99574L156.437 3.4974L156.081 3.51418L155.771 3.68908L156.507 4.99574ZM220.036 2L220.579 0.601967L220.283 0.486681L219.965 0.501665L220.036 2ZM273.977 22.9741L275.401 22.5041L275.18 21.8324L274.52 21.5761L273.977 22.9741ZM293.751 82.9008L295.248 82.9847L295.264 82.7008L295.175 82.4308L293.751 82.9008ZM289.556 157.806L290.723 158.749L291.027 158.373L291.054 157.89L289.556 157.806ZM286.913 161.076L288.004 162.106L288.043 162.064L288.08 162.019L286.913 161.076ZM235.968 215.011L236.415 216.443L236.789 216.326L237.059 216.041L235.968 215.011ZM170.642 235.386L170.259 236.836L170.677 236.947L171.089 236.818L170.642 235.386ZM286.916 518.641C286.088 518.641 285.416 519.313 285.416 520.141C285.416 520.97 286.088 521.641 286.916 521.641V518.641ZM340.928 520.141L341.208 518.667C341.116 518.65 341.022 518.641 340.928 518.641V520.141ZM387.846 529.041L388.717 527.82C388.54 527.694 388.338 527.608 388.125 527.567L387.846 529.041ZM423.917 554.785L425.416 554.849C425.438 554.342 425.202 553.858 424.789 553.564L423.917 554.785ZM417.409 705.909L418.863 706.279C418.888 706.179 418.904 706.077 418.908 705.973L417.409 705.909ZM396.254 788.925L397.216 790.076C397.458 789.874 397.63 789.601 397.708 789.295L396.254 788.925ZM361.861 817.636L362.052 819.124C362.336 819.087 362.603 818.971 362.822 818.787L361.861 817.636ZM320.027 823.001L318.884 823.971C319.212 824.358 319.715 824.553 320.218 824.488L320.027 823.001ZM291.11 788.925H289.61C289.61 789.28 289.737 789.624 289.967 789.895L291.11 788.925ZM291.11 734.148L289.626 733.935C289.616 734.006 289.61 734.077 289.61 734.148H291.11ZM307.92 616.87L309.405 617.083C309.467 616.647 309.336 616.206 309.044 615.877C308.753 615.547 308.332 615.362 307.892 615.37L307.92 616.87ZM240.65 618.14L240.51 619.633C240.566 619.638 240.622 619.64 240.678 619.639L240.65 618.14ZM131.593 607.926L130.397 608.832C130.651 609.167 131.034 609.381 131.453 609.42L131.593 607.926ZM90.3783 553.467L88.8827 553.582C88.9047 553.869 89.0086 554.143 89.1822 554.373L90.3783 553.467ZM84.9492 463.016C84.8859 462.19 84.165 461.572 83.339 461.635C82.513 461.699 81.8947 462.419 81.958 463.246L84.9492 463.016ZM305.26 442.204L381.554 449.957L381.858 446.972L305.563 439.219L305.26 442.204ZM381.906 449.951L474.558 437.484L474.158 434.511L381.506 446.978L381.906 449.951ZM475.385 437.091L484.082 428.921L482.028 426.735L473.331 434.904L475.385 437.091ZM263.43 186.461L308.907 236.397L311.125 234.377L265.648 184.441L263.43 186.461ZM308.591 235.855L341.821 337.099L344.671 336.163L311.441 234.919L308.591 235.855ZM342.859 338.08L387.455 349.98L388.229 347.081L343.633 335.182L342.859 338.08ZM387.748 350.028L458.086 354.46L458.274 351.466L387.936 347.034L387.748 350.028ZM300.77 434.672L317.608 468.65L320.296 467.317L303.458 433.34L300.77 434.672ZM318.231 469.299L343.462 483.127L344.903 480.496L319.673 466.668L318.231 469.299ZM344.183 483.311H423.917V480.311H344.183V483.311ZM423.597 483.277L487.319 497.232L487.961 494.301L424.238 480.346L423.597 483.277ZM486.291 496.422L507.184 539.426L509.883 538.115L488.99 495.111L486.291 496.422ZM507.033 538.77V622.433H510.033V538.77H507.033ZM507.037 622.334L499.814 731.736L502.808 731.934L510.03 622.532L507.037 622.334ZM499.948 731.209L472.912 790.096L475.638 791.348L502.674 732.461L499.948 731.209ZM473.99 789.249L423.632 799.006L424.203 801.951L474.56 792.195L473.99 789.249ZM425.153 799.628L402.815 767.183L400.344 768.884L422.682 801.329L425.153 799.628ZM111.91 218.678L77.3821 169.354L74.9244 171.074L109.453 220.399L111.91 218.678ZM77.6531 170.19L76.5023 97.8557L73.5026 97.9034L74.6534 170.238L77.6531 170.19ZM76.3894 98.4507L101.56 37.3257L98.7863 36.1834L73.6154 97.3084L76.3894 98.4507ZM100.91 38.0612L157.244 6.3024L155.771 3.68908L99.4367 35.4479L100.91 38.0612ZM156.578 6.49407L220.106 3.49834L219.965 0.501665L156.437 3.4974L156.578 6.49407ZM219.492 3.39803L273.433 24.3722L274.52 21.5761L220.579 0.601967L219.492 3.39803ZM272.552 23.4442L292.326 83.3709L295.175 82.4308L275.401 22.5041L272.552 23.4442ZM292.253 82.817L288.059 157.722L291.054 157.89L295.248 82.9847L292.253 82.817ZM288.39 156.863L285.747 160.133L288.08 162.019L290.723 158.749L288.39 156.863ZM285.823 160.046L234.878 213.981L237.059 216.041L288.004 162.106L285.823 160.046ZM235.522 213.579L170.196 233.954L171.089 236.818L236.415 216.443L235.522 213.579ZM171.026 233.936L111.065 218.088L110.298 220.989L170.259 236.836L171.026 233.936ZM286.916 521.641H340.928V518.641H286.916V521.641ZM340.649 521.615L387.566 530.515L388.125 527.567L341.208 518.667L340.649 521.615ZM386.974 530.262L423.046 556.006L424.789 553.564L388.717 527.82L386.974 530.262ZM422.419 554.72L415.911 705.844L418.908 705.973L425.416 554.849L422.419 554.72ZM415.956 705.538L394.801 788.554L397.708 789.295L418.863 706.279L415.956 705.538ZM395.293 787.773L360.9 816.484L362.822 818.787L397.216 790.076L395.293 787.773ZM361.67 816.148L319.837 821.513L320.218 824.488L362.052 819.124L361.67 816.148ZM321.171 822.03L292.254 787.954L289.967 789.895L318.884 823.971L321.171 822.03ZM292.61 788.925V734.148H289.61V788.925H292.61ZM292.595 734.361L309.405 617.083L306.435 616.657L289.626 733.935L292.595 734.361ZM307.892 615.37L240.621 616.64L240.678 619.639L307.948 618.37L307.892 615.37ZM240.79 616.646L131.733 606.433L131.453 609.42L240.51 619.633L240.79 616.646ZM132.789 607.021L91.5744 552.562L89.1822 554.373L130.397 608.832L132.789 607.021ZM91.8739 553.353L84.9492 463.016L81.958 463.246L88.8827 553.582L91.8739 553.353Z" fill="white"/>
<path d="M533.824 207.719L682.183 208.671L560.717 419.075L416.573 434.677L255.96 433.427L256.52 413.06L253.687 408.469L302.116 395.978H315.1L432.756 396.831H434.734L533.824 207.719Z" fill="#C52D48" fill-opacity="0.4" stroke="#C52D48" stroke-width="3" stroke-linecap="round" stroke-linejoin="round"/>
<path d="M302.271 395.744C302.009 395.657 301.726 395.799 301.639 396.061C301.552 396.323 301.694 396.606 301.956 396.693L302.271 395.744ZM416.927 434.369L416.86 434.864C417.116 434.899 417.356 434.733 417.415 434.482C417.473 434.23 417.33 433.976 417.085 433.894L416.927 434.369ZM257.839 412.842L257.794 412.344C257.54 412.367 257.345 412.576 257.339 412.831C257.333 413.085 257.52 413.303 257.772 413.337L257.839 412.842ZM435.011 396.712L435.111 397.202C435.371 397.149 435.545 396.902 435.506 396.64C435.467 396.377 435.23 396.19 434.966 396.214L435.011 396.712ZM254.366 432.937C254.096 432.992 253.921 433.256 253.976 433.527C254.031 433.797 254.295 433.972 254.565 433.917L254.366 432.937ZM532.838 207.648C532.798 207.374 532.545 207.185 532.272 207.224C531.998 207.263 531.809 207.516 531.848 207.79L532.838 207.648ZM562.645 418.873L562.56 419.366C562.717 419.393 562.878 419.343 562.993 419.231C563.108 419.12 563.162 418.96 563.14 418.802L562.645 418.873ZM435.459 396.945L435.157 396.547C434.998 396.667 434.926 396.87 434.973 397.064C435.02 397.257 435.178 397.404 435.374 397.438L435.459 396.945ZM682.182 209.861L682.505 210.243C682.711 210.068 682.741 209.76 682.572 209.549C682.402 209.337 682.095 209.299 681.879 209.463L682.182 209.861ZM416.606 433.987C416.395 434.165 416.369 434.481 416.547 434.692C416.725 434.903 417.041 434.929 417.252 434.75L416.606 433.987ZM301.956 396.693L416.77 434.843L417.085 433.894L302.271 395.744L301.956 396.693ZM416.994 433.873L257.906 412.346L257.772 413.337L416.86 434.864L416.994 433.873ZM257.884 413.34L435.057 397.21L434.966 396.214L257.794 412.344L257.884 413.34ZM434.912 396.222L254.366 432.937L254.565 433.917L435.111 397.202L434.912 396.222ZM531.848 207.79L562.15 418.944L563.14 418.802L532.838 207.648L531.848 207.79ZM562.73 418.38L435.544 396.453L435.374 397.438L562.56 419.366L562.73 418.38ZM435.761 397.344L682.484 210.26L681.879 209.463L435.157 396.547L435.761 397.344ZM681.858 209.48L416.606 433.987L417.252 434.75L682.505 210.243L681.858 209.48ZM434.281 396.364L415.751 434.514L416.65 434.951L435.18 396.8L434.281 396.364Z" fill="#C52D48"/>
</svg>
