<svg width="270" height="153" viewBox="0 0 270 153" fill="none" xmlns="http://www.w3.org/2000/svg">
<path d="M89.3435 1.31775L111.171 14.1248L128.593 4.3194H146.815L164.838 14.1248L183.661 10.5228L210.495 16.5261L226.915 31.3342L235.927 51.7455L258.154 62.9516L267.967 83.7631L263.962 107.976L244.938 125.786H219.306L198.68 143.596L171.847 146.598L152.623 137.593L140.207 146.598L115.176 151L94.1495 143.596L80.933 131.189L48.893 137.593L30.0695 125.786L20.6577 103.174L4.2372 87.9654L1.0332 62.9516L12.4475 42.1402L35.4762 34.1358L40.883 20.5283L60.7077 4.3194L89.3435 1.31775Z" fill="#C52D48" fill-opacity="0.4" stroke="#C52D48" stroke-width="2"/>
<path d="M111.171 14.1248L89.3435 1.31775M111.171 14.1248L128.592 4.3194M111.171 14.1248L40.883 20.5283M111.171 14.1248L146.815 4.3194M89.3435 1.31775L60.7077 4.3194L40.883 20.5283M89.3435 1.31775L4.2372 87.9654M40.883 20.5283L35.4762 34.1358M35.4762 34.1358L12.4475 42.1402M35.4762 34.1358L30.0695 125.786M12.4475 42.1402L1.0332 62.9516M12.4475 42.1402L20.6577 103.174M1.0332 62.9516L4.2372 87.9654M1.0332 62.9516L48.893 137.593M4.2372 87.9654L20.6577 103.174M20.6577 103.174L30.0695 125.786M30.0695 125.786L48.893 137.593M30.0695 125.786L80.933 131.189M48.893 137.593L80.933 131.189M80.933 131.189L94.1495 143.596L115.176 151M80.933 131.189L140.207 146.598M115.176 151L140.207 146.598M115.176 151L152.623 137.593M140.207 146.598L152.623 137.593M152.623 137.593L171.847 146.598M152.623 137.593L198.68 143.596M171.847 146.598L198.68 143.596M171.847 146.598L219.306 125.786M198.68 143.596L219.306 125.786M219.306 125.786H244.938M219.306 125.786L258.154 62.9516M244.938 125.786L263.962 107.976M244.938 125.786L235.927 51.7455M263.962 107.976L267.967 83.7631L258.154 62.9516M263.962 107.976L210.495 16.5261M258.154 62.9516L235.927 51.7455M235.927 51.7455L226.915 31.3342M235.927 51.7455L183.661 10.5228M226.915 31.3342L210.495 16.5261M226.915 31.3342L164.838 14.1248M210.495 16.5261L183.661 10.5228M183.661 10.5228L164.838 14.1248M164.838 14.1248L146.815 4.3194M164.838 14.1248L128.592 4.3194M146.815 4.3194H128.592" stroke="#C52D48" stroke-width="0.5"/>
</svg>
