<svg width="201" height="258" viewBox="0 0 201 258" fill="none" xmlns="http://www.w3.org/2000/svg">
<g clip-path="url(#clip0_388_1374)">
<path d="M200.114 157.846L192.053 195.125L183.429 205.389L181.392 205.567L177.941 205.859L170.791 206.485L170.302 207.076L170.286 207.079L168.561 209.145L164.999 213.38L169.873 212.951L177.633 212.284L158.469 235.09L158.275 235.172L137.243 239.325L137.214 239.344L96.4521 248.121L128.781 247.787L105.07 257.93L83.2365 256.249L38.9062 238.451L5.44318 197.162L1.81439 165.86L0 109.607L3.62879 62.8842L42.2649 17.4608L79.2074 1.67776L115.143 0L147.049 8.05833L148.609 9.29758L142.641 9.98076L140.249 10.2604L139.677 10.3239L146.883 16.0563L149.648 18.2456L153.839 17.7626L158.577 17.2224L168.882 25.4111L167.836 26.8505L163.877 32.335L158.323 39.9961L168.202 38.4169L170.884 37.9911L182.145 35.9542L186.342 39.2907L196.085 78.2478L196.136 79.2741L196.133 79.2868L188.332 135.933V135.949L186.241 151.141L185.79 154.386L185.405 157.245L199.459 157.875L200.111 157.846H200.114Z" fill="#621C54"/>
</g>
<defs>
<clipPath id="clip0_388_1374">
<rect width="200.114" height="257.93" fill="white"/>
</clipPath>
</defs>
</svg>
