<svg width="471" height="531" viewBox="0 0 471 531" fill="none" xmlns="http://www.w3.org/2000/svg">
<path d="M376.546 491.691L375.196 487.535L376.149 469.298L377.32 430.664L376.54 329.981L376.93 309.82L401.498 293.817L406.271 282.026L399.533 283.43L376.93 297.467V204.258L368.089 186.571L363.316 177.867L355.455 191.343L348.624 198.924V208.855L349.222 262.078L349.613 402.749L326.538 390.676L313.904 387.588L316.15 393.765L316.431 396.011L349.613 415.663L349.222 438.469V463.445L349.846 480.003V486.444L349.69 488.574L348.287 492.886L345.534 496.73V497.769L346.469 498.34L352.287 498.548L357.534 499.95L358.988 501.041L359.871 502.392L362.001 502.859L364.391 502.392L365.222 500.678L366.365 499.95L369.378 499.535L373.014 498.34H379.871L380.442 497.197L379.715 496.055L376.546 491.691Z" fill="#20105C"/>
<path d="M401.463 293.748L405.151 285.266L406.257 282.132L403.307 282.685L399.803 283.238L390.768 282.685L382.286 276.231L380.442 262.217L386.343 253.551L395.931 250.048L402.753 251.338L407.363 253.551V249.31L409.207 243.225L415.476 237.325L421.561 235.112L430.412 236.218L434.284 240.09L436.128 234.743L441.844 228.843L453.461 226.999L461.943 231.24L467.475 241.197L466.368 252.629L459.546 260.927L454.936 261.664L456.596 264.615L457.702 271.99L454.014 279.735L447.376 282.685L449.773 286.004L452.723 293.748L450.511 305.734L440.738 313.294H431.15L426.171 309.975L421.746 312.741L413.079 312.187L403.307 304.074L401.463 293.748Z" fill="#20105C"/>
<path d="M326.296 390.489L317.327 388.229L314.054 387.646L315.08 390.468L316.195 393.834L317.118 402.839L312.129 412.258L298.601 416.355L289.091 411.942L281.829 405.296L281.994 398.355L283.428 393.447L279.243 394.136L272.94 393.306L265.537 388.64L262.365 382.996L262.018 374.083L265.209 369.633L259.633 368.683L252.882 364.002L249.174 352.84L251.98 343.781L262.028 334.458L273.488 333.692L284.469 338.513L285.946 342.942L291.395 338.017L298.493 335.727L306.734 338.106L310.724 344.177L313.609 341.272L320.771 337.102L332.956 337.337L339.197 348.558L340.756 358.019L338.29 363.471L341.738 367.388L342.601 376.029L336.185 386.991L326.296 390.489Z" fill="#20105C"/>
<path d="M376.844 204.108L367.183 184.744L363.227 178.048L359.782 184.168L355.507 191.281L340.931 206.646L311.555 214.395L284.783 196.631L278.118 173.023L278.844 150.004L290.292 139.714L301.189 134.777L293.587 128.401L290.504 113.7L287.499 93.4493L292.681 79.2141L307.972 65.0107L320.735 63.8908L313.922 52.5455L311.938 33.4268L326.098 9.82935L346.453 1L378.319 4.62303L397.15 23.7947L405.332 50.6347L399.724 60.0075L416.771 62.1713L431.656 71.2772L439.995 89.5321L435.304 105.868L444.858 106.561L457.001 115.162L469.545 136.025L464.757 165.331L456.517 180.274L443.082 184.209L441.387 196.301L427.365 211.006L398.127 216.327L376.844 204.108Z" fill="#20105C"/>
<path d="M376.546 491.691L375.196 487.535L376.149 469.298L377.32 430.664L376.54 329.981L376.93 309.82L401.498 293.817L406.271 282.026L399.533 283.43L376.93 297.467V204.258L368.089 186.571L363.316 177.867L355.455 191.343L348.624 198.924V208.855L349.222 262.078L349.613 402.749L326.538 390.676L313.904 387.588L316.15 393.765L316.431 396.011L349.613 415.663L349.222 438.469V463.445L349.846 480.003V486.444L349.69 488.574L348.287 492.886L345.534 496.73V497.769L346.469 498.34L352.287 498.548L357.534 499.95L358.988 501.041L359.871 502.392L362.001 502.859L364.391 502.392L365.222 500.678L366.365 499.95L369.378 499.535L373.014 498.34H379.871L380.442 497.197L379.715 496.055L376.546 491.691Z" stroke="white" stroke-width="1.3"/>
<path d="M401.463 293.748L405.151 285.266L406.257 282.132L403.307 282.685L399.803 283.238L390.768 282.685L382.286 276.231L380.442 262.217L386.343 253.551L395.931 250.048L402.753 251.338L407.363 253.551V249.31L409.207 243.225L415.476 237.325L421.561 235.112L430.412 236.218L434.284 240.09L436.128 234.743L441.844 228.843L453.461 226.999L461.943 231.24L467.475 241.197L466.368 252.629L459.546 260.927L454.936 261.664L456.596 264.615L457.702 271.99L454.014 279.735L447.376 282.685L449.773 286.004L452.723 293.748L450.511 305.734L440.738 313.294H431.15L426.171 309.975L421.746 312.741L413.079 312.187L403.307 304.074L401.463 293.748Z" stroke="white" stroke-width="1.3"/>
<path d="M326.296 390.489L317.327 388.229L314.054 387.646L315.08 390.468L316.195 393.834L317.118 402.839L312.129 412.258L298.601 416.355L289.091 411.942L281.829 405.296L281.994 398.355L283.428 393.447L279.243 394.136L272.94 393.306L265.537 388.64L262.365 382.996L262.018 374.083L265.209 369.633L259.633 368.683L252.882 364.002L249.174 352.84L251.98 343.781L262.028 334.458L273.488 333.692L284.469 338.513L285.946 342.942L291.395 338.017L298.493 335.727L306.734 338.106L310.724 344.177L313.609 341.272L320.771 337.102L332.956 337.337L339.197 348.558L340.756 358.019L338.29 363.471L341.738 367.388L342.601 376.029L336.185 386.991L326.296 390.489Z" stroke="white" stroke-width="1.3"/>
<path d="M376.844 204.108L367.183 184.744L363.227 178.048L359.782 184.168L355.507 191.281L340.931 206.646L311.555 214.395L284.783 196.631L278.118 173.023L278.844 150.004L290.292 139.714L301.189 134.777L293.587 128.401L290.504 113.7L287.499 93.4493L292.681 79.2141L307.972 65.0107L320.735 63.8908L313.922 52.5455L311.938 33.4268L326.098 9.82935L346.453 1L378.319 4.62303L397.15 23.7947L405.332 50.6347L399.724 60.0075L416.771 62.1713L431.656 71.2772L439.995 89.5321L435.304 105.868L444.858 106.561L457.001 115.162L469.545 136.025L464.757 165.331L456.517 180.274L443.082 184.209L441.387 196.301L427.365 211.006L398.127 216.327L376.844 204.108Z" stroke="white" stroke-width="1.3"/>
<path d="M117.662 488.186L116.425 484.379L117.299 467.676L118.371 432.29L117.656 340.071L118.014 321.606L140.517 306.949L144.888 296.149L138.716 297.434L118.014 310.292V224.919L109.916 208.719L105.545 200.748L98.3447 213.091L92.0874 220.034V229.13L92.6358 277.878L92.9933 406.721L71.8587 395.664L60.2871 392.835L62.3443 398.493L62.6015 400.55L92.9933 418.55L92.6358 439.438V462.314L93.2068 477.48V483.38L93.064 485.331L91.7794 489.28L89.2578 492.801V493.752L90.1142 494.276L95.443 494.466L100.248 495.751L101.581 496.75L102.389 497.987L104.34 498.415L106.529 497.987L107.29 496.417L108.337 495.751L111.096 495.37L114.427 494.276H120.707L121.231 493.229L120.564 492.182L117.662 488.186Z" fill="#20105C"/>
<path d="M140.484 306.885L143.862 299.117L144.875 296.246L142.173 296.752L138.964 297.259L130.688 296.752L122.919 290.841L121.231 278.006L126.635 270.068L135.417 266.859L141.666 268.041L145.888 270.068V266.184L147.577 260.61L153.319 255.206L158.893 253.179L166.999 254.192L170.546 257.739L172.235 252.841L177.47 247.437L188.11 245.748L195.879 249.633L200.946 258.752L199.932 269.224L193.684 276.823L189.461 277.499L190.981 280.201L191.995 286.957L188.617 294.05L182.537 296.752L184.732 299.792L187.435 306.885L185.408 317.863L176.457 324.788H167.675L163.115 321.748L159.061 324.281L151.124 323.774L142.173 316.343L140.484 306.885Z" fill="#20105C"/>
<path d="M71.6368 395.492L63.4223 393.422L60.4246 392.889L61.3638 395.473L62.3853 398.557L63.2306 406.804L58.661 415.431L46.2707 419.184L37.5601 415.141L30.9091 409.055L31.0599 402.697L32.3733 398.201L28.5405 398.833L22.7668 398.072L15.9866 393.799L13.0809 388.63L12.763 380.466L15.686 376.39L10.5789 375.52L4.39529 371.232L0.999359 361.008L3.56929 352.711L12.7729 344.173L23.2694 343.47L33.3269 347.886L34.6798 351.943L39.6705 347.432L46.1714 345.334L53.7195 347.514L57.374 353.074L60.0167 350.413L66.5764 346.594L77.7375 346.809L83.4534 357.087L84.8809 365.753L82.6226 370.746L85.7811 374.334L86.5714 382.248L80.6942 392.288L71.6368 395.492Z" fill="#20105C"/>
<path d="M117.935 224.782L109.086 207.046L105.462 200.913L102.308 206.519L98.3918 213.033L85.0413 227.107L58.1354 234.204L33.6146 217.933L27.5102 196.311L28.1743 175.227L38.6601 165.802L48.6414 161.28L41.6778 155.44L38.8544 141.976L36.1024 123.427L40.8487 110.389L54.8535 97.3798L66.544 96.3541L60.303 85.9627L58.4861 68.4514L71.4556 46.838L90.0996 38.751L119.286 42.0694L136.534 59.6292L144.028 84.2124L138.891 92.7973L154.505 94.7791L168.139 103.119L175.777 119.839L171.48 134.802L180.23 135.436L191.352 143.314L202.842 162.424L198.456 189.266L190.909 202.952L178.604 206.556L177.051 217.631L164.208 231.1L137.429 235.974L117.935 224.782Z" fill="#20105C"/>
<path d="M117.662 488.186L116.425 484.379L117.299 467.676L118.371 432.29L117.656 340.071L118.014 321.606L140.517 306.949L144.888 296.149L138.716 297.434L118.014 310.292V224.919L109.916 208.719L105.545 200.748L98.3447 213.091L92.0874 220.034V229.13L92.6358 277.878L92.9933 406.721L71.8587 395.664L60.2871 392.835L62.3443 398.493L62.6015 400.55L92.9933 418.55L92.6358 439.438V462.314L93.2068 477.48V483.38L93.064 485.331L91.7794 489.28L89.2578 492.801V493.752L90.1142 494.276L95.443 494.466L100.248 495.751L101.581 496.75L102.389 497.987L104.34 498.415L106.529 497.987L107.29 496.417L108.337 495.751L111.096 495.37L114.427 494.276H120.707L121.231 493.229L120.564 492.182L117.662 488.186Z" stroke="white" stroke-width="1.3"/>
<path d="M140.484 306.885L143.862 299.117L144.875 296.246L142.173 296.752L138.964 297.259L130.688 296.752L122.919 290.841L121.231 278.006L126.635 270.068L135.417 266.859L141.666 268.041L145.888 270.068V266.184L147.577 260.61L153.319 255.206L158.893 253.179L166.999 254.192L170.546 257.739L172.235 252.841L177.47 247.437L188.11 245.748L195.879 249.633L200.946 258.752L199.932 269.224L193.684 276.823L189.461 277.499L190.981 280.201L191.995 286.957L188.617 294.05L182.537 296.752L184.732 299.792L187.435 306.885L185.408 317.863L176.457 324.788H167.675L163.115 321.748L159.061 324.281L151.124 323.774L142.173 316.343L140.484 306.885Z" stroke="white" stroke-width="1.3"/>
<path d="M71.6368 395.492L63.4223 393.422L60.4246 392.889L61.3638 395.473L62.3853 398.557L63.2306 406.804L58.661 415.431L46.2707 419.184L37.5601 415.141L30.9091 409.055L31.0599 402.697L32.3733 398.201L28.5405 398.833L22.7668 398.072L15.9866 393.799L13.0809 388.63L12.763 380.466L15.686 376.39L10.5789 375.52L4.39529 371.232L0.999359 361.008L3.56929 352.711L12.7729 344.173L23.2694 343.47L33.3269 347.886L34.6798 351.943L39.6705 347.432L46.1714 345.334L53.7195 347.514L57.374 353.074L60.0167 350.413L66.5764 346.594L77.7375 346.809L83.4534 357.087L84.8809 365.753L82.6226 370.746L85.7811 374.334L86.5714 382.248L80.6942 392.288L71.6368 395.492Z" stroke="white" stroke-width="1.3"/>
<path d="M117.935 224.782L109.086 207.046L105.462 200.913L102.308 206.519L98.3918 213.033L85.0413 227.107L58.1354 234.204L33.6146 217.933L27.5102 196.311L28.1743 175.227L38.6601 165.802L48.6414 161.28L41.6778 155.44L38.8544 141.976L36.1024 123.427L40.8487 110.389L54.8535 97.3798L66.544 96.3541L60.303 85.9627L58.4861 68.4514L71.4556 46.838L90.0996 38.751L119.286 42.0694L136.534 59.6292L144.028 84.2124L138.891 92.7973L154.505 94.7791L168.139 103.119L175.777 119.839L171.48 134.802L180.23 135.436L191.352 143.314L202.842 162.424L198.456 189.266L190.909 202.952L178.604 206.556L177.051 217.631L164.208 231.1L137.429 235.974L117.935 224.782Z" stroke="white" stroke-width="1.3"/>
<path d="M249.803 407.815L240.07 405.362L236.518 404.732L237.629 407.794L238.839 411.445L239.839 421.221L234.428 431.442L219.751 435.887L209.434 431.096L201.557 423.884L201.734 416.352L203.289 411.025L198.75 411.775L191.91 410.873L183.876 405.81L180.435 399.685L180.057 390.013L183.518 385.184L177.468 384.151L170.142 379.072L166.117 366.958L169.163 357.129L180.065 347.011L192.498 346.18L204.413 351.411L206.014 356.219L211.928 350.876L219.628 348.39L228.571 350.971L232.901 357.557L236.033 354.404L243.803 349.88L257.026 350.135L263.796 362.311L265.488 372.577L262.813 378.491L266.554 382.743L267.488 392.12L260.524 404.016L249.795 407.811L249.803 407.815Z" fill="#1F155A"/>
<path d="M249.803 407.815L240.07 405.362L236.518 404.732L237.629 407.794L238.839 411.445L239.839 421.221L234.428 431.442L219.751 435.887L209.434 431.096L201.557 423.884L201.734 416.352L203.289 411.025L198.75 411.775L191.91 410.873L183.876 405.81L180.435 399.685L180.057 390.013L183.518 385.184L177.468 384.151L170.142 379.072L166.117 366.958L169.163 357.129L180.065 347.011L192.498 346.18L204.413 351.411L206.014 356.219L211.928 350.876L219.628 348.39L228.571 350.971L232.901 357.557L236.033 354.404L243.803 349.88L257.026 350.135L263.796 362.311L265.488 372.577L262.813 378.491L266.554 382.743L267.488 392.12L260.524 404.016L249.795 407.811L249.803 407.815Z" stroke="white" stroke-width="1.3"/>
<path d="M304.325 517.642L302.86 513.13L303.893 493.34L305.164 451.413L304.317 342.154L304.741 320.277L331.397 302.911L336.574 290.114L329.261 291.636L304.736 306.87V205.72L295.143 186.527L289.966 177.08L281.434 191.705L274.022 199.929V210.705L274.672 268.463L275.096 421.122L250.057 408.02L236.348 404.67L238.785 411.371L239.089 413.808L275.092 435.134L274.668 459.884V486.989L275.343 504.956V511.949L275.174 514.258L273.652 518.938L270.664 523.108V524.236L271.68 524.857L277.994 525.084L283.685 526.607L285.262 527.788L286.221 529.253L288.529 529.76L291.122 529.253L292.023 527.393L293.262 526.607L296.53 526.154L300.477 524.857H307.918L308.539 523.618L307.749 522.375L304.313 517.642H304.325Z" fill="#1F155A"/>
<path d="M331.364 302.833L335.365 293.629L336.566 290.229L333.365 290.83L329.562 291.431L319.758 290.83L310.556 283.828L308.556 268.619L314.96 259.214L325.364 255.41L332.768 256.81L337.768 259.21V254.608L339.768 248.005L346.571 241.601L353.173 239.201L362.774 240.403L366.976 244.606L368.976 238.802L375.179 232.397L387.785 230.397L396.987 234.998L402.987 245.803L401.786 258.209L394.382 267.216L389.381 268.018L391.184 271.221L392.386 279.226L388.385 287.632L381.183 290.834L383.784 294.436L386.986 302.841L384.587 315.848L373.981 324.051H363.577L358.177 320.45L353.374 323.45L343.97 322.849L333.365 314.045L331.364 302.841V302.833Z" fill="#1F155A"/>
<path d="M304.325 517.642L302.86 513.13L303.893 493.34L305.164 451.413L304.317 342.154L304.741 320.277L331.397 302.911L336.574 290.114L329.261 291.636L304.736 306.87V205.72L295.143 186.527L289.966 177.08L281.434 191.705L274.022 199.929V210.705L274.672 268.463L275.096 421.122L250.057 408.02L236.348 404.67L238.785 411.371L239.089 413.808L275.092 435.134L274.668 459.884V486.989L275.343 504.956V511.949L275.174 514.258L273.652 518.938L270.664 523.108V524.236L271.68 524.857L277.994 525.084L283.685 526.607L285.262 527.788L286.221 529.253L288.529 529.76L291.122 529.253L292.023 527.393L293.262 526.607L296.53 526.154L300.477 524.857H307.918L308.539 523.618L307.749 522.375L304.313 517.642H304.325Z" stroke="white" stroke-width="1.3"/>
<path d="M309 349.695L294.225 320.075L288.175 309.83L282.907 319.194L276.368 330.073L254.074 353.576L209.144 365.431L168.198 338.256L158 302.145L159.107 266.932L176.619 251.191L193.287 243.638L181.656 233.883L176.94 211.396L172.343 180.418L180.269 158.644L203.654 136.915L223.174 135.203L212.753 117.849L209.72 88.6037L231.376 52.5051L262.515 39L311.251 44.5403L340.052 73.8679L352.567 114.926L343.99 129.263L370.063 132.572L392.83 146.501L405.584 174.425L398.411 199.414L413.025 200.472L431.598 213.627L450.785 245.544L443.464 290.373L430.862 313.23L410.313 319.248L407.72 337.746L386.274 360.24L341.554 368.382L309 349.691V349.695Z" fill="#1F155A"/>
<path d="M309 349.695L294.225 320.075L288.175 309.83L282.907 319.194L276.368 330.073L254.074 353.576L209.144 365.431L168.198 338.256L158 302.145L159.107 266.932L176.619 251.191L193.287 243.638L181.656 233.883L176.94 211.396L172.343 180.418L180.269 158.644L203.654 136.915L223.174 135.203L212.753 117.849L209.72 88.6037L231.376 52.5051L262.515 39L311.251 44.5403L340.052 73.8679L352.567 114.926L343.99 129.263L370.063 132.572L392.83 146.501L405.584 174.425L398.411 199.414L413.025 200.472L431.598 213.627L450.785 245.544L443.464 290.373L430.862 313.23L410.313 319.248L407.72 337.746L386.274 360.24L341.554 368.382L309 349.691V349.695Z" stroke="white" stroke-width="1.3"/>
</svg>
