<svg width="465" height="522" viewBox="0 0 465 522" fill="none" xmlns="http://www.w3.org/2000/svg">
<g clip-path="url(#clip0_463_2774)">
<path d="M93.303 485.237L94.636 481.136L93.694 463.139L92.539 425.012L93.309 325.653L92.924 305.758L68.679 289.966L63.969 278.329L70.618 279.715L92.924 293.568V201.584L101.649 184.13L106.359 175.541L114.116 188.84L120.858 196.32V206.121L120.267 258.644L119.882 397.464L142.653 385.551L155.121 382.503L152.904 388.598L152.627 390.815L119.882 410.209L120.267 432.715V457.362L119.652 473.703V480.059L119.806 482.161L121.19 486.416L123.907 490.209V491.234L122.984 491.798L117.243 492.003L112.065 493.387L110.63 494.464L109.758 495.797L107.656 496.258L105.298 495.797L104.478 494.105L103.35 493.387L100.377 492.977L96.789 491.798H90.022L89.458 490.671L90.176 489.543L93.303 485.237Z" fill="#20105C"/>
<path d="M68.714 289.898L65.075 281.527L63.983 278.434L66.894 278.98L70.352 279.526L79.268 278.98L87.638 272.611L89.458 258.781L83.635 250.229L74.173 246.772L67.44 248.045L62.891 250.229V246.044L61.071 240.039L54.885 234.216L48.88 232.033L40.145 233.124L36.324 236.946L34.504 231.669L28.864 225.846L17.4 224.026L9.02899 228.211L3.57001 238.037L4.66199 249.319L11.395 257.508L15.944 258.236L14.306 261.147L13.214 268.426L16.854 276.068L23.405 278.98L21.039 282.255L18.128 289.898L20.311 301.725L29.955 309.186H39.418L44.331 305.911L48.698 308.64L57.25 308.094L66.894 300.088L68.714 289.898Z" fill="#20105C"/>
<path d="M142.892 385.365L151.743 383.135L154.973 382.561L153.961 385.345L152.86 388.667L151.949 397.554L156.873 406.848L170.223 410.892L179.608 406.536L186.774 399.978L186.611 393.128L185.196 388.285L189.326 388.965L195.546 388.146L202.852 383.542L205.982 377.972L206.325 369.176L203.176 364.784L208.678 363.847L215.341 359.227L219 348.212L216.231 339.272L206.314 330.072L195.005 329.315L184.169 334.074L182.711 338.444L177.334 333.584L170.33 331.324L162.197 333.672L158.259 339.663L155.412 336.796L148.345 332.681L136.319 332.913L130.161 343.987L128.623 353.323L131.056 358.703L127.653 362.569L126.801 371.096L133.133 381.914L142.892 385.365Z" fill="#20105C"/>
<path d="M93.009 201.436L102.543 182.327L106.447 175.719L109.846 181.759L114.065 188.778L128.45 203.941L157.439 211.588L183.859 194.058L190.436 170.76L189.72 148.044L178.422 137.889L167.668 133.017L175.171 126.725L178.213 112.218L181.178 92.2332L176.064 78.1853L160.975 64.1687L148.379 63.0636L155.104 51.8675L157.061 33.0003L143.088 9.71321L123 1L91.553 4.57537L72.97 23.4949L64.895 49.9818L70.43 59.2314L53.607 61.3667L38.917 70.3529L30.688 88.3676L35.318 104.489L25.89 105.172L13.907 113.66L1.52704 134.249L6.25302 163.17L14.384 177.916L27.642 181.799L29.315 193.732L43.152 208.243L72.006 213.495L93.009 201.436Z" fill="#20105C"/>
<path d="M93.303 485.237L94.636 481.136L93.694 463.139L92.539 425.012L93.309 325.653L92.924 305.758L68.679 289.966L63.969 278.329L70.618 279.715L92.924 293.568V201.584L101.649 184.13L106.359 175.541L114.116 188.84L120.858 196.32V206.121L120.267 258.644L119.882 397.464L142.653 385.551L155.121 382.503L152.904 388.598L152.627 390.815L119.882 410.209L120.267 432.715V457.362L119.652 473.703V480.059L119.806 482.161L121.19 486.416L123.907 490.209V491.234L122.984 491.798L117.243 492.003L112.065 493.387L110.63 494.464L109.758 495.797L107.656 496.258L105.298 495.797L104.478 494.105L103.35 493.387L100.377 492.977L96.789 491.798H90.022L89.458 490.671L90.176 489.543L93.303 485.237Z" stroke="white" stroke-width="1.3"/>
<path d="M68.714 289.898L65.075 281.527L63.983 278.434L66.894 278.98L70.352 279.526L79.268 278.98L87.638 272.611L89.458 258.781L83.635 250.229L74.173 246.772L67.44 248.045L62.891 250.229V246.044L61.071 240.039L54.885 234.216L48.88 232.033L40.145 233.124L36.324 236.946L34.504 231.669L28.864 225.846L17.4 224.026L9.02899 228.211L3.57001 238.037L4.66199 249.319L11.395 257.508L15.944 258.236L14.306 261.147L13.214 268.426L16.854 276.068L23.405 278.98L21.039 282.255L18.128 289.898L20.311 301.725L29.955 309.186H39.418L44.331 305.911L48.698 308.64L57.25 308.094L66.894 300.088L68.714 289.898Z" stroke="white" stroke-width="1.3"/>
<path d="M142.892 385.365L151.743 383.135L154.973 382.561L153.961 385.345L152.86 388.667L151.949 397.554L156.873 406.848L170.223 410.892L179.608 406.536L186.774 399.978L186.611 393.128L185.196 388.285L189.326 388.965L195.546 388.146L202.852 383.542L205.982 377.972L206.325 369.176L203.176 364.784L208.678 363.847L215.341 359.227L219 348.212L216.231 339.272L206.314 330.072L195.005 329.315L184.169 334.074L182.711 338.444L177.334 333.584L170.33 331.324L162.197 333.672L158.259 339.663L155.412 336.796L148.345 332.681L136.319 332.913L130.161 343.987L128.623 353.323L131.056 358.703L127.653 362.569L126.801 371.096L133.133 381.914L142.892 385.365Z" stroke="white" stroke-width="1.3"/>
<path d="M93.009 201.436L102.543 182.327L106.447 175.719L109.846 181.759L114.065 188.778L128.45 203.941L157.439 211.588L183.859 194.058L190.436 170.76L189.72 148.044L178.422 137.889L167.668 133.017L175.171 126.725L178.213 112.218L181.178 92.2332L176.064 78.1853L160.975 64.1687L148.379 63.0636L155.104 51.8675L157.061 33.0003L143.088 9.71321L123 1L91.553 4.57537L72.97 23.4949L64.895 49.9818L70.43 59.2314L53.607 61.3667L38.917 70.3529L30.688 88.3676L35.318 104.489L25.89 105.172L13.907 113.66L1.52704 134.249L6.25302 163.17L14.384 177.916L27.642 181.799L29.315 193.732L43.152 208.243L72.006 213.495L93.009 201.436Z" stroke="white" stroke-width="1.3"/>
<path d="M348.872 455.523L350.092 451.767L349.23 435.283L348.172 400.362L348.878 309.357L348.525 291.134L326.318 276.67L322.004 266.012L328.094 267.281L348.525 279.969V195.72L356.516 179.733L360.83 171.866L367.935 184.046L374.11 190.898V199.875L373.569 247.982L373.216 375.13L394.073 364.218L405.492 361.427L403.462 367.01L403.208 369.04L373.216 386.803L373.569 407.417V429.992L373.005 444.958V450.781L373.146 452.706L374.414 456.603L376.902 460.077V461.016L376.057 461.533L370.799 461.721L366.056 462.988L364.742 463.974L363.944 465.195L362.018 465.618L359.859 465.195L359.107 463.646L358.074 462.988L355.351 462.613L352.064 461.533H345.867L345.35 460.5L346.008 459.467L348.872 455.523Z" fill="#20105C"/>
<path d="M326.35 276.608L323.017 268.941L322.017 266.108L324.684 266.608L327.85 267.108L336.017 266.608L343.684 260.774L345.35 248.108L340.017 240.274L331.35 237.108L325.184 238.274L321.017 240.274V236.441L319.35 230.941L313.684 225.608L308.184 223.608L300.184 224.608L296.684 228.108L295.017 223.274L289.85 217.941L279.35 216.274L271.684 220.108L266.684 229.108L267.684 239.441L273.85 246.941L278.017 247.608L276.517 250.274L275.517 256.941L278.85 263.941L284.85 266.608L282.684 269.608L280.017 276.608L282.017 287.441L290.85 294.274H299.517L304.017 291.274L308.017 293.774L315.85 293.274L324.684 285.941L326.35 276.608Z" fill="#20105C"/>
<path d="M394.292 364.049L402.398 362.006L405.356 361.48L404.43 364.03L403.422 367.073L402.587 375.212L407.097 383.725L419.324 387.429L427.92 383.439L434.484 377.433L434.335 371.159L433.039 366.722L436.821 367.345L442.519 366.595L449.21 362.378L452.077 357.276L452.391 349.22L449.507 345.198L454.547 344.339L460.649 340.108L464 330.019L461.464 321.831L452.381 313.404L442.023 312.711L432.098 317.069L430.763 321.072L425.838 316.621L419.422 314.551L411.973 316.702L408.367 322.188L405.759 319.563L399.286 315.794L388.271 316.006L382.631 326.149L381.222 334.7L383.45 339.628L380.333 343.169L379.554 350.979L385.353 360.887L394.292 364.049Z" fill="#20105C"/>
<path d="M348.603 195.584L357.335 178.081L360.911 172.029L364.024 177.561L367.889 183.99L381.063 197.878L407.615 204.882L431.814 188.826L437.838 167.487L437.182 146.681L426.835 137.38L416.985 132.917L423.857 127.154L426.643 113.867L429.359 95.5625L424.675 82.6957L410.854 69.8576L399.317 68.8454L405.476 58.5907L407.269 41.3098L394.47 19.9806L376.072 12L347.269 15.2748L330.248 32.6036L322.853 56.8635L327.922 65.3354L312.514 67.2912L299.059 75.5218L291.522 92.0219L295.762 106.787L287.126 107.414L276.151 115.188L264.812 134.046L269.141 160.535L276.588 174.041L288.732 177.598L290.264 188.528L302.938 201.819L329.365 206.628L348.603 195.584Z" fill="#20105C"/>
<path d="M348.872 455.523L350.092 451.767L349.23 435.283L348.172 400.362L348.878 309.357L348.525 291.134L326.318 276.67L322.004 266.012L328.094 267.281L348.525 279.969V195.72L356.516 179.733L360.83 171.866L367.935 184.046L374.11 190.898V199.875L373.569 247.982L373.216 375.13L394.073 364.218L405.492 361.427L403.462 367.01L403.208 369.04L373.216 386.803L373.569 407.417V429.992L373.005 444.958V450.781L373.146 452.706L374.414 456.603L376.902 460.077V461.016L376.057 461.533L370.799 461.721L366.056 462.988L364.742 463.974L363.944 465.195L362.018 465.618L359.859 465.195L359.107 463.646L358.074 462.988L355.351 462.613L352.064 461.533H345.867L345.35 460.5L346.008 459.467L348.872 455.523Z" stroke="white" stroke-width="1.3"/>
<path d="M326.35 276.608L323.017 268.941L322.017 266.108L324.684 266.608L327.85 267.108L336.017 266.608L343.684 260.774L345.35 248.108L340.017 240.274L331.35 237.108L325.184 238.274L321.017 240.274V236.441L319.35 230.941L313.684 225.608L308.184 223.608L300.184 224.608L296.684 228.108L295.017 223.274L289.85 217.941L279.35 216.274L271.684 220.108L266.684 229.108L267.684 239.441L273.85 246.941L278.017 247.608L276.517 250.274L275.517 256.941L278.85 263.941L284.85 266.608L282.684 269.608L280.017 276.608L282.017 287.441L290.85 294.274H299.517L304.017 291.274L308.017 293.774L315.85 293.274L324.684 285.941L326.35 276.608Z" stroke="white" stroke-width="1.3"/>
<path d="M394.292 364.049L402.398 362.006L405.356 361.48L404.43 364.03L403.422 367.073L402.587 375.212L407.097 383.725L419.324 387.429L427.92 383.439L434.484 377.433L434.335 371.159L433.039 366.722L436.821 367.345L442.519 366.595L449.21 362.378L452.077 357.276L452.391 349.22L449.507 345.198L454.547 344.339L460.649 340.108L464 330.019L461.464 321.831L452.381 313.404L442.023 312.711L432.098 317.069L430.763 321.072L425.838 316.621L419.422 314.551L411.973 316.702L408.367 322.188L405.759 319.563L399.286 315.794L388.271 316.006L382.631 326.149L381.222 334.7L383.45 339.628L380.333 343.169L379.554 350.979L385.353 360.887L394.292 364.049Z" stroke="white" stroke-width="1.3"/>
<path d="M348.603 195.584L357.335 178.081L360.911 172.029L364.024 177.561L367.889 183.99L381.063 197.878L407.615 204.882L431.814 188.826L437.838 167.487L437.182 146.681L426.835 137.38L416.985 132.917L423.857 127.154L426.643 113.867L429.359 95.5625L424.675 82.6957L410.854 69.8576L399.317 68.8454L405.476 58.5907L407.269 41.3098L394.47 19.9806L376.072 12L347.269 15.2748L330.248 32.6036L322.853 56.8635L327.922 65.3354L312.514 67.2912L299.059 75.5218L291.522 92.0219L295.762 106.787L287.126 107.414L276.151 115.188L264.812 134.046L269.141 160.535L276.588 174.041L288.732 177.598L290.264 188.528L302.938 201.819L329.365 206.628L348.603 195.584Z" stroke="white" stroke-width="1.3"/>
<path d="M240.405 400.964L250.01 398.543L253.515 397.921L252.419 400.943L251.225 404.546L250.238 414.194L255.578 424.279L270.061 428.666L280.243 423.938L288.017 416.822L287.842 409.388L286.307 404.132L290.787 404.871L297.537 403.982L305.465 398.985L308.86 392.941L309.234 383.395L305.818 378.631L311.789 377.611L319.018 372.599L322.99 360.644L319.984 350.944L309.226 340.96L296.956 340.139L285.198 345.302L283.618 350.046L277.782 344.774L270.183 342.32L261.358 344.867L257.085 351.367L253.994 348.255L246.326 343.791L233.277 344.043L226.596 356.058L224.927 366.189L227.567 372.026L223.875 376.222L222.953 385.475L229.825 397.214L240.413 400.96L240.405 400.964Z" fill="#1F155A"/>
<path d="M240.405 400.964L250.01 398.543L253.515 397.921L252.419 400.943L251.225 404.546L250.238 414.194L255.578 424.279L270.061 428.666L280.243 423.938L288.017 416.822L287.842 409.388L286.307 404.132L290.787 404.871L297.537 403.982L305.465 398.985L308.86 392.941L309.234 383.395L305.818 378.631L311.789 377.611L319.018 372.599L322.99 360.644L319.984 350.944L309.226 340.96L296.956 340.139L285.198 345.302L283.618 350.046L277.782 344.774L270.183 342.32L261.358 344.867L257.085 351.367L253.994 348.255L246.326 343.791L233.277 344.043L226.596 356.058L224.927 366.189L227.567 372.026L223.875 376.222L222.953 385.475L229.825 397.214L240.413 400.96L240.405 400.964Z" stroke="white" stroke-width="1.3"/>
<path d="M186.6 509.346L188.046 504.894L187.026 485.364L185.771 443.988L186.608 336.166L186.19 314.577L159.884 297.439L154.775 284.811L161.992 286.314L186.194 301.347V201.527L195.661 182.586L200.77 173.264L209.19 187.696L216.504 195.812V206.446L215.863 263.444L215.444 414.096L240.154 401.167L253.683 397.86L251.278 404.473L250.978 406.878L215.448 427.923L215.867 452.348V479.096L215.201 496.827V503.728L215.367 506.007L216.87 510.625L219.818 514.74V515.853L218.815 516.467L212.585 516.69L206.968 518.193L205.413 519.359L204.466 520.805L202.188 521.304L199.629 520.805L198.74 518.969L197.517 518.193L194.292 517.746L190.397 516.467H183.054L182.441 515.244L183.221 514.017L186.612 509.346H186.6Z" fill="#1F155A"/>
<path d="M159.917 297.362L155.969 288.28L154.783 284.924L157.943 285.517L161.696 286.111L171.37 285.517L180.451 278.608L182.425 263.599L176.105 254.317L165.838 250.564L158.532 251.945L153.597 254.313V249.772L151.623 243.256L144.91 236.936L138.395 234.568L128.92 235.754L124.773 239.901L122.799 234.174L116.679 227.853L104.239 225.879L95.1571 230.42L89.2361 241.083L90.4221 253.326L97.7281 262.214L102.663 263.006L100.884 266.166L99.6981 274.067L103.646 282.361L110.753 285.522L108.186 289.076L105.026 297.37L107.394 310.206L117.861 318.302H128.128L133.456 314.748L138.196 317.709L147.476 317.116L157.943 308.427L159.917 297.37V297.362Z" fill="#1F155A"/>
<path d="M186.6 509.346L188.046 504.894L187.026 485.364L185.771 443.988L186.608 336.166L186.19 314.577L159.884 297.439L154.775 284.811L161.992 286.314L186.194 301.347V201.527L195.661 182.586L200.77 173.264L209.19 187.696L216.504 195.812V206.446L215.863 263.444L215.444 414.096L240.154 401.167L253.683 397.86L251.278 404.473L250.978 406.878L215.448 427.923L215.867 452.348V479.096L215.201 496.827V503.728L215.367 506.007L216.87 510.625L219.818 514.74V515.853L218.815 516.467L212.585 516.69L206.968 518.193L205.413 519.359L204.466 520.805L202.188 521.304L199.629 520.805L198.74 518.969L197.517 518.193L194.292 517.746L190.397 516.467H183.054L182.441 515.244L183.221 514.017L186.612 509.346H186.6Z" stroke="white" stroke-width="1.3"/>
<path d="M181.986 343.608L196.567 314.378L202.537 304.268L207.736 313.509L214.189 324.245L236.19 347.439L280.529 359.137L320.936 332.32L331 296.684L329.907 261.933L312.626 246.4L296.177 238.947L307.655 229.32L312.309 207.129L316.846 176.558L309.024 155.07L285.947 133.627L266.683 131.937L276.967 114.812L279.96 85.9512L258.589 50.3274L227.86 37L179.765 42.4675L151.343 71.4092L138.992 111.928L147.456 126.076L121.727 129.342L99.259 143.087L86.673 170.644L93.752 195.304L79.33 196.348L61 209.33L42.066 240.827L49.291 285.066L61.727 307.623L82.006 313.561L84.565 331.816L105.729 354.015L149.86 362.05L181.986 343.604V343.608Z" fill="#1F155A"/>
<path d="M181.986 343.608L196.567 314.378L202.537 304.268L207.736 313.509L214.189 324.244L236.19 347.439L280.529 359.137L320.936 332.32L331 296.684L329.907 261.933L312.626 246.4L296.177 238.947L307.655 229.32L312.309 207.129L316.846 176.558L309.024 155.07L285.947 133.627L266.683 131.937L276.967 114.812L279.96 85.9512L258.589 50.3274L227.86 37L179.765 42.4675L151.343 71.4092L138.992 111.928L147.456 126.076L121.727 129.342L99.259 143.087L86.673 170.644L93.752 195.304L79.33 196.348L61 209.33L42.066 240.827L49.291 285.067L61.727 307.623L82.006 313.561L84.565 331.816L105.729 354.015L149.86 362.05L181.986 343.604V343.608Z" stroke="white" stroke-width="1.3"/>
</g>
<defs>
<clipPath id="clip0_463_2774">
<rect width="465" height="522" fill="white" transform="matrix(-1 0 0 1 465 0)"/>
</clipPath>
</defs>
</svg>
