<svg width="664" height="82" viewBox="0 0 664 82" fill="none" xmlns="http://www.w3.org/2000/svg">
<path d="M638.447 72.8255L629.2 69.82L585.229 76.1135L543.351 76.1135L502.043 72.8111L428.411 72.8111L357.138 75.6663L253.826 73.6795L163.198 71.656L71.9101 73.6795L40.6548 76.1284L0.40332 73.4449L0.403317 12.4374L22.156 7.68602L77.3284 7.68602L127.489 12.0221L180.193 7.68601L232.358 7.68601L293.792 11.2788L354.454 9.02772L436.908 9.02771L520.012 12.022L556.159 9.92219L594.014 12.7156L612.438 13.4092L606.658 4.85508L606.658 1.96519L610.935 4.96067e-05L619.605 3.00554L626.772 13.4092L635.767 12.7156L650.701 3.66084L653.244 5.89544L653.244 23.3393L662.26 37.651L663.3 40.4586L662.26 43.4651L653.244 60.9074L653.244 80.2237L650.701 81.4952L638.447 72.8255Z" fill="#C52D48" fill-opacity="0.4"/>
</svg>
