<svg width="9" height="31" viewBox="0 0 9 31" fill="none" xmlns="http://www.w3.org/2000/svg">
<path d="M2.43667 2.80749L2.43666 2.80751C1.85747 3.38669 1.53198 4.17262 1.53198 4.99155V26.2574C1.53198 27.3607 2.12059 28.38 3.07624 28.9322C4.03162 29.4837 5.20928 29.4838 6.16484 28.9323L2.43667 2.80749ZM2.43667 2.80749C3.01584 2.2283 3.80175 1.90283 4.6207 1.90283C5.4396 1.90283 6.22544 2.2283 6.80464 2.80751L6.80465 2.80752M2.43667 2.80749L6.80465 2.80752M6.80465 2.80752C7.38385 3.38669 7.70932 4.17261 7.70932 4.99155V26.2574C7.70932 27.3607 7.12069 28.3801 6.16508 28.9322L6.80465 2.80752Z" stroke="white" stroke-width="2"/>
</svg>
