<svg width="9" height="31" viewBox="0 0 9 31" fill="none" xmlns="http://www.w3.org/2000/svg">
<path d="M2.08193 2.80749L2.08192 2.80751C1.50274 3.38669 1.17725 4.17262 1.17725 4.99155V26.2574C1.17725 27.3607 1.76585 28.38 2.72151 28.9322C3.67689 29.4837 4.85454 29.4838 5.8101 28.9323L2.08193 2.80749ZM2.08193 2.80749C2.6611 2.2283 3.44702 1.90283 4.26596 1.90283C5.08487 1.90283 5.8707 2.2283 6.4499 2.80751L6.44992 2.80752M2.08193 2.80749L6.44992 2.80752M6.44992 2.80752C7.02911 3.38669 7.35458 4.17261 7.35458 4.99155V26.2574C7.35458 27.3607 6.76595 28.3801 5.81035 28.9322L6.44992 2.80752Z" stroke="white" stroke-width="2"/>
</svg>
