<svg width="9" height="21" viewBox="0 0 9 21" fill="none" xmlns="http://www.w3.org/2000/svg">
<path d="M1.90469 2.80798L1.90467 2.80799C1.32549 3.38718 1 4.17311 1 4.99204V16.257C1 17.3603 1.58861 18.3797 2.54426 18.9318C3.49964 19.4834 4.67729 19.4834 5.63286 18.932L1.90469 2.80798ZM1.90469 2.80798C2.48385 2.22879 3.26977 1.90332 4.08872 1.90332C4.90762 1.90332 5.69345 2.22879 6.27266 2.80799L6.27267 2.80801M1.90469 2.80798L6.27267 2.80801M6.27267 2.80801C6.85186 3.38718 7.17733 4.17309 7.17733 4.99204V16.257C7.17733 17.3603 6.5887 18.3797 5.6331 18.9318L6.27267 2.80801Z" stroke="white" stroke-width="2"/>
</svg>
