<svg width="9" height="21" viewBox="0 0 9 21" fill="none" xmlns="http://www.w3.org/2000/svg">
<path d="M2.61392 2.80798L2.6139 2.80799C2.03472 3.38718 1.70923 4.17311 1.70923 4.99204V16.257C1.70923 17.3603 2.29783 18.3797 3.25349 18.9318C4.20887 19.4834 5.38652 19.4834 6.34209 18.932L2.61392 2.80798ZM2.61392 2.80798C3.19308 2.22879 3.979 1.90332 4.79795 1.90332C5.61685 1.90332 6.40268 2.22879 6.98189 2.80799L6.9819 2.80801M2.61392 2.80798L6.9819 2.80801M6.9819 2.80801C7.56109 3.38718 7.88656 4.17309 7.88656 4.99204V16.257C7.88656 17.3603 7.29793 18.3797 6.34233 18.9318L6.9819 2.80801Z" stroke="white" stroke-width="2"/>
</svg>
