<svg width="158" height="322" viewBox="0 0 158 322" fill="none" xmlns="http://www.w3.org/2000/svg">
<path d="M58.7788 75.7411L70.0184 87.7596L96.9073 96.1115L121.352 89.7967L126.802 82.0559M58.7788 75.7411L49.4443 65.7596L47.8147 35.4078L56.1665 10.7597L77.9628 2.2041L103.222 3.42632L126.444 16.6671L137.037 41.9263L135.407 69.8337L126.802 82.0559M58.7788 75.7411L41.7036 97.5374L28.0554 149.889L25.8147 180.445L30.9073 205.908L47.611 215.686M47.611 215.686L45.9814 173.519L47.611 142.556L53.5184 112.611M47.611 215.686L53.3147 265.797L60.0369 300.223L80.611 319.371L96.9073 300.223M96.9073 300.223L84.0739 244.611V222.815M96.9073 300.223L99.9628 309.389L123.185 315.5L134.185 291.463V260.297L130.926 223.63M130.926 223.63L122.167 218.334L109.944 130.334M130.926 223.63L140.5 229.537L153.333 213.037L156.185 185.334L154.555 153.76L140.5 104.056L126.802 82.0559" stroke="white" stroke-width="3"/>
<path d="M49.4443 65.7596L47.8147 35.4078M49.4443 65.7596L58.7789 75.7411M49.4443 65.7596L135.407 69.8337M49.4443 65.7596L103.222 3.42632M49.4443 65.7596L137.037 41.9263M47.8147 35.4078L56.1665 10.7597M47.8147 35.4078L103.222 3.42632M47.8147 35.4078L137.037 41.9263M47.8147 35.4078L135.407 69.8337M47.8147 35.4078L77.9628 2.2041M47.8147 35.4078L70.0184 87.7596M56.1665 10.7597L77.9628 2.2041M56.1665 10.7597L121.352 89.7967M56.1665 10.7597L70.0184 87.7596M56.1665 10.7597L103.222 3.42632M77.9628 2.2041L103.222 3.42632M77.9628 2.2041L96.9073 96.1115M77.9628 2.2041L137.037 41.9263M103.222 3.42632L126.444 16.6671M103.222 3.42632L70.0184 87.7596M103.222 3.42632L135.407 69.8337M103.222 3.42632L121.352 89.7967M103.222 3.42632L137.037 41.9263M126.444 16.6671L137.037 41.9263M126.444 16.6671L96.9073 96.1115M126.444 16.6671L135.407 69.8337M137.037 41.9263L135.407 69.8337M137.037 41.9263L70.0184 87.7596M137.037 41.9263L121.352 89.7967M135.407 69.8337L126.802 82.0559M135.407 69.8337L96.9073 96.1115M121.352 89.7967L96.9073 96.1115M121.352 89.7967L126.802 82.0559M121.352 89.7967L70.0184 87.7596M121.352 89.7967L140.5 104.056M121.352 89.7967L140.5 229.537M96.9073 96.1115L70.0184 87.7596M96.9073 96.1115L140.5 104.056M96.9073 96.1115L53.5184 112.611M96.9073 96.1115L41.7036 97.5374M96.9073 96.1115L109.944 130.334M96.9073 96.1115L84.0739 222.815M96.9073 96.1115L45.9814 173.519M70.0184 87.7596L58.7789 75.7411M70.0184 87.7596L53.5184 112.611M70.0184 87.7596L109.944 130.334M58.7789 75.7411L41.7036 97.5374M58.7789 75.7411L53.5184 112.611M58.7789 75.7411L28.0554 149.889M41.7036 97.5374L28.0554 149.889M41.7036 97.5374L47.611 142.556M28.0554 149.889L25.8147 180.445M28.0554 149.889L53.5184 112.611M28.0554 149.889L47.611 215.686M28.0554 149.889L47.611 142.556M25.8147 180.445L30.9073 205.908M25.8147 180.445L45.9814 173.519M25.8147 180.445L47.611 215.686M25.8147 180.445L53.5184 112.611M30.9073 205.908L47.611 215.686M30.9073 205.908L47.611 142.556M47.611 215.686L45.9814 173.519M47.611 215.686L53.3147 265.797M47.611 215.686L109.944 130.334M47.611 215.686L84.0739 244.611M47.611 215.686L96.9073 300.223M45.9814 173.519L47.611 142.556M45.9814 173.519L122.167 218.334M45.9814 173.519L84.0739 222.815M45.9814 173.519L80.611 319.371M47.611 142.556L53.5184 112.611M47.611 142.556L109.944 130.334M53.5184 112.611L109.944 130.334M53.5184 112.611L84.0739 222.815M53.5184 112.611L122.167 218.334M53.3147 265.797L60.0369 300.223M53.3147 265.797L96.9073 300.223M60.0369 300.223L80.611 319.371M60.0369 300.223L84.0739 222.815M60.0369 300.223H96.9073M80.611 319.371L96.9073 300.223M80.611 319.371L84.0739 244.611M96.9073 300.223L99.9628 309.389M96.9073 300.223L90.4906 272.417M84.0739 244.611V222.815M84.0739 244.611L90.4906 272.417M84.0739 244.611L130.926 223.63M84.0739 222.815L109.944 130.334M84.0739 222.815L134.185 291.463M99.9628 309.389L123.185 315.5M99.9628 309.389L134.185 260.297M99.9628 309.389L109.944 130.334M123.185 315.5L134.185 291.463M123.185 315.5L90.4906 272.417M123.185 315.5L122.167 218.334M134.185 291.463V260.297M134.185 291.463L90.4906 272.417M134.185 260.297L130.926 223.63M134.185 260.297L122.167 218.334M130.926 223.63L122.167 218.334M130.926 223.63L140.5 229.537M130.926 223.63L90.4906 272.417M109.944 130.334L122.167 218.334M109.944 130.334L140.5 104.056M109.944 130.334L154.555 153.76M109.944 130.334L140.5 229.537M122.167 218.334L154.555 153.76M122.167 218.334L140.5 104.056M122.167 218.334L156.185 185.334M140.5 229.537L153.333 213.037M153.333 213.037L156.185 185.334M153.333 213.037L140.5 104.056M156.185 185.334L154.555 153.76M154.555 153.76L140.5 104.056M140.5 104.056L126.802 82.0559" stroke="white"/>
<path d="M121.931 48.1275L85.1145 58.1226M121.931 48.1275L115.348 64.0987M121.931 48.1275L103.523 68.1209L112.911 34.3517M121.931 48.1275L102.426 27.2827M121.931 48.1275L92.9175 23.2572L112.911 34.3517M121.931 48.1275L79.9962 22.1611M121.931 48.1275L63.7804 29.7194M121.931 48.1275L59.2722 38.8631M121.931 48.1275L60.2475 52.0289M121.931 48.1275L119.004 61.4138M85.1145 58.1226L112.911 34.3517M85.1145 58.1226L60.2475 52.0289M112.911 34.3517L98.525 60.5627M112.911 34.3517L111.815 73.9729M112.911 34.3517L79.9962 22.1611M112.911 34.3517L63.7804 29.7194M112.911 34.3517L59.2722 38.8631M112.911 34.3517L60.2475 52.0289M112.911 34.3517L119.004 61.4138M112.911 34.3517L122.785 54.5898M98.525 60.5627L63.7804 29.7194M98.525 60.5627L59.2722 38.8631M119.004 61.4138L102.426 27.2825M102.426 27.2825L111.815 73.9729M102.426 27.2825L85.1139 58.1224L79.9958 22.1611M102.426 27.2825L79.9958 22.1611M102.426 27.2825L59.2717 38.8631L79.9958 22.1611M102.426 27.2825L98.5244 60.5625M111.815 73.9729L103.522 68.1208M111.815 73.9729L103.522 72.753L115.347 64.0987L98.5244 60.5625M79.9958 22.1611L98.5244 60.5625M79.9962 22.1611L74.8747 63.244L59.2722 38.8631M79.9962 22.1611L60.2475 52.0289M60.2475 52.0289L63.7804 29.7194" stroke="#C52D48" stroke-linecap="round" stroke-linejoin="round"/>
<path d="M119.004 61.4139L115.347 64.0987L111.815 73.973L107.058 77.7505L103.522 72.753V68.1208L98.5247 60.5625L85.1142 58.1224L74.8745 63.244L60.2473 52.0289L59.2719 38.8631L63.7801 29.7194L79.996 22.1611L92.9171 23.2572L102.426 27.2827L112.911 34.3516L121.93 48.1274L122.785 54.5897L119.004 61.4139Z" fill="#C52D48" fill-opacity="0.4" stroke="#C52D48" stroke-width="2" stroke-linecap="round" stroke-linejoin="round"/>
<path d="M55.3617 249.739L59.9255 245L60.4521 246.053L59.75 247.633V249.739L60.4521 254.303L62.5585 258.516L64.8404 262.202L67.2979 269.574L68 276.069V283.09L67.2979 287.479L68 290.112V299.064L66.4202 306.963L63.0851 312.053L63.6117 314.16L62.5585 315.037H58.1702L56.9415 314.511L56.2394 315.037L49.9202 315.388L49.2181 314.16L46.9362 314.511L41.3191 313.809L32.5426 314.16L30.6117 313.106L29.9096 311.351L24.6436 311H17.4468L11.1277 310.649L10.6011 311.351L11.8298 312.755L11.1277 314.16H7.09043L3.05319 313.457L2 311L3.57979 308.367L13.5851 305.207L27.9787 304.505L27.6277 299.415L28.8564 295.027L31.1383 290.638L34.2979 280.282L37.8085 273.085L42.0213 268.521L40.4415 265.888L39.7394 260.973L40.4415 258.516V256.761L37.8085 251.846L37.2819 249.739L37.8085 248.862H38.8617L43.9521 251.144L53.7819 250.441L55.3617 249.739Z" fill="#C52D48" fill-opacity="0.4" stroke="#C52D48" stroke-width="2"/>
<path d="M43.9521 251.144L53.7819 250.441L55.3617 249.739L59.9255 245L60.4521 246.053M43.9521 251.144L38.8617 248.862H37.8085M43.9521 251.144L40.4415 256.761M37.8085 248.862L37.2819 249.739L37.8085 251.846L40.4415 256.761M37.8085 248.862L67.2979 269.574M37.8085 248.862L68 283.09M40.4415 256.761V258.516L39.7394 260.973M40.4415 256.761L60.4521 254.303M40.4415 256.761L59.75 249.739M40.4415 256.761L68 276.069M39.7394 260.973L40.4415 265.888L42.0213 268.521M39.7394 260.973L68 283.09M39.7394 260.973L64.8404 262.202M42.0213 268.521L37.8085 273.085M42.0213 268.521L68 283.09M37.8085 273.085L34.2979 280.282M37.8085 273.085L68 299.064M37.8085 273.085L67.2979 269.574M37.8085 273.085L66.4202 306.963M37.8085 273.085L67.2979 287.479M34.2979 280.282L31.1383 290.638M34.2979 280.282L68 299.064M31.1383 290.638L28.8564 295.027L27.6277 299.415M31.1383 290.638L68 299.064M31.1383 290.638L63.6117 314.16M31.1383 290.638L56.2394 315.037M31.1383 290.638L68 283.09M31.1383 290.638L64.8404 262.202M27.6277 299.415L27.9787 304.505M27.6277 299.415L66.4202 306.963M27.6277 299.415L67.2979 287.479M27.9787 304.505L13.5851 305.207M27.9787 304.505L60.4521 246.053M27.9787 304.505L41.3191 313.809M27.9787 304.505L32.5426 314.16M27.9787 304.505L21.0452 311M13.5851 305.207L3.57979 308.367M13.5851 305.207L29.9096 311.351M13.5851 305.207L24.6436 311M13.5851 305.207L11.1277 310.649M3.57979 308.367L2 311M3.57979 308.367L11.1277 310.649M3.57979 308.367L11.1277 314.16M3.57979 308.367L7.09043 314.16M3.57979 308.367L66.4202 306.963M2 311L3.05319 313.457L7.09043 314.16M2 311L11.1277 310.649M7.09043 314.16H11.1277M11.1277 314.16L11.8298 312.755L10.6011 311.351L11.1277 310.649M11.1277 310.649L17.4468 311H21.0452M24.6436 311L29.9096 311.351M24.6436 311H21.0452M29.9096 311.351L30.6117 313.106M29.9096 311.351L68 299.064M30.6117 313.106L32.5426 314.16M30.6117 313.106L66.4202 306.963M32.5426 314.16L41.3191 313.809M41.3191 313.809L46.9362 314.511M41.3191 313.809L67.2979 287.479M46.9362 314.511L49.2181 314.16L49.9202 315.388M46.9362 314.511L60.4521 254.303M46.9362 314.511L67.2979 287.479M49.9202 315.388L56.2394 315.037M49.9202 315.388L63.0851 312.053M56.2394 315.037L56.9415 314.511L58.1702 315.037H62.5585L63.6117 314.16M63.6117 314.16L63.0851 312.053M63.0851 312.053L66.4202 306.963M66.4202 306.963L68 299.064M68 299.064V290.112L67.2979 287.479M67.2979 287.479L68 283.09M68 283.09V276.069M68 276.069L67.2979 269.574M67.2979 269.574L64.8404 262.202M64.8404 262.202L62.5585 258.516L60.4521 254.303M60.4521 254.303L59.75 249.739M59.75 249.739V247.633L60.4521 246.053" stroke="#C52D48"/>
</svg>
