<svg width="97" height="282" viewBox="0 0 97 282" fill="none" xmlns="http://www.w3.org/2000/svg">
<path fill-rule="evenodd" clip-rule="evenodd" d="M31.4338 0.722656L26.6108 5.54567V26.5118H30.5183V34.4608L13.5975 51.3816L0.0403144 79.2935V141.561L8.61898 180.555L0 263.61L9.25392 281.277H82.0337L97 263.816L89.1444 180.547L96.9446 141.545V79.3127L84.1748 51.3786L66.4666 34.4403V26.5118H71.1556V5.46102L65.4695 0.722656H31.4338ZM36.6323 26.5118L48.6168 32.965L60.4169 26.5118H36.6323ZM63.3407 26.6943L50.2582 33.8488L75.5812 47.4844L63.3407 35.776V26.6943ZM79.8274 51.5459L48.6226 34.7433L17.8009 51.5989L16.1796 53.2202L4.10003 78.09H92.9486L81.581 53.2233L79.8274 51.5459ZM33.6442 26.678V35.7556L21.7323 47.6675L46.9812 33.8595L33.6442 26.678ZM50.6609 81.216H93.8187V138.041L50.6609 81.216ZM3.77168 81.216H48.6982L93.2132 139.828H48.2867L3.77168 81.216ZM46.3241 139.828H3.16626V83.003L46.3241 139.828ZM73.4039 142.954H93.4751L86.7847 176.406L73.4039 142.954ZM25.29 142.954H71.7206L86.2236 179.211L85.9892 180.383L86.4687 185.466L81.3223 267.166L48.3657 278.151H44.1662L10.9811 265.925V188.077L11.7803 180.376L11.5197 179.191L25.29 142.954ZM10.9067 176.404L3.54749 142.954H23.6179L10.9067 176.404ZM3.24906 263.076L3.20657 262.995L9.41815 203.138V265.349L3.24906 263.076ZM9.41815 274.854L4.3302 265.14L9.41815 267.015V274.854ZM39.6451 278.151H11.1453L10.9811 277.838V267.591L39.6451 278.151ZM80.633 278.108L80.596 278.151H53.3082L81.2163 268.848L80.633 278.108ZM91.5112 265.417L82.3233 276.136L82.816 268.315L91.5112 265.417ZM87.4077 195.42L93.7633 262.789L93.4881 263.11L82.922 266.632L87.4077 195.42ZM29.7368 6.84048L32.7287 3.84861H33.157L47.1656 12.3122L29.7368 23.0661V6.84048ZM65.4944 23.3858H32.1952L48.6695 13.2208L65.4944 23.3858ZM63.8588 3.84861H64.3378L68.0296 6.92513V23.0915L50.1648 12.2981L63.8588 3.84861ZM36.1795 3.84861H60.8823L48.6609 11.3895L36.1795 3.84861Z" fill="#C52D48"/>
</svg>
