<svg width="286" height="152" viewBox="0 0 286 152" fill="none" xmlns="http://www.w3.org/2000/svg">
<path fill-rule="evenodd" clip-rule="evenodd" d="M76.4826 0.367188L67.4848 4.86605L26.406 64.8412H15.1121L0 77.2864V112.681L11.7525 123.529H29.4445L35.789 140.183L48.1196 151.633H64.2343L78.2317 140.26L85.4022 123.529H212.781L216.741 140.163L230.858 151.633H246.911L260.936 140.237L267.301 123.529H277.874L286 109.083V72.755L260.622 64.0039L239.263 64.8254L224.142 56.8673L167.81 4.67683L153.157 0.367188H76.4826ZM32.7346 61.4525L72.7268 32.0242L68.3877 9.39889L32.7346 61.4525ZM69.7028 7.47887L74.202 30.9387L111.255 3.67355H77.2631L69.729 7.44058L69.7028 7.47887ZM114.044 3.67355L74.5469 32.7374L80.7038 64.8412H189.612L220.48 57.9815L166.132 7.6298L152.681 3.67355H114.044ZM221.954 59.3474L197.232 64.8412H232.194L222.216 59.5896L221.954 59.3474ZM79.0205 64.8412L73.0718 33.8229L30.9187 64.8412H79.0205ZM261.907 67.9445L269.498 93.7543L282.694 105.99V75.1123L261.907 67.9445ZM282.684 108.235L270.41 96.8543L276.822 118.656L282.684 108.235ZM275.56 120.223L268.04 94.6572L239.43 68.1278L238.916 68.1475H27.2945L8.326 101.801L12.7857 119.983L13.0452 120.223H31.7231L32.2554 121.62L57.2128 130.979L82.6246 121.617L83.222 120.223H215.392L215.724 121.616L239.441 130.672L264.498 121.599L265.023 120.223H275.56ZM263.721 123.639L241.804 131.574L258.299 137.872L263.721 123.639ZM257.025 139.155L239.425 132.435L230.969 135.497L245.685 148.327H245.737L257.025 139.155ZM243.17 148.327L229.192 136.141L220.782 139.186L232.032 148.327H243.17ZM219.591 137.858L227.767 134.898L216.561 125.129L219.591 137.858ZM81.728 123.709L59.5826 131.868L75.6492 137.893L81.728 123.709ZM74.3357 139.166L57.2077 132.743L48.4433 135.972L62.9788 148.327H63.0605L74.3357 139.166ZM60.4262 148.327L46.6626 136.628L39.6151 139.224L49.418 148.327H60.4262ZM38.4536 137.89L45.2166 135.399L33.8112 125.704L38.4536 137.89ZM10.5853 117.952L7.13996 103.906L3.30636 110.707V111.233L10.5853 117.952ZM3.30636 107.34L6.56453 101.56L3.30636 88.2763V107.34ZM3.30636 81.3367L7.75057 99.4554L25.3968 68.1475H16.2983L3.30636 78.8468V81.3367ZM241.765 68.038L267.129 91.5573L260.005 67.3364L241.765 68.038ZM34.7262 124.312L54.8378 131.854L46.9973 134.742L34.7262 124.312ZM218.131 124.305L237.062 131.533L229.544 134.255L218.131 124.305Z" fill="#C52D48"/>
</svg>
