<svg width="222" height="265" viewBox="0 0 222 265" fill="none" xmlns="http://www.w3.org/2000/svg">
<path fill-rule="evenodd" clip-rule="evenodd" d="M49.3089 0.993164L33.7465 18.3864V46.4875L13.4356 60.0281L0.180664 93.6072L6.31684 139.19L30.0255 170.802L63.8299 188.549V264.008H184.163V184.931H195.1L216.712 166.921L222 130.787L216.825 93.7025V28.978L192.045 20.7179L176.429 23.1837L165.352 5.29079H138.895L129.411 12.404L119.63 0.993164H93.0286L84.96 12.2893L70.4364 0.993164H49.3089ZM35.8088 49.2447L35.9861 49.1265H103.448L114.542 61.8058V81.2466L103.333 97.2599H53.5156V100.698H104.11L128.347 104.041L144.806 120.5L152.874 150.083L156.191 149.178L147.883 118.715L130.873 101.705V97.492L138.846 104.136H161.424L175.397 95.9169L185.26 104.136H207.223L213.23 98.129L194.025 181.352L193.855 181.493H180.725V183.337L67.268 260.088V186.471L65.1151 185.341L16.3899 113.57L35.8088 49.2447ZM3.85072 95.0999L3.70754 94.0363L16.2384 62.2917L33.5607 50.7435L15.1469 111.739L3.85072 95.0999ZM8.88352 132.486L4.3646 98.9174L14.5074 113.857L8.88352 132.486ZM61.8866 183.646L32.3105 168.118L9.60472 137.844L9.4373 136.6L15.7503 115.688L61.8866 183.646ZM124.198 260.57H69.6242L178.773 186.734L124.198 260.57ZM180.725 186.984V260.57H126.336L180.725 186.984ZM214.357 100.891L218.527 130.776L213.501 165.122L196.209 179.532L214.357 100.891ZM126.858 100.365L107.249 97.6604L116.715 84.1371L126.858 100.365ZM119.547 6.17899L127.435 15.3815V98.0448L117.786 82.6071L117.98 82.3303V60.514L117.19 59.6107L119.547 6.17899ZM95.1921 4.43126H117.903L115.552 57.7386L105.008 45.6884H104.713L95.1921 4.43126ZM102.949 45.6884H87.0371V15.2964L93.7624 5.88098L102.949 45.6884ZM83.599 19.7424V45.6884H69.6018L83.599 19.7424ZM83.599 16.1218L67.8192 45.372L51.6791 4.43126H69.2568L83.599 15.5863V16.1218ZM50.1417 5.21856L66.0962 45.6884H50.1588L37.1846 20.5033V19.7L50.1417 5.21856ZM48.2251 45.6884H37.1846V24.257L48.2251 45.6884ZM130.873 16.964V15.6051L139.44 9.17997L153.872 43.8856L148.331 65.0924L130.873 16.964ZM139.219 99.9715L130.873 93.0166V22.0051L147.566 68.0229L139.219 99.9715ZM159.418 100.698H140.806L148.598 70.8702L159.418 100.698ZM173.849 91.9264V92.8386L161.114 100.33L149.364 67.9397L154.963 46.5097L173.849 91.9264ZM164.419 10.3157L173.849 25.5489V87.4494L155.681 43.7601L164.419 10.3157ZM141.114 8.72888H163.057L154.59 41.136L141.114 8.72888ZM177.395 26.5118L189.19 47.0253L190.894 24.3803L177.395 26.5118ZM192.607 24.5292L190.714 49.6763L208.286 80.2362L213.387 37.3861V31.456L192.607 24.5292ZM213.387 51.9279L209.72 82.7305L213.387 89.1078V51.9279ZM213.387 92.5565L209.38 85.5876L207.822 98.6748L213.387 93.1097V92.5565ZM205.857 100.64L207.946 83.0933L190.485 52.7258L186.874 100.698H205.799L205.857 100.64ZM185.23 99.6355L188.96 50.0747L177.287 29.7738V93.0166L185.23 99.6355Z" fill="#C52D48"/>
</svg>
