<svg width="355" height="200" viewBox="0 0 355 200" fill="none" xmlns="http://www.w3.org/2000/svg">
<path fill-rule="evenodd" clip-rule="evenodd" d="M118.516 0L79.8709 4.05079L53.1169 25.925L46.1378 43.4897L16.008 53.9623L0.450195 82.3285L4.80333 116.314L26.5452 136.45L38.9698 166.301L64.6989 182.439L106.587 174.067L123.575 190.015L151.93 200L185.611 194.076L201.433 182.6L226.217 194.21L262.435 190.158L289.445 166.836H323.146L349.021 142.612L354.457 109.745L341.106 81.4276L311.934 66.7208L300.197 40.1343L278.044 20.1565L242.041 12.1018L217.565 16.7853L194.047 3.98996H169.256L146.829 16.6127L118.516 0ZM55.887 27.9524L81.2052 7.25203L115.855 3.61995L89.1873 43.1665L66.7385 53.1187L55.8673 28.0019L55.887 27.9524ZM48.1449 46.31L48.6646 46.1293L55.0008 30.1826L65.2195 53.792L47.2331 61.7659L48.1449 46.31ZM18.5353 56.6017L46.4457 46.9006L45.524 62.5235L24.376 71.899L18.5353 56.6017ZM5.32906 80.343L17.4108 58.3146L22.8551 72.5733L5.32906 80.343ZM9.99025 116.588L7.94608 114.695L3.88352 82.9786L4.01206 82.7442L23.4485 74.1276L39.6663 116.603L31.5009 128.711L9.99025 116.588ZM28.2632 133.512L15.2498 121.46L30.569 130.093L28.2632 133.512ZM39.795 159.637L29.4351 134.746L32.021 130.911L41.1849 136.076L39.795 159.637ZM62.8677 177.368L41.6312 164.048L41.2528 163.139L42.7957 136.984L48.7239 140.325L62.8677 177.368ZM103.632 171.269L65.3443 178.921L65.2062 178.835L50.9899 141.602L103.632 171.269ZM121.271 183.295L107.613 170.474L106.13 170.77L50.0621 139.172L43.6564 122.395L44.2213 112.819L72.5715 70.7781L121.271 183.295ZM289.479 163.513H288.208L261.042 186.97L226.778 190.803L201.068 178.76L184.28 190.937L152.213 196.576L125.339 187.114L124.321 186.157L73.6742 69.143L90.2976 44.4917L145.824 19.8756L146.794 20.4451L170.127 7.31286H193.201L217.021 20.2725L218.088 20.0683L291.502 69.6415L314.329 142.053L289.479 163.513ZM321.095 163.513H292.021L314.873 143.778L321.095 163.513ZM345.978 140.647L345.926 140.957L324.142 161.351L330.717 130.096L337.708 124.059L345.978 140.647ZM350.557 112.963L346.44 137.851L339.005 122.938L350.557 112.963ZM350.732 109.636L351.01 110.225L350.98 110.402L338.24 121.404L334.235 113.37L336.974 100.346L350.732 109.636ZM339.867 86.5927L349.345 106.695L337.343 98.5909L339.867 86.5927ZM313.134 71.0469L338.588 83.8796L338.693 84.1026L335.857 97.5871L321.549 87.9258L313.134 71.0469ZM279.457 25.906L297.444 42.1262L309.375 69.152L310.654 69.7967L318.75 86.036L292.913 68.589L279.457 25.906ZM220.402 19.6256L241.988 15.495L276.466 23.2087L277.023 23.711L290.7 67.0945L220.402 19.6256ZM117.933 3.51077L144.059 18.8404L92.0458 41.8993L117.933 3.51077ZM24.9695 73.4533L45.414 64.3898L42.5895 112.268L40.8018 114.919L24.9695 73.4533ZM47.123 63.6321L44.4134 109.563L71.7881 68.9682L65.8795 55.3169L47.123 63.6321ZM41.5262 116.816L42.3974 115.524L42.2148 118.619L41.5262 116.816ZM40.3907 118.5L41.9768 122.654L41.2938 134.23L32.9529 129.53L40.3907 118.5ZM43.4184 126.429L42.9046 135.138L47.796 137.895L43.4184 126.429ZM87.4392 45.7589L72.8908 67.333L67.3985 54.6435L87.4392 45.7589ZM315.699 140.87L293.716 71.1359L320.257 89.0582L332.49 113.594L329.206 129.206L315.699 140.87ZM333.041 110.975L323.056 90.9481L335.487 99.3425L333.041 110.975ZM328.642 131.888L322.329 161.902L316.243 142.596L328.642 131.888ZM336.943 122.525L331.281 127.414L333.684 115.989L336.943 122.525Z" fill="#C52D48"/>
</svg>
