<svg width="181" height="200" viewBox="0 0 181 200" fill="none" xmlns="http://www.w3.org/2000/svg">
<path fill-rule="evenodd" clip-rule="evenodd" d="M117.024 0L102.735 9.52593L91.5197 25.0545L78.5916 48.3249V67.3406H73.0202L46.842 56.3626H25.6634L10.4091 68.0277L0 104.459L10.2926 147.345L24.8973 173.118L45.652 192.143L72.7151 200L73.1641 199.85L73.5422 199.96L88.258 195.055L103.884 199.989L104.414 199.849L104.749 199.955L133.899 192.239L154.402 173.444L170.582 147.897L180.8 105.322L180.703 104.983L180.828 104.459L170.405 67.9797L153.427 56.3626H132.325L103.614 67.3406H97.683L98.0068 58.2727L107.996 39.1268L128.662 17.5999L128.457 17.309L128.909 16.8376L117.024 0ZM81.9695 67.3406V49.8258L92.4537 30.9544L88.1729 67.3406H81.9695ZM96.8362 52.5766L94.6511 56.7648L94.2734 67.3406H89.8735L94.6049 27.1232L103.316 15.0617L96.8362 52.5766ZM107.746 34.0048L105.073 36.7892L99.3984 47.6658L105.54 12.1078L115.994 5.13888L107.746 34.0048ZM117.395 6.38288L124.542 16.5088L110.247 31.3998L117.395 6.38288ZM27.9241 59.7405V120.176L35.7944 147.818L53.8913 171.732L86.6958 191.779L87.8666 191.389L103.967 196.473L131.803 189.105L151.597 170.96L153.717 167.613L162.434 111.639L157.442 84.0509L133.272 59.8803L104.926 70.7184H72.3406L46.1624 59.7405H27.9241ZM135.52 59.7405L156.914 81.1347L153.137 60.2571L152.382 59.7405H135.52ZM155.095 61.5974L159.01 83.2302L165.801 90.0211L168.408 73.2832L167.492 70.0793L155.095 61.5974ZM169.514 77.1552L167.28 91.5L176.145 100.366L169.514 77.1552ZM177.101 103.71L166.958 93.5667L164.147 111.618L169.086 138.912L177.336 104.534L177.101 103.71ZM168.107 142.989L163.353 116.715L155.983 164.034L167.372 146.053L168.107 142.989ZM84.6001 192.478L56.6778 175.414L72.5952 196.448L72.6458 196.463L84.6001 192.478ZM69.8809 195.66L52.7376 173.006L40.9077 165.777L47.5719 189.183L69.8809 195.66ZM45.2487 187.191L38.7817 164.478L27.9241 157.843V171.31L45.2487 187.191ZM26.2352 168.627V156.81L15.9915 150.55L26.2352 168.627ZM14.2757 147.523L26.2352 154.831V137.985L4.68582 109.51L13.4661 146.094L14.2757 147.523ZM3.70214 105.411L26.2352 135.187V120.412L12.7224 72.9528L3.58639 104.929L3.70214 105.411ZM37.072 152.305L49.9511 169.324L40.2254 163.381L37.072 152.305ZM34.2567 148.585L38.0994 162.082L27.9241 155.863V140.217L34.2567 148.585ZM26.2352 114.244L13.6934 70.1956L26.2352 60.6048V114.244ZM27.9241 137.418V126.344L32.9792 144.098L27.9241 137.418ZM163.228 106.541L159.538 86.1464L165.479 92.0877L163.228 106.541Z" fill="#C52D48"/>
</svg>
