<svg width="42" height="468" viewBox="0 0 42 468" fill="none" xmlns="http://www.w3.org/2000/svg">
<g clip-path="url(#clip0_454_1716)">
<path d="M4.44347 455.232L5.98387 450.492L4.89596 429.692L3.5607 385.629L4.45087 270.796L4.00578 164.866L3.62899 22.2851L5.98387 5.85357L6.33935 3.48372L10.6051 1.29161L17.1222 0.284424L25.8314 0.521409L32.8817 2.2988L34.659 4.07618L34.896 6.32754L36.2899 62.204L35.607 193.351L35.1619 309.519L35.607 394.531V423.016L35.2515 432.459L34.896 441.902L39.2802 438.939H40.7614L41.7686 441.131L41.4724 444.153L40.2282 445.575L34.896 449.248L35.0738 451.677L36.6734 456.595L39.8135 460.979V462.164L38.747 462.815L32.1115 463.052L26.1276 464.652L24.4687 465.896L23.4615 467.437L21.0324 467.97L18.3071 467.437L17.3591 465.482L16.0557 464.652L12.6194 464.178L8.47221 462.815H0.651708L0 461.512L0.829447 460.209L4.44347 455.232Z" fill="#621C54"/>
<path d="M5.98387 5.85357L6.33935 3.48372L10.6051 1.29161L17.1222 0.284424L25.8314 0.521409L32.8817 2.2988L34.659 4.07618L34.896 6.32754M5.98387 5.85357L10.0126 7.63095L18.9588 9.05287L25.2389 8.69739L32.8817 6.86075L34.896 6.32754M5.98387 5.85357L3.62899 22.2851L4.00578 164.866L4.45087 270.796L3.5607 385.629L4.89596 429.692L5.98387 450.492L4.44347 455.232L0.829447 460.209L0 461.512L0.651708 462.815H8.47221L12.6194 464.178L16.0557 464.652L17.3591 465.482L18.3071 467.437L21.0324 467.97L23.4615 467.437L24.4687 465.896L26.1276 464.652L32.1115 463.052L38.747 462.815L39.8135 462.164V460.979L36.6734 456.595L35.0738 451.677L34.896 449.248L40.2282 445.575M40.2282 445.575L41.4724 444.153L41.7686 441.131L40.7614 438.939H39.2802M40.2282 445.575L38.9248 443.975L38.747 440.776L39.2802 438.939M39.2802 438.939L34.896 441.902L35.2515 432.459L35.607 423.016V394.531L35.1619 309.519L35.607 193.351L36.2899 62.204L34.896 6.32754" stroke="#C52D48" stroke-width="2"/>
</g>
<defs>
<clipPath id="clip0_454_1716">
<rect width="41.7686" height="467.686" fill="white" transform="translate(0 0.284424)"/>
</clipPath>
</defs>
</svg>
