<svg width="142" height="668" viewBox="0 0 142 668" fill="none" xmlns="http://www.w3.org/2000/svg">
<path d="M40.67 82.7191L62.2626 30.4422M40.67 82.7191L44.4581 141.815M40.67 82.7191L224.018 133.86M40.67 82.7191L227.806 70.2181M40.67 82.7191L210.759 18.6989M40.67 82.7191L110.372 3.54617M40.67 82.7191L73.6271 183.485M40.67 82.7191L180.833 180.075M62.2626 30.4422L110.372 3.54617M62.2626 30.4422L210.759 18.6989M62.2626 30.4422L125.146 197.501M62.2626 30.4422L44.4581 141.815M110.372 3.54617L164.922 0.515625M110.372 3.54617L224.018 133.86M110.372 3.54617L73.6271 183.485M110.372 3.54617L180.833 180.075M110.372 3.54617L44.4581 141.815M110.372 3.54617L210.759 18.6989M110.372 3.54617L227.806 70.2181M164.922 0.515625L210.759 18.6989M164.922 0.515625L125.146 197.501M164.922 0.515625L227.806 70.2181M210.759 18.6989L227.806 70.2181M210.759 18.6989L73.6271 183.485M210.759 18.6989L224.018 133.86M210.759 18.6989L180.833 180.075M227.806 70.2181L224.018 133.86M227.806 70.2181L44.4581 141.815M227.806 70.2181L180.833 180.075M227.806 70.2181L125.146 197.501M224.018 133.86L204.549 154.695M224.018 133.86L44.4581 141.815M224.018 133.86L125.146 197.501M180.833 180.075L125.146 197.501M180.833 180.075L204.549 154.695M180.833 180.075L73.6271 183.485M180.833 180.075L240.307 200.91M180.833 180.075L152.421 462.295M180.833 180.075L97.4926 266.825M180.833 180.075L216.063 230.837M125.146 197.501L73.6271 183.485M125.146 197.501L44.4581 141.815M125.146 197.501L32.7148 213.79M125.146 197.501L240.307 200.91M125.146 197.501L97.4926 266.825M125.146 197.501L216.063 230.837M125.146 197.501L152.421 462.295M73.6271 183.485L62.755 167.953M73.6271 183.485L32.7148 213.79M73.6271 183.485L97.4926 266.825M73.6271 183.485L0.515259 383.879M73.6271 183.485L32.336 477.069M44.4581 141.815L62.755 167.953M62.755 167.953L32.7148 213.79M32.7148 213.79L3.92462 318.723M32.7148 213.79L97.4926 266.825M32.7148 213.79L70.9754 453.961M32.7148 213.79L32.336 477.069M32.7148 213.79L6.95516 444.49M3.92462 318.723L0.515259 383.879M3.92462 318.723L97.4926 266.825M3.92462 318.723L70.9754 453.961M3.92462 318.723L32.336 477.069M0.515259 383.879L6.95516 444.49M0.515259 383.879L70.9754 453.961M0.515259 383.879L97.4926 266.825M6.95516 444.49L32.336 477.069M6.95516 444.49L70.9754 453.961M6.95516 444.49L97.4926 266.825M32.336 477.069L54.3074 463.929M32.336 477.069L97.4926 266.825M70.9754 453.961L97.4926 266.825M70.9754 453.961L54.3074 463.929M70.9754 453.961L216.063 230.837M70.9754 453.961L152.421 462.295M70.9754 453.961L46.3522 543.362M97.4926 266.825L227.806 295.236M97.4926 266.825L216.063 230.837M97.4926 266.825L240.307 200.91M97.4926 266.825L228.185 449.415M97.4926 266.825L152.421 462.295M97.4926 266.825L231.594 360.771M54.3074 463.929L46.3522 543.362M54.3074 463.929L152.421 462.295M54.3074 463.929L152.421 510.404M54.3074 463.929L138.784 575.182M46.3522 543.362V607.761M46.3522 543.362L152.421 510.404M46.3522 543.362L152.421 462.295M46.3522 543.362L138.784 575.182M46.3522 543.362L117.949 646.021M46.3522 543.362L69.0813 658.522M46.3522 607.761L69.0813 658.522M46.3522 607.761L152.421 462.295M46.3522 607.761L138.784 575.182M46.3522 607.761L152.421 510.404M69.0813 658.522L117.949 646.021M69.0813 658.522L152.421 462.295M69.0813 658.522L138.784 575.182M69.0813 658.522L152.421 510.404M117.949 646.021L123.631 626.702M117.949 646.021L152.421 462.295M138.784 575.182L152.421 510.404M138.784 575.182L123.631 626.702M138.784 575.182L216.82 555.484M138.784 575.182L228.185 449.415M138.784 575.182L159.24 666.477M152.421 510.404V462.295M152.421 510.404L231.594 360.771M152.421 510.404L228.185 449.415M152.421 510.404L159.24 666.477M152.421 510.404L202.046 625.565M152.421 510.404L216.82 555.484M152.421 462.295L231.594 360.771M152.421 462.295L228.185 449.415M152.421 462.295L216.063 230.837M152.421 462.295L202.046 625.565M152.421 462.295L216.82 555.484M152.421 462.295L224.775 489.948M123.631 626.702L159.24 666.477M123.631 626.702L202.046 625.565M123.631 626.702L216.82 555.484M123.631 626.702L228.185 449.415M159.24 666.477L202.046 625.565M159.24 666.477L228.185 449.415M159.24 666.477L216.82 555.484M202.046 625.565L216.82 555.484M216.82 555.484L224.775 489.948M224.775 489.948L228.185 449.415M228.185 449.415L231.594 360.771M228.185 449.415L263.036 428.58M228.185 449.415L273.264 374.409M228.185 449.415L269.097 311.904M231.594 360.771L227.806 295.236M231.594 360.771L269.097 311.904M231.594 360.771L263.036 428.58M231.594 360.771L240.307 200.91M227.806 295.236L216.063 230.837M227.806 295.236L269.097 311.904M227.806 295.236L263.036 428.58M227.806 295.236L240.307 200.91M216.063 230.837L240.307 200.91M216.063 230.837L269.097 311.904M216.063 230.837L204.549 154.695M263.036 428.58L273.264 374.409M263.036 428.58L240.307 200.91M273.264 374.409L269.097 311.904M269.097 311.904L240.307 200.91M240.307 200.91L204.549 154.695" stroke="#C52D48"/>
</svg>
