<svg width="167" height="147" viewBox="0 0 167 147" fill="none" xmlns="http://www.w3.org/2000/svg">
<path d="M3.21704 68.9496L98.751 94.8857L26.6222 33.2026L63.952 101.218" stroke="#C52D48" stroke-width="0.5" stroke-linecap="round" stroke-linejoin="round"/>
<path d="M10.811 103.426L53.8291 14.8589" stroke="#C52D48" stroke-width="0.5" stroke-linecap="round" stroke-linejoin="round"/>
<path d="M26.6228 33.202L29.4669 136.016L53.8288 14.8589" stroke="#C52D48" stroke-width="0.5" stroke-linecap="round" stroke-linejoin="round"/>
<path d="M3.21704 68.9492L20.299 110.393" stroke="#C52D48" stroke-width="0.5" stroke-linecap="round" stroke-linejoin="round"/>
<path d="M3.21704 68.9496L50.984 120.83L26.6222 33.2026" stroke="#C52D48" stroke-width="0.5" stroke-linecap="round" stroke-linejoin="round"/>
<path d="M50.985 120.83L29.4673 136.016L50.985 132.85" stroke="#C52D48" stroke-width="0.5" stroke-linecap="round" stroke-linejoin="round"/>
<path d="M53.8296 14.8592L98.7524 94.8854L112.034 1.56934L53.8296 14.8592ZM53.8296 14.8592L165.811 44.9092L112.034 1.56934L63.9535 101.217L53.8296 14.8592Z" stroke="#C52D48" stroke-width="0.5" stroke-linecap="round" stroke-linejoin="round"/>
<path d="M125.322 108.175L112.032 1.56934L163.278 79.0732" stroke="#C52D48" stroke-width="0.5" stroke-linecap="round" stroke-linejoin="round"/>
<path d="M53.8281 14.8592L3.21704 68.9493M3.21704 68.9493L78.5031 4.41344L26.6222 33.2023M3.21704 68.9493L112.032 1.56934L26.6222 33.2023M3.21704 68.9493L154.111 21.1823L26.6222 33.2023M3.21704 68.9493L165.809 44.9092L26.6222 33.2023M3.21704 68.9493L163.278 79.0732L26.6222 33.2023" stroke="#C52D48" stroke-width="0.5" stroke-linecap="round" stroke-linejoin="round"/>
<path d="M3.21788 68.9496L10.8108 103.427L26.623 33.2026L1 85.7185" stroke="#C52D48" stroke-width="0.5" stroke-linecap="round" stroke-linejoin="round"/>
<path d="M98.7508 94.8857L163.278 79.0735L154.111 21.1826L63.9519 101.218L165.809 44.9095L125.322 108.176" stroke="#C52D48" stroke-width="0.5" stroke-linecap="round" stroke-linejoin="round"/>
<path d="M63.9531 101.217L20.3 110.393L50.985 132.85" stroke="#C52D48" stroke-width="0.5" stroke-linecap="round" stroke-linejoin="round"/>
<path d="M10.8108 103.426L20.2999 110.393L29.4671 136.016L41.8089 145.818L50.9848 132.85V120.83L63.9529 101.217L98.7518 94.8854L125.323 108.175L163.279 79.0732L165.81 44.9092L154.112 21.1823L112.033 1.56934L78.5039 4.41344L53.8289 14.8592L26.623 33.2023L3.21788 68.9493L1 85.7182L10.8108 103.426Z" fill="#C52D48" fill-opacity="0.4" stroke="#C52D48" stroke-width="2" stroke-linecap="round" stroke-linejoin="round"/>
</svg>
