<svg width="69" height="165" viewBox="0 0 69 165" fill="none" xmlns="http://www.w3.org/2000/svg">
<path d="M31.3897 49.1719L45.0643 44.906L55.726 33.6168L56.605 17.9349L52.4658 5.3906L41.1745 1L27.878 1.62753L16.086 8.27681L10.8164 21.0725L11.6954 35.4972L18.8454 45.7849L31.3897 49.1719Z" stroke="#C52D48" stroke-width="1.01848" stroke-miterlimit="10"/>
<path d="M53.653 57.0804L56.6051 73.0075L57.484 88.814L56.6051 110.892L65.1348 105.624L67.6449 92.4503L66.6413 77.1466L59.6159 49.9241L50.9087 38.7173" stroke="#C52D48" stroke-width="1.01848" stroke-miterlimit="10"/>
<path d="M56.6052 110.891L55.853 120.676L53.8458 136.61L50.2074 153.92L39.795 163.957L31.2019 154.092" stroke="#C52D48" stroke-width="1.01848" stroke-miterlimit="10"/>
<path d="M14.0789 114.781L12.1963 133.724V149.53L17.7173 161.95L29.7587 158.812L34.7768 141.501L38.0908 125.35L38.0391 113.778" stroke="#C52D48" stroke-width="1.01848" stroke-miterlimit="10"/>
<path d="M16.1452 41.9016L8.87265 53.1443L1.85784 78.8646L1 94.724L2.60791 109.514L8.87265 117.657L18.2539 111.872L20.933 96.0107L24.6834 65.79" stroke="#C52D48" stroke-width="1.01848" stroke-miterlimit="10"/>
<path d="M31.3899 49.1719L16.0862 8.27686" stroke="#C52D48" stroke-width="0.50924" stroke-linecap="round" stroke-linejoin="round"/>
<path d="M18.8454 45.7849L10.8164 21.0725" stroke="#C52D48" stroke-width="0.50924" stroke-linecap="round" stroke-linejoin="round"/>
<path d="M31.3899 49.1719L41.1747 1" stroke="#C52D48" stroke-width="0.50924" stroke-linecap="round" stroke-linejoin="round"/>
<path d="M18.8455 45.7848L27.8781 1.62744" stroke="#C52D48" stroke-width="0.50924" stroke-linecap="round" stroke-linejoin="round"/>
<path d="M31.3899 49.1719L56.6052 17.9348" stroke="#C52D48" stroke-width="0.50924" stroke-linecap="round" stroke-linejoin="round"/>
<path d="M18.8455 45.7849L52.4658 5.39062" stroke="#C52D48" stroke-width="0.50924" stroke-linecap="round" stroke-linejoin="round"/>
<path d="M56.605 17.9349L10.8164 21.0725L52.4658 5.39062" stroke="#C52D48" stroke-width="0.50924" stroke-linecap="round" stroke-linejoin="round"/>
<path d="M41.1747 1L56.6052 17.9349L27.8782 1.62753L52.466 5.3906L16.0862 8.27681" stroke="#C52D48" stroke-width="0.50924" stroke-linecap="round" stroke-linejoin="round"/>
<path d="M55.726 33.6167L52.4658 5.39051L45.0643 44.9059L56.605 17.9348L11.6954 35.4971L27.878 1.62744L10.8164 21.0724" stroke="#C52D48" stroke-width="0.50924" stroke-linecap="round" stroke-linejoin="round"/>
<path d="M55.7261 33.6167L27.8782 1.62744L45.0645 44.9059" stroke="#C52D48" stroke-width="0.50924" stroke-linecap="round" stroke-linejoin="round"/>
<path d="M11.6954 35.4972L55.726 33.6168L10.8164 21.0725L45.0643 44.906" stroke="#C52D48" stroke-width="0.50924" stroke-linecap="round" stroke-linejoin="round"/>
<path d="M18.8455 45.785L45.0644 44.906" stroke="#C52D48" stroke-width="0.50924" stroke-linecap="round" stroke-linejoin="round"/>
<path d="M16.0862 8.27686L11.6956 35.4973L31.3899 49.1719L55.7262 33.6168" stroke="#C52D48" stroke-width="0.50924" stroke-linecap="round" stroke-linejoin="round"/>
<path d="M18.2539 111.872L2.60791 109.514L8.87264 53.1443V117.657L24.6834 65.79L2.60791 109.514" stroke="#C52D48" stroke-width="0.50924" stroke-linecap="round" stroke-linejoin="round"/>
<path d="M1.85809 78.8644L18.2542 111.872L8.8729 53.1441L24.6837 65.7898L18.8458 45.7849L8.8729 117.659C8.8729 117.659 1.11646 78.1249 1.85809 78.8644Z" stroke="#C52D48" stroke-width="0.50924" stroke-linecap="round" stroke-linejoin="round"/>
<path d="M24.6838 65.7898L1.85815 78.8644L2.60823 109.514" stroke="#C52D48" stroke-width="0.50924" stroke-linecap="round" stroke-linejoin="round"/>
<path d="M1 94.7236L8.87265 117.657" stroke="#C52D48" stroke-width="0.50924" stroke-linecap="round" stroke-linejoin="round"/>
<path d="M31.3899 49.1719L59.6161 49.9241L24.6836 65.7898L56.6052 73.0074" stroke="#C52D48" stroke-width="0.50924" stroke-linecap="round" stroke-linejoin="round"/>
<path d="M65.1348 105.624L53.721 57.2009L67.6449 92.4503L50.9087 38.7173L65.1348 105.624Z" stroke="#C52D48" stroke-width="0.50924" stroke-linecap="round" stroke-linejoin="round"/>
<path d="M67.2457 91.172L59.616 49.9241L65.1349 105.624L57.4841 88.814" stroke="#C52D48" stroke-width="0.50924" stroke-linecap="round" stroke-linejoin="round"/>
<path d="M56.605 73.0074L59.6159 49.9241L57.4839 88.814L66.6412 77.1466L56.605 73.0074Z" stroke="#C52D48" stroke-width="0.50924" stroke-linecap="round" stroke-linejoin="round"/>
<path d="M66.6415 77.1466L56.6052 110.892L67.6451 92.4503L57.4842 88.814L24.6836 65.7898L56.6052 110.892L38.0392 113.778" stroke="#C52D48" stroke-width="0.50924" stroke-linecap="round" stroke-linejoin="round"/>
<path d="M45.0644 44.906L59.6159 49.9241L53.721 57.2009M45.0644 44.906L53.721 57.2009M45.0644 44.906L24.6834 65.7898M53.721 57.2009L66.6413 77.1466L50.9087 38.7173L53.721 57.2009ZM53.721 57.2009L24.6834 65.7898M53.721 57.2009L31.3898 49.1719M53.721 57.2009L18.2539 111.872L1 94.7238M53.721 57.2009L38.0391 113.778M24.6834 65.7898L31.3898 49.1719M24.6834 65.7898L1 94.7238M31.3898 49.1719L8.87265 53.1441L18.8455 45.7849L1 94.7238M31.3898 49.1719L1 94.7238" stroke="#C52D48" stroke-width="0.50924" stroke-linecap="round" stroke-linejoin="round"/>
<path d="M31.3899 49.1719L38.0392 113.778L45.0645 44.906" stroke="#C52D48" stroke-width="0.50924" stroke-linecap="round" stroke-linejoin="round"/>
<path d="M55.8531 120.676L38.0392 113.778L53.8458 136.61L31.2019 154.092" stroke="#C52D48" stroke-width="0.50924" stroke-linecap="round" stroke-linejoin="round"/>
<path d="M38.0391 113.778L50.2072 153.921L38.0391 113.778Z" stroke="#C52D48" stroke-width="0.50924" stroke-linecap="round" stroke-linejoin="round"/>
<path d="M56.6052 110.891L31.2019 154.092L56.6052 110.891Z" stroke="#C52D48" stroke-width="0.50924" stroke-linecap="round" stroke-linejoin="round"/>
<path d="M38.0392 125.443L53.8457 136.61L34.7769 141.501L56.6052 110.891L38.0392 125.443Z" stroke="#C52D48" stroke-width="0.50924" stroke-linecap="round" stroke-linejoin="round"/>
<path d="M31.2018 154.092L50.2073 153.92L56.6051 110.891L39.8509 163.885L38.1069 125.443M38.1069 113.778L12.1963 133.723M38.1069 113.778L14.0789 114.781L38.1069 125.443M38.1069 113.778L18.254 111.872L12.1963 133.723M38.1069 113.778L12.1963 149.53L34.7768 141.501L12.1963 133.723M38.1069 113.778L17.7173 161.949L12.1963 133.723M38.1069 113.778L29.7587 158.812L12.1963 133.723M38.1069 113.778V125.443M12.1963 133.723L38.1069 125.443" stroke="#C52D48" stroke-width="0.50924" stroke-linecap="round" stroke-linejoin="round"/>
<path d="M34.777 141.501L17.7153 161.95L34.777 141.501Z" stroke="#C52D48" stroke-width="0.50924" stroke-linecap="round" stroke-linejoin="round"/>
<path d="M53.8456 136.61L39.7949 163.957L34.7768 141.501L14.0789 114.781" stroke="#C52D48" stroke-width="0.50924" stroke-linecap="round" stroke-linejoin="round"/>
<path d="M12.1963 149.53L38.0391 125.443L17.7173 161.95" stroke="#C52D48" stroke-width="0.50924" stroke-linecap="round" stroke-linejoin="round"/>
<path d="M50.2074 153.921L38.0392 125.443L57.4842 88.814L38.0392 113.778L24.6836 65.7898" stroke="#C52D48" stroke-width="0.50924" stroke-linecap="round" stroke-linejoin="round"/>
</svg>
