<svg width="301" height="389" viewBox="0 0 301 389" fill="none" xmlns="http://www.w3.org/2000/svg">
<path d="M6.68932 95.4658L1.2749 165.312L3.98783 249.385L9.40225 296.172L59.2996 357.884L125.406 384.49L157.961 387.002L237.598 352.87L287.69 293.131L299.709 237.408L293.699 118.446L279.173 60.2097L220.576 13.5267L172.991 1.48022L119.396 3.99278L64.3019 27.5809L6.68932 95.4658Z" fill="#C52D48" fill-opacity="0.4" stroke="#C52D48" stroke-width="2" stroke-miterlimit="10"/>
<path d="M9.40225 296.172L172.991 1.48022M9.40225 296.172L64.3019 27.5809M9.40225 296.172L157.961 387.002M9.40225 296.172L237.598 352.87M9.40225 296.172L125.405 384.489M9.40225 296.172L293.699 118.446M9.40225 296.172L279.173 60.2096M9.40225 296.172L299.709 237.408M172.991 1.48022L1.2749 165.312M172.991 1.48022L119.396 3.99278M172.991 1.48022L64.3019 27.5809M172.991 1.48022L299.709 237.408M172.991 1.48022L279.173 60.2096M1.2749 165.312L64.3019 27.5809M1.2749 165.312L237.598 352.87M1.2749 165.312L157.961 387.002M1.2749 165.312L59.2995 357.884L157.961 387.002M1.2749 165.312L279.173 60.2096M1.2749 165.312L299.709 237.408M64.3019 27.5809L237.598 352.87M64.3019 27.5809L287.689 293.131M64.3019 27.5809L125.405 384.489M64.3019 27.5809L293.699 118.446M157.961 387.002L287.689 293.131M157.961 387.002L293.699 118.446M157.961 387.002L6.68901 95.4656M237.598 352.87L6.68901 95.4656M237.598 352.87L125.405 384.489M237.598 352.87L299.709 237.408M287.689 293.131L220.576 13.5266M287.689 293.131L293.699 118.446M287.689 293.131L6.68901 95.4656M220.576 13.5266L293.699 118.446M220.576 13.5266L119.396 3.99278M220.576 13.5266L6.68901 95.4656M293.699 118.446L6.68901 95.4656M6.68901 95.4656L119.396 3.99278M6.68901 95.4656L299.709 237.408M125.405 384.489L279.173 60.2096" stroke="#C52D48" stroke-linecap="round" stroke-linejoin="round"/>
</svg>
