<svg width="42" height="64" viewBox="0 0 42 64" fill="none" xmlns="http://www.w3.org/2000/svg">
<path d="M21 0C9.45027 0 0 8.93747 0 19.8613V43.9787C0 54.9021 9.44987 63.84 21 63.84C32.5497 63.84 42 54.9025 42 43.9787V19.8613C42 8.93735 32.5497 0 21 0ZM39 43.9787C39 53.3421 30.9 61.0027 21 61.0027C11.0997 61.0032 3 53.3422 3 43.9787V19.8613C3 10.4979 11.0996 2.83733 21 2.83733C30.9004 2.83733 39 10.4981 39 19.8613V43.9787Z" fill="#C52D48"/>
<path d="M21.0303 9.87012C18.7038 9.87012 16.8 11.7737 16.8 14.1004V21.1504C16.8 23.4769 18.7037 25.3806 21.0303 25.3806C23.3569 25.3806 25.2606 23.477 25.2606 21.1504V14.1004C25.2606 11.7739 23.3569 9.87012 21.0303 9.87012ZM22.4402 21.1504C22.4402 21.9259 21.8058 22.5602 21.0303 22.5602C20.2548 22.5602 19.6204 21.9259 19.6204 21.1504V14.1004C19.6204 13.3248 20.2548 12.6905 21.0303 12.6905C21.8058 12.6905 22.4402 13.3249 22.4402 14.1004V21.1504Z" fill="#C52D48"/>
</svg>
