<svg width="799" height="529" viewBox="0 0 799 529" fill="none" xmlns="http://www.w3.org/2000/svg">
<path d="M62.2898 2.74927L52.323 19.146L49.2687 89.3469L37.4733 110.505L21.438 92.871L24.01 18.9253L20.1519 10.5865L12.3017 20.0956L2 117.479L5.9251 135.688L47.3731 183.508L33.9702 496.423L62.2898 524.689V526.194L90.6028 497.921L76.5367 183.668L117.556 136.09L121.481 117.874L112.271 21.5935L104.421 12.0844L100.563 20.4232L103.135 94.3756L87.0997 113.347L75.3043 90.8449L72.2499 20.6439L62.2898 2.74927Z" stroke="white" stroke-width="2" stroke-miterlimit="10"/>
<path d="M666.84 264.471C666.84 403.901 553.832 516.931 414.43 516.931C275.028 516.931 162.02 403.901 162.02 264.471C162.02 125.042 275.028 12.0121 414.43 12.0121C553.832 12.0121 666.84 125.042 666.84 264.471Z" stroke="white" stroke-width="2"/>
<path d="M786.948 39.5631L798 90.8746V324.908V509.247L790.635 526.943H765.58L739.798 505.557V483.435L747.899 472.382L758.215 439.199V379.909L754.529 336.705L739.798 327.117L707.378 324.908L713.272 102.224L729.482 48.3998L767.06 2L786.948 39.5631Z" stroke="white" stroke-width="2" stroke-miterlimit="10"/>
</svg>
