<svg width="760" height="495" viewBox="0 0 760 495" fill="none" xmlns="http://www.w3.org/2000/svg">
<circle cx="385.686" cy="237.388" r="236.449" stroke="white" stroke-width="1.87658"/>
<path d="M57.3037 2.12695L47.9959 17.4649L45.1435 83.1327L34.1279 102.924L19.1528 86.4292L21.5548 17.2585L17.9518 9.45813L10.6206 18.3531L1 109.449L4.66559 126.482L43.3732 171.213L30.8564 463.922L57.3037 490.363V491.771L83.7447 465.324L70.6087 171.363L108.916 126.857L112.582 109.818L103.981 19.7543L96.6493 10.8593L93.0463 18.6596L95.4483 87.8367L80.4732 105.583L69.4577 84.5339L66.6053 18.8661L57.3037 2.12695Z" stroke="white" stroke-width="1.87658" stroke-miterlimit="10"/>
<path d="M93.0463 18.6596L103.981 19.7543L108.916 126.857L43.3732 171.213L34.1279 102.924L69.4577 84.5339L57.3037 2.12695L45.1435 83.1327L80.4732 105.583L108.916 126.857" stroke="white" stroke-width="0.625527" stroke-miterlimit="10"/>
<path d="M10.6211 18.3532L19.1533 86.4293L43.3737 171.213L69.4582 84.534L70.6091 171.363L47.9963 17.465L66.6058 18.8661L45.1439 83.1328" stroke="white" stroke-width="0.625527" stroke-miterlimit="10"/>
<path d="M4.66602 126.482L70.6091 171.363L112.582 109.818L96.6498 10.8594L95.4488 87.8367L103.981 19.7544" stroke="white" stroke-width="0.625527" stroke-miterlimit="10"/>
<path d="M30.8564 463.922L70.6087 171.363" stroke="white" stroke-width="0.625527" stroke-miterlimit="10"/>
<path d="M83.7446 465.324L43.373 171.213L57.3035 490.363" stroke="white" stroke-width="0.625527" stroke-miterlimit="10"/>
<path d="M748.658 37.0717L759 85.0826V304.062V476.543L752.108 493.101H728.664L704.538 473.091V452.392L712.119 442.05L721.772 411.001V355.525L718.322 315.1L704.538 306.129L674.202 304.062L679.717 95.702L694.885 45.3399L730.048 1.9248L748.658 37.0717Z" stroke="white" stroke-width="1.87658" stroke-miterlimit="10"/>
<path d="M679.717 95.702L730.048 1.9248L759 85.0826L718.322 315.1L730.048 1.9248L704.538 306.129L679.717 95.702Z" stroke="white" stroke-width="0.625527" stroke-miterlimit="10"/>
<path d="M674.202 304.062L694.885 45.34L748.658 37.0718L674.202 304.062Z" stroke="white" stroke-width="0.625527" stroke-miterlimit="10"/>
<path d="M759 85.0826L721.772 411.001L759 476.543L728.664 493.101L704.538 452.392L752.108 493.101L718.322 315.1L759 476.543L704.538 473.091" stroke="white" stroke-width="0.625527" stroke-miterlimit="10"/>
</svg>
