<svg width="84" height="55" viewBox="0 0 84 55" fill="none" xmlns="http://www.w3.org/2000/svg">
<path d="M39.9825 9.90466L39.9825 9.90467C39.4033 10.4839 39.0778 11.2698 39.0778 12.0887V43.1607C39.0778 44.264 39.6664 45.2834 40.6221 45.8355L39.9825 9.90466ZM39.9825 9.90466C40.5617 9.32547 41.3476 9 42.1666 9C42.9855 9 43.7713 9.32547 44.3505 9.90467L44.3505 9.90469M39.9825 9.90466L44.3505 9.90469M44.3505 9.90469C44.9297 10.4839 45.2552 11.2698 45.2552 12.0887V43.1607C45.2552 44.264 44.6665 45.2834 43.7109 45.8355M44.3505 9.90469L43.7109 45.8355M17.9047 19.7175L17.9047 19.7175C17.3254 20.2968 17 21.0823 17 21.9011V33.349C17 34.4523 17.5886 35.4717 18.5443 36.0239C19.4996 36.5754 20.6773 36.5755 21.6329 36.024L17.9047 19.7175ZM17.9047 19.7175C18.4839 19.1383 19.2698 18.8128 20.0887 18.8128C20.9076 18.8128 21.6935 19.1383 22.2727 19.7175L22.2727 19.7175M17.9047 19.7175L22.2727 19.7175M22.2727 19.7175C22.8519 20.2968 23.1773 21.0823 23.1773 21.9011V33.349C23.1773 34.4524 22.5887 35.4718 21.6331 36.0239L22.2727 19.7175ZM43.7109 45.8355C42.7554 46.3871 41.5778 46.3871 40.6224 45.8357L43.7109 45.8355ZM51.6613 40.9294L51.6612 40.9293C50.7056 40.3776 50.1169 39.3583 50.1169 38.2549V16.9949C50.1169 16.1757 50.4423 15.3902 51.0215 14.8109C51.6007 14.2317 52.3866 13.9062 53.2056 13.9062C54.0245 13.9062 54.8103 14.2317 55.3895 14.8109C55.9688 15.3902 56.2942 16.1753 56.2942 16.9945V38.2545C56.2942 39.358 55.7053 40.3778 54.7499 40.9293L54.7497 40.9294C53.7942 41.4813 52.6167 41.4813 51.6613 40.9294ZM29.5835 40.9294L29.5833 40.9293C28.6278 40.3776 28.039 39.3583 28.039 38.2549V16.9949C28.039 16.1757 28.3645 15.3902 28.9437 14.8109C29.5229 14.2317 30.3088 13.9062 31.1277 13.9062C31.9466 13.9062 32.7324 14.2317 33.3117 14.8109C33.891 15.3902 34.2163 16.1753 34.2163 16.9945V38.2545C34.2163 39.358 33.6275 40.3778 32.6721 40.9293L32.6719 40.9294C31.7164 41.4813 30.5388 41.4813 29.5835 40.9294ZM62.0604 19.7175C62.6395 19.1383 63.4254 18.8128 64.2444 18.8128C65.0633 18.8128 65.8491 19.1383 66.4283 19.7175L67.1354 19.0104L66.4283 19.7175C67.0076 20.2968 67.333 21.0823 67.333 21.9011V33.349C67.333 34.4524 66.7443 35.4719 65.7885 36.024C64.833 36.5755 63.6553 36.5754 62.6999 36.0239C61.7443 35.4717 61.1557 34.4523 61.1557 33.349V21.9011C61.1557 21.0823 61.4811 20.2968 62.0603 19.7175L61.3532 19.0104L62.0604 19.7175Z" stroke="white" stroke-width="2" stroke-miterlimit="16"/>
<rect x="1" y="1" width="82" height="53" stroke="white" stroke-width="2"/>
</svg>
