<svg width="201" height="258" viewBox="0 0 201 258" fill="none" xmlns="http://www.w3.org/2000/svg">
<g clip-path="url(#clip0_388_1376)">
<path d="M3.63589 63.1007L0 109.995L1.82179 166.441L5.45767 197.852L38.9647 239.285L83.3563 257.148L105.218 258.835L158.695 235.919L192.333 195.811L200.404 158.399L196.369 78.5293L186.614 39.4303L147.265 8.08786L115.311 0L79.3207 1.6869L42.3239 17.5237L3.63589 63.1007Z" stroke="#C52D48" stroke-width="2" stroke-miterlimit="10"/>
<path d="M5.45767 197.852L115.311 0M5.45767 197.852L42.3239 17.5237M5.45767 197.852L105.218 258.835M5.45767 197.852L158.695 235.919M5.45767 197.852L83.356 257.148M5.45767 197.852L196.368 78.5292M5.45767 197.852L186.614 39.4302M5.45767 197.852L200.404 158.399M115.311 0L0 109.995M115.311 0L79.3207 1.68687M115.311 0L42.3239 17.5237M115.311 0L200.404 158.399M115.311 0L186.614 39.4302M0 109.995L42.3239 17.5237M0 109.995L158.695 235.919M0 109.995L105.218 258.835M0 109.995L38.9646 239.285L105.218 258.835M0 109.995L186.614 39.4302M0 109.995L200.404 158.399M42.3239 17.5237L158.695 235.919M42.3239 17.5237L192.333 195.811M42.3239 17.5237L83.356 257.148M42.3239 17.5237L196.368 78.5292M105.218 258.835L192.333 195.811M105.218 258.835L196.368 78.5292M105.218 258.835L3.63588 63.1006M158.695 235.919L3.63588 63.1006M158.695 235.919L83.356 257.148M158.695 235.919L200.404 158.399M192.333 195.811L147.265 8.08779M192.333 195.811L196.368 78.5292M192.333 195.811L3.63588 63.1006M147.265 8.08779L196.368 78.5292M147.265 8.08779L79.3207 1.68687M147.265 8.08779L3.63588 63.1006M196.368 78.5292L3.63588 63.1006M3.63588 63.1006L79.3207 1.68687M3.63588 63.1006L200.404 158.399M83.356 257.148L186.614 39.4302" stroke="#C52D48" stroke-width="0.5" stroke-linecap="round" stroke-linejoin="round"/>
</g>
<defs>
<clipPath id="clip0_388_1376">
<rect width="200.114" height="257.93" fill="white"/>
</clipPath>
</defs>
</svg>
