<svg width="68" height="67" viewBox="0 0 68 67" fill="none" xmlns="http://www.w3.org/2000/svg">
<rect x="0.5" width="67" height="67" rx="33.5" fill="white"/>
<path d="M8.79028 32.0128L38.8243 40.1459L16.1484 20.8032L27.8842 42.1314" stroke="#C52D48" stroke-width="0.411216" stroke-linecap="round" stroke-linejoin="round"/>
<path d="M11.1777 42.8243L24.7018 15.0513" stroke="#C52D48" stroke-width="0.411216" stroke-linecap="round" stroke-linejoin="round"/>
<path d="M16.1484 20.8033L17.0426 53.0438L24.7015 15.0513" stroke="#C52D48" stroke-width="0.411216" stroke-linecap="round" stroke-linejoin="round"/>
<path d="M8.79028 32.0127L14.1605 45.0087" stroke="#C52D48" stroke-width="0.411216" stroke-linecap="round" stroke-linejoin="round"/>
<path d="M8.79028 32.0128L23.8073 48.2817L16.1484 20.8032" stroke="#C52D48" stroke-width="0.411216" stroke-linecap="round" stroke-linejoin="round"/>
<path d="M23.8075 48.2817L17.0427 53.0438L23.8075 52.051" stroke="#C52D48" stroke-width="0.411216" stroke-linecap="round" stroke-linejoin="round"/>
<path d="M24.7019 15.0508L38.8248 40.1455L43.0001 10.8833L24.7019 15.0508ZM24.7019 15.0508L59.9065 24.4739L43.0001 10.8833L27.8847 42.131L24.7019 15.0508Z" stroke="#C52D48" stroke-width="0.411216" stroke-linecap="round" stroke-linejoin="round"/>
<path d="M47.1778 44.3129L42.9998 10.8833L59.1105 35.1871" stroke="#C52D48" stroke-width="0.411216" stroke-linecap="round" stroke-linejoin="round"/>
<path d="M24.7014 15.0508L8.79028 32.0124M8.79028 32.0124L32.4587 11.7752L16.1484 20.8028M8.79028 32.0124L42.9996 10.8833L16.1484 20.8028M8.79028 32.0124L56.2284 17.0336L16.1484 20.8028M8.79028 32.0124L59.9061 24.4739L16.1484 20.8028M8.79028 32.0124L59.1104 35.1871L16.1484 20.8028" stroke="#C52D48" stroke-width="0.411216" stroke-linecap="round" stroke-linejoin="round"/>
<path d="M8.79052 32.0128L11.1776 42.8242L16.1486 20.8032L8.09326 37.2712" stroke="#C52D48" stroke-width="0.411216" stroke-linecap="round" stroke-linejoin="round"/>
<path d="M38.8244 40.1461L59.1105 35.1877L56.2285 17.0342L27.8843 42.1316L59.9062 24.4745L47.1778 44.3135" stroke="#C52D48" stroke-width="0.411216" stroke-linecap="round" stroke-linejoin="round"/>
<path d="M27.8843 42.1313L14.1606 45.0087L23.8074 52.0509" stroke="#C52D48" stroke-width="0.411216" stroke-linecap="round" stroke-linejoin="round"/>
<path d="M11.1776 42.8238L14.1608 45.0084L17.0428 53.0433L20.9228 56.1171L23.8075 52.0505V48.2813L27.8844 42.131L38.8245 40.1455L47.1779 44.3129L59.1106 35.1871L59.9063 24.4739L56.2286 17.0336L42.9999 10.8833L32.459 11.7752L24.7017 15.0508L16.1486 20.8028L8.79052 32.0124L8.09326 37.2708L11.1776 42.8238Z" fill="#C52D48" fill-opacity="0.4" stroke="#C52D48" stroke-width="1.64486" stroke-linecap="round" stroke-linejoin="round"/>
</svg>
