<svg width="67" height="67" viewBox="0 0 67 67" fill="none" xmlns="http://www.w3.org/2000/svg">
<rect width="67" height="67" rx="33.5" fill="#20105C"/>
<path d="M54.166 19.0833C52.2878 14.0315 47.9252 10.4082 40.8735 8.93199M33.1132 8.19775L10.5933 23.3945M33.1132 8.19775C35.9905 8.19775 38.5749 8.4508 40.8735 8.93199M33.1132 8.19775C28.1377 8.19775 24.1154 8.90509 20.9238 10.0964M10.5933 23.3945C10.5933 20.5789 11.4609 17.71 13.4412 15.2345M10.5933 23.3945C10.5933 24.5406 10.7001 25.6128 10.909 26.613M24.6034 37.1944L38.3915 39.1787C43.4515 40.0598 45.1407 41.1592 45.1407 44.1677C45.1407 47.4699 43.0866 48.7953 34.2833 48.7953C24.3099 48.7953 22.0376 46.9616 22.0376 42.4093V41.0877M24.6034 37.1944C17.0609 36.0008 12.1586 32.596 10.909 26.613M24.6034 37.1944L10.909 26.613M22.0376 41.0877L11.3787 45.3277M22.0376 41.0877H16.5374M11.0372 41.0877V41.532C11.0372 42.874 11.152 44.1394 11.3787 45.3277M11.0372 41.0877H16.5374M11.0372 41.0877L19.4266 55.9326M56.1449 43.6594L41.183 29.7843M56.1449 43.6594C56.1449 46.6562 55.2712 49.539 53.3583 51.9732M56.1449 43.6594C56.1449 41.0321 55.5456 38.6162 54.166 36.5409M41.183 29.7843L27.3948 27.5815C23.2866 26.8473 21.6727 25.8194 21.6727 22.9578C21.6727 19.7987 24.0955 18.2587 32.0147 18.2587C41.7736 18.2587 44.1889 20.2392 44.1889 24.9383V25.9662H51.5965M41.183 29.7843C44.4074 30.3008 47.0271 31.1263 49.1195 32.2053M13.4412 15.2345L40.8735 8.93199M13.4412 15.2345C15.1033 13.1567 17.5492 11.356 20.9238 10.0964M13.4412 31.5537L20.9238 10.0964M11.3787 45.3277C11.7579 47.3151 12.45 49.0868 13.4412 50.6408M16.5374 41.0877L13.4412 50.6408M13.4412 50.6408C14.8474 52.8452 16.8556 54.6113 19.4266 55.9326M19.4266 55.9326C23.2058 57.8749 28.2009 58.8562 34.287 58.8562C40.0336 58.8562 44.5099 57.8833 47.8729 56.2549M49.1195 32.2053L53.3583 51.9732M49.1195 32.2053C51.3891 33.3758 53.0383 34.8445 54.166 36.5409M53.3583 51.9732C52.0408 53.6497 50.2304 55.1133 47.8729 56.2549M54.166 36.5409L47.8729 56.2549" stroke="white" stroke-width="1.19774" stroke-miterlimit="10"/>
<path d="M15.3467 33.4266C17.6879 35.2445 20.8561 36.4342 24.7156 37.045L38.5037 39.0293C43.5637 39.9104 45.2529 41.0098 45.2529 44.0183C45.2529 47.3205 43.1988 48.6459 34.3955 48.6459C24.4221 48.6459 22.1498 46.8122 22.1498 42.2599V40.9383H11.1494V41.3826C11.1494 52.8329 19.5088 58.7068 34.3992 58.7068C50.0233 58.7068 56.2571 51.515 56.2571 43.51C56.2571 39.5051 54.8645 35.9912 51.4381 33.4266M51.5036 33.4779C49.1624 31.6601 45.9942 30.4703 42.1348 29.8596L28.3467 27.8752C23.2866 26.9942 21.5974 25.8947 21.5974 22.8862C21.5974 19.584 23.6515 18.2587 32.4549 18.2587C42.4282 18.2587 44.7005 20.0924 44.7005 24.6446V25.9662H55.7009V25.5219C55.7009 14.0716 47.3415 8.19775 32.4511 8.19775C16.8271 8.19775 10.5933 15.3895 10.5933 23.3945C10.5933 27.3995 11.9858 30.9134 15.4122 33.4779" stroke="white" stroke-width="2.39548" stroke-miterlimit="10"/>
</svg>
