<svg width="46" height="471" viewBox="0 0 46 471" fill="none" xmlns="http://www.w3.org/2000/svg">
<path d="M6.82677 456.232L8.36717 451.492L7.27926 430.692L5.944 386.629L6.83417 271.796L6.38909 165.866L6.01229 23.2851L8.36717 6.85357L8.72265 4.48372L12.9884 2.29161L19.5055 1.28442L28.2147 1.52141L35.265 3.2988L37.0423 5.07618L37.2793 7.32754L38.6732 63.204L37.9903 194.351L37.5452 310.519L37.9903 395.531V424.016L37.6348 433.459L37.2793 442.902L41.6635 439.939H43.1447L44.1519 442.131L43.8557 445.153L42.6115 446.575L37.2793 450.248L37.4571 452.677L39.0567 457.595L42.1968 461.979V463.164L41.1303 463.815L34.4948 464.052L28.5109 465.652L26.852 466.896L25.8448 468.437L23.4157 468.97L20.6904 468.437L19.7424 466.482L18.439 465.652L15.0027 465.178L10.8555 463.815H3.03501L2.3833 462.512L3.21275 461.209L6.82677 456.232Z" fill="#621C54"/>
<path d="M8.36717 6.85357L8.72265 4.48372L12.9884 2.29161L19.5055 1.28442L28.2147 1.52141L35.265 3.2988L37.0423 5.07618L37.2793 7.32754M8.36717 6.85357L12.3959 8.63095L21.3421 10.0529L27.6222 9.69739L35.265 7.86075L37.2793 7.32754M8.36717 6.85357L6.01229 23.2851L6.38909 165.866L6.83417 271.796L5.944 386.629L7.27926 430.692L8.36717 451.492L6.82677 456.232L3.21275 461.209L2.3833 462.512L3.03501 463.815H10.8555L15.0027 465.178L18.439 465.652L19.7424 466.482L20.6904 468.437L23.4157 468.97L25.8448 468.437L26.852 466.896L28.5109 465.652L34.4948 464.052L41.1303 463.815L42.1968 463.164V461.979L39.0567 457.595L37.4571 452.677L37.2793 450.248L42.6115 446.575M42.6115 446.575L43.8557 445.153L44.1519 442.131L43.1447 439.939H41.6635M42.6115 446.575L41.3081 444.975L41.1303 441.776L41.6635 439.939M41.6635 439.939L37.2793 442.902L37.6348 433.459L37.9903 424.016V395.531L37.5452 310.519L37.9903 194.351L38.6732 63.204L37.2793 7.32754" stroke="#C52D48" stroke-width="2"/>
<path d="M8.36717 129.786L8.72265 127.416M8.36717 129.786L12.3959 131.563M8.36717 129.786L12.9884 125.224M8.36717 129.786L35.265 130.793M8.36717 129.786L6.38909 166.319M8.36717 129.786L37.9903 395.984M8.36717 451.946L6.82677 456.686M8.36717 451.946L7.95245 445.607M8.36717 451.946L15.0027 465.632M8.36717 451.946L37.9903 395.984M8.36717 451.946L35.265 130.793M8.36717 451.946L37.9903 194.805M6.82677 456.686L3.21275 461.662M6.82677 456.686L3.03501 464.269M6.82677 456.686L25.8448 468.89M3.21275 461.662L2.3833 462.966M3.21275 461.662L15.0027 465.632M3.21275 461.662L37.2793 450.702M2.3833 462.966L3.03501 464.269M2.3833 462.966L10.8555 464.269M3.03501 464.269H10.8555M10.8555 464.269L15.0027 465.632M10.8555 464.269L7.95245 445.607M10.8555 464.269L37.9903 424.47M10.8555 464.269L37.2793 450.702M15.0027 465.632L18.439 466.106M18.439 466.106L19.7424 466.935M18.439 466.106H28.5109M18.439 466.106L7.95245 445.607M18.439 466.106L5.944 387.083M19.7424 466.935L20.6904 468.89M19.7424 466.935L21.5198 468.179M20.6904 468.89L39.0567 458.048M20.6904 468.89L23.2972 469.424M25.8448 468.89L26.852 467.35M25.8448 468.89L23.2972 469.424M26.852 467.35L28.5109 466.106M26.852 467.35L39.0567 458.048M26.852 467.35L23.2972 469.424M26.852 467.35L27.6222 132.629M28.5109 466.106L31.5028 465.306M28.5109 466.106L41.6635 440.393M34.4948 464.506L41.1303 464.269M34.4948 464.506L39.0567 458.048M34.4948 464.506L31.5028 465.306M34.4948 464.506L42.1968 462.433M34.4948 464.506L37.2793 130.26M41.1303 464.269L42.1968 463.618M41.1303 464.269L39.0567 458.048M42.1968 463.618V462.433M42.1968 463.618L39.0567 458.048M42.1968 462.433L39.0567 458.048M39.0567 458.048L37.4571 453.131M37.4571 453.131L37.2793 450.702M37.4571 453.131L31.5028 465.306M37.4571 453.131L23.2972 469.424M37.2793 450.702L42.6115 447.029M37.2793 450.702L41.6635 440.393M37.2793 450.702L7.27926 431.146M42.6115 447.029L43.8557 445.607M42.6115 447.029L41.3081 445.429M42.6115 447.029L37.2793 443.355M42.6115 447.029L44.1519 442.585M42.6115 447.029L43.1447 440.393M43.8557 445.607L44.1519 442.585M43.8557 445.607L41.3081 445.429M43.8557 445.607L43.7809 445.429M44.1519 442.585L43.1447 440.393M44.1519 442.585L41.6635 440.393M44.1519 442.585L41.1303 442.23M43.1447 440.393H41.6635M43.1447 440.393L41.3081 445.429M41.6635 440.393L37.2793 443.355M41.6635 440.393L41.1303 442.23M41.6635 440.393L43.7809 445.429M37.2793 443.355L37.6348 433.913M37.2793 443.355L6.82677 272.25M37.2793 443.355L5.944 387.083M37.2793 443.355L6.38909 166.319M37.0423 128.008L35.265 126.231M37.0423 128.008L37.2793 130.26M37.0423 128.008L12.9884 125.224M35.265 126.231L28.2147 124.453M35.265 126.231L27.6222 132.629M35.265 126.231L19.5055 124.216M28.2147 124.453L19.5055 124.216M28.2147 124.453L21.3421 132.985M28.2147 124.453L27.6222 132.629M19.5055 124.216L12.9884 125.224M19.5055 124.216L37.2793 130.26M19.5055 124.216L27.6222 132.629M19.5055 124.216L21.3421 132.985M12.9884 125.224L8.72265 127.416M12.9884 125.224L12.3959 131.563M8.72265 127.416L21.3421 132.985M12.3959 131.563L21.3421 132.985M12.3959 131.563L37.4571 310.973M12.3959 131.563L37.9903 194.805M12.3959 131.563L6.38909 166.319M12.3959 131.563L6.82677 272.25M21.3421 132.985L27.6222 132.629M21.3421 132.985L5.944 387.083M21.3421 132.985L6.38909 166.319M21.3421 132.985L23.2972 469.424M27.6222 132.629L35.265 130.793M27.6222 132.629L6.82677 272.25M27.6222 132.629L37.4571 310.973M35.265 130.793L37.2793 130.26M35.265 130.793L5.944 387.083M35.265 130.793L6.38909 166.319M37.2793 130.26L37.9903 194.805M37.2793 130.26L6.82677 272.25M41.1303 442.23L41.3081 445.429M41.1303 442.23L43.7809 445.429M31.5028 465.306L5.944 387.083M23.2972 469.424L21.5198 468.179M7.95245 445.607L7.27926 431.146M7.95245 445.607L37.6348 433.913M7.95245 445.607L37.4571 310.973M7.27926 431.146L5.944 387.083M7.27926 431.146L37.9903 194.805M37.9903 424.47L37.6348 433.913M37.9903 424.47V395.984M37.6348 433.913L5.944 387.083M5.944 387.083L6.82677 272.25M5.944 387.083L37.4571 310.973M5.944 387.083L37.9903 395.984M6.82677 272.25L6.38909 166.319M6.82677 272.25L37.9903 395.984M6.82677 272.25L37.4571 310.973M6.38909 166.319L37.9903 194.805M6.38909 166.319L21.5198 468.179M6.38909 166.319L37.4571 310.973M37.9903 395.984L37.4571 310.973M37.4571 310.973L37.9903 194.805" stroke="#C52D48" stroke-width="0.5"/>
<path d="M6.55268 129.786L6.90815 127.416L12.9884 125.224L19.5055 124.216L28.2147 124.453L35.265 126.231L37.9496 128.008L38.1866 130.26M6.55268 129.786L12.3959 131.563L21.3421 132.985L27.6222 132.629L35.265 130.793L38.1866 130.26M6.55268 129.786L6.38909 165.866L6.83417 271.796L5.944 386.629L7.27926 430.693L8.36717 451.492L6.82677 456.232L3.21275 461.209L2.3833 462.512L3.03501 463.816H10.8555L15.0027 465.178L18.439 465.652L19.7424 466.482L20.6904 468.437L23.4157 468.97L25.8448 468.437L26.852 466.896L28.5109 465.652L34.4948 464.053L41.1303 463.816L42.1968 463.164V461.979L39.0567 457.595L37.4571 452.677L37.2793 450.248L42.6115 446.575M42.6115 446.575L43.8557 445.153L44.1519 442.131L43.1447 439.939H41.6635M42.6115 446.575L41.3081 444.975L41.1303 441.776L41.6635 439.939M41.6635 439.939L37.2793 442.902L37.6348 433.459L37.9903 424.016V395.531L37.5452 310.519L37.9903 194.351L38.1866 130.26" stroke="#C52D48" stroke-width="2"/>
</svg>
