<svg width="49" height="74" viewBox="0 0 49 74" fill="none" xmlns="http://www.w3.org/2000/svg">
<path fill-rule="evenodd" clip-rule="evenodd" d="M30.7993 0L36.1923 2.33652L39.9065 8.52102L39.3777 13.6142L38.3449 15.3323L40.3436 15.5075L44.4121 19.2839L45.811 23.1225L45.0487 28.254L44.2366 32.1215L43.2222 32.9714L44.7248 33.6515L47.8679 36.4736L48.0586 42.534L46.3235 48.6712L39.2672 53.3493L31.8554 51.588L31.4725 59.9507L32.7098 65.0682L35.1485 68.2154L32.2607 72.8021L26.97 70.747L22.9263 73.2L18.8896 70.4258L22.0892 66.028L22.4122 51.4546L18.3332 53.7941L10.6698 52.4004L6.89228 48.4424L6.52165 45.801L3.46878 44.908L1.23206 40.8554L-1.52588e-05 33.3197L3.28917 27.8541L6.57256 25.5311L8.05556 25.4238L7.12844 22.1976L9.38671 17.2586L13.372 14.823L16.3593 14.4442L15.4871 12.9878L17.6383 5.93798L22.5556 0.936138L30.7993 0ZM30.0417 53.027L30.1207 51.303L24.1717 50.8653L24.1708 50.9067L28.2631 61.2975L30.0417 53.027ZM31.7965 70.2692L33.0251 68.3178L31.0988 65.832L29.7171 60.1169L29.8002 58.3008L28.8405 62.7636L31.7965 70.2692ZM27.4812 69.0843L30.9183 70.4194L28.5094 64.303L27.4812 69.0843ZM24.1209 53.1599L23.8228 66.6055L21.3479 70.0072L22.9857 71.1327L26.6224 68.9266L27.932 62.837L24.1209 53.1599ZM30.7784 1.88203L30.5312 1.77497L25.4221 2.35515L31.1241 4.82712L32.2674 4.2389L30.7784 1.88203ZM34.0735 3.30963L32.1972 2.49674L33.0451 3.83876L34.0735 3.30963ZM37.2504 7.48301L35.0336 3.79175L33.5105 4.57541L34.6296 6.34684L37.2504 7.48301ZM37.8481 11.4412L38.1104 8.91496L38.0182 8.76153L35.4524 7.64919L37.8481 11.4412ZM36.9021 16.9459L35.4198 16.816L37.6805 13.0552L37.7026 12.842L34.0332 7.03394L31.1562 5.7867L17.434 12.847L19.2198 15.8288L17.2362 16.0803L12.4875 19.5585L9.92212 25.6009L10.3235 26.9977L7.18779 27.2244L6.44922 31.8884L15.2932 47.0718L22.6918 49.2926L23.1154 49.0496L24.387 49.1432L33.0066 46.432L40.7497 33.7571L39.9886 33.4126L41.098 32.4831L40.0988 22.2083L36.9021 16.9459ZM39.6119 17.2012L39.5906 17.1815L37.9789 17.0402L39.9045 20.2102L39.6119 17.2012ZM43.5799 26.2608L44.0195 23.3015L42.913 20.2654L40.576 18.0961L40.9487 21.9293L43.5799 26.2608ZM41.9089 31.8036L42.6502 31.1825L43.3289 27.9505L43.3796 27.6092L41.143 23.9274L41.9089 31.8036ZM43.5972 35.0461L41.5495 34.1191L34.2704 46.0345L41.0754 43.8941L43.5972 35.0461ZM46.3028 42.2499L46.1459 37.2646L44.3355 35.6391L42.072 43.5806L46.3028 42.2499ZM40.025 50.7626L44.8169 47.5858L46.0455 43.2399L41.7874 44.5792L40.025 50.7626ZM31.9524 49.8288L38.9125 51.4828L40.7908 44.8927L33.583 47.1598L31.9524 49.8288ZM26.7293 49.3155L31.0508 49.6335L32.3191 47.5573L26.7293 49.3155ZM18.1156 51.9172L21.6555 49.8869L15.9323 48.169L18.1156 51.9172ZM8.29511 45.8766L8.54443 47.6534L11.5452 50.7975L17.0367 51.7962L14.7102 47.8022L8.29511 45.8766ZM7.30935 44.2246L8.09557 44.4546L8.16249 44.9314L14.0711 46.705L6.23367 33.2496L5.12496 40.2509L7.30935 44.2246ZM4.62652 43.3984L4.65369 43.4477L6.12425 43.8779L4.90254 41.6554L4.62652 43.3984ZM2.38206 37.0703L2.90745 40.2838L3.93982 42.1543L4.21646 40.4073L2.38206 37.0703ZM4.18876 29.7389L1.82545 33.666L1.96104 34.4953L4.43888 39.0028L5.53884 32.0567L4.18876 29.7389ZM6.1926 27.9283L4.74085 28.9554L5.7544 30.6955L6.1926 27.9283ZM9.12718 22.0198L8.98338 22.3343L9.53971 24.2702L11.1125 20.5656L9.12718 22.0198ZM12.4463 17.4241L10.7562 18.457L9.86757 20.4005L11.7761 19.0026L12.4463 17.4241ZM15.458 16.3058L13.9667 16.4949L13.7256 16.6423L13.1511 17.9955L15.458 16.3058ZM23.6935 2.55144L23.3712 2.58804L19.1857 6.84557L17.6929 11.7377L30.1266 5.34034L23.6935 2.55144ZM32.7328 4.97554L33.2104 5.73159L32.1537 5.27348L32.7328 4.97554Z" fill="#C52D48"/>
</svg>
