<svg width="536" height="838" viewBox="0 0 536 838" fill="none" xmlns="http://www.w3.org/2000/svg">
<path d="M305.001 563.067L315.505 567.044L314.827 650.32L313.487 699.96L329.985 684.388H335.557L339.35 695.91L338.237 711.796L333.552 719.267L313.487 738.579L314.157 751.351L320.177 777.197L331.995 800.249V806.477L327.98 809.902L303.009 811.149L291.752 815.354L280.495 819.556L274.249 826.099L270.456 834.196L261.317 836.999L261.091 836.935L260.987 836.909L260.939 836.896L260.861 836.874L260.7 836.831L251.065 834.196L247.494 823.917L242.592 819.556L229.66 817.067L214.054 809.902H184.624L182.171 803.048L185.294 796.198L198.895 770.037L204.689 745.118L203.476 712.745L203.393 710.468L203.323 708.708L200.596 640.093L202.74 537.147L210.722 534.758L211.444 534.542L214.719 533.563L227.055 520.95L228.129 519.85L234.171 525.816L239.552 531.134L248.264 539.74L251.291 542.729L252.161 543.057L257.311 545.007L264.545 547.746L271.665 550.442L283.366 554.876L292.674 558.4L303.313 562.429" fill="#D01216" fill-opacity="0.4"/>
<path d="M204.701 745.013L198.908 769.932M204.701 745.013L203.144 711.691M204.701 745.013L219.873 788.73L220.225 789.748L229.673 816.962M198.908 769.932L185.306 796.093M198.908 769.932L188.934 797.801L186.742 803.922L184.641 809.797M198.908 769.932L219.877 788.73L220.399 789.2L228.311 796.292L230.891 798.604L236.971 804.052L246.241 812.364L247.68 813.654L254.144 819.451L259.564 824.308L265.444 829.579L267.554 831.468L270.477 834.091M185.311 796.093L182.188 802.943M185.311 796.093L188.938 797.801L214.118 809.642L229.677 816.962M184.641 809.797L182.188 802.943M182.188 802.943L186.746 803.922L214.07 809.797M214.07 809.797H184.641M229.677 816.962L214.07 809.797M242.609 819.451L229.677 816.962M247.511 823.812L242.609 819.451M242.609 819.451H280.511M242.609 819.451L236.971 804.052L231.517 789.153L227.032 776.916L225.484 772.675L209.808 729.868L203.496 712.64L203.148 711.691M251.082 834.091L247.511 823.812M247.511 823.812L260.716 836.726L260.89 836.895M260.89 836.895L251.082 834.091M274.265 825.994L270.472 834.091M270.472 834.091L261.103 836.83L260.886 836.895M280.507 819.451L274.265 825.994M274.265 825.994L270.259 829.26L267.55 831.468L260.999 836.804L260.886 836.895M291.764 815.25L280.507 819.451M327.992 809.797L303.021 811.044M320.189 777.092L303.021 811.044M303.021 811.044L291.764 815.25M303.021 811.044L326.209 802.322L332.003 800.144M327.988 809.797L332.003 806.372V800.144M327.988 809.797L326.205 802.322L320.185 777.092M332.003 800.144L320.185 777.092M320.185 777.092L314.165 751.246M314.165 751.246L313.499 738.474M314.165 751.246L303.356 768.625L293.047 785.193L287.593 793.967L281.938 803.055L271.738 819.451L269.946 822.337L265.44 829.579L260.955 836.791L260.89 836.895M333.569 719.162L313.504 738.474M338.253 711.691L333.569 719.162M333.569 719.162L328.667 710.755M338.253 711.691L335.491 711.42L328.667 710.755M338.253 711.691L337.97 710.755M314.843 650.215L315.522 566.935M203.148 711.691L200.613 639.984M328.667 710.755L327.997 693.937M203.148 711.691L203.409 710.363L217.802 641.563L223.527 612.494L232.13 568.798L237.393 542.072L239.568 531.025M200.613 639.984L211.013 538.768L211.461 534.433M203.148 711.691L203.34 708.603L212.739 564.895L214.736 533.454M260.89 836.895L260.877 836.77L259.564 824.308L259.05 819.451L249.12 725.413L246.789 703.332L240.877 647.351L240.09 644.19L232.13 568.798L227.072 520.841M291.768 815.25L288.38 797.957L287.597 793.967L284.235 776.799L263.074 668.807L260.864 657.535L251.051 611.769L251.03 611.679L245.414 583.007L237.393 542.072L234.188 525.707M314.843 650.215L313.504 699.855M330.002 684.283L327.997 693.937M330.002 684.283L313.504 699.855M335.574 684.283H330.002M339.367 695.805L327.997 693.937M339.367 695.805L330.002 684.283M339.367 695.805L335.574 684.283M339.367 695.805L338.253 711.691M333.569 719.162L335.491 711.42L339.367 695.805M313.504 699.855L321.485 707.537L322.599 708.607L333.569 719.162M330.002 684.283L322.599 708.607L313.504 738.474M305.017 562.958L304.552 621.906L304.469 632.483L303.456 756.789L303.36 768.625L303.025 811.044M330.002 684.283L321.485 707.537L303.456 756.789L293.052 785.193L288.38 797.957L280.511 819.451M303.33 562.32L299.524 605.95L298.345 619.456L284.235 776.799L281.938 803.055L280.511 819.451M257.328 544.897L259.229 587.321L262.352 652.7L263.074 668.807L269.82 819.451L269.946 822.337L270.259 829.26L270.472 834.091M248.281 539.631L245.414 583.007L241.686 639.449L240.877 647.351L236.036 720.659L234.553 743.158L231.513 789.153L230.891 798.604L229.677 816.962M200.613 639.984L202.757 537.038M229.677 816.962L228.311 796.292L227.032 776.916L226.528 769.272L221.604 694.8L217.802 641.563L212.739 564.895L211.013 538.768L210.739 534.649" stroke="#D01216" stroke-width="1.89926"/>
<path d="M251.288 542.726L228.126 519.847L214.716 533.56L140.136 555.882L54.3394 541.484L15.5709 499.19L2 412.683L60.2201 336.576L107.853 225.042L97.2705 91.1987L253.406 3.28549L332.796 11.1576L443.943 134.502L457.174 234.225L519.366 352.324L533.919 457.297L408.806 564.099L327.724 571.67L251.288 542.726Z" stroke="#D01216" stroke-width="2.25537"/>
<path d="M457.181 234.229L408.813 564.103L228.133 519.851L533.927 457.301L457.181 234.229Z" stroke="#D01216" stroke-width="2.25537"/>
<path d="M107.853 225.043L54.3394 541.485L2 412.685L140.136 555.884L15.5709 499.192L228.126 519.849L140.136 555.884L60.2201 336.577L533.919 457.299L107.853 225.043Z" stroke="#D01216" stroke-width="2.25537"/>
<path d="M253.401 3.28549L107.848 225.042L332.791 11.1576L97.2656 91.1987L443.938 134.502L253.401 3.28549Z" stroke="#D01216" stroke-width="2.25537"/>
<path d="M457.181 234.225L253.413 3.28549L228.133 519.847L457.181 234.225Z" stroke="#D01216" stroke-width="2.25537"/>
<path d="M107.846 225.043L457.167 234.227" stroke="#D01216" stroke-width="2.25537"/>
<path opacity="0.4" d="M252.447 542.44L229.285 519.562L215.875 533.274L141.296 555.597L55.4986 541.198L16.7301 498.904L3.15918 412.397L61.3793 336.29L109.012 224.756L98.4297 90.9132L254.565 3L333.955 10.8721L445.102 134.216L458.333 233.94L520.525 352.039L535.079 457.012L409.965 563.814L328.883 571.384L252.447 542.44Z" fill="#D01216"/>
</svg>
