<svg width="46" height="471" viewBox="0 0 46 471" fill="none" xmlns="http://www.w3.org/2000/svg">
<path d="M6.41002 456.232L7.95042 451.492L6.86251 430.692L5.52725 386.629L6.41742 271.796L5.97233 165.866L5.59554 23.2851L7.95042 6.85357L8.30589 4.48372L12.5716 2.29161L19.0887 1.28442L27.7979 1.52141L34.8482 3.2988L36.6256 5.07618L36.8626 7.32754L38.2564 63.204L37.5735 194.351L37.1284 310.519L37.5735 395.531V424.016L37.218 433.459L36.8626 442.902L41.2468 439.939H42.7279L43.7351 442.131L43.4389 445.153L42.1947 446.575L36.8626 450.248L37.0403 452.677L38.6399 457.595L41.78 461.979V463.164L40.7136 463.815L34.078 464.052L28.0941 465.652L26.4352 466.896L25.428 468.437L22.9989 468.97L20.2736 468.437L19.3257 466.482L18.0223 465.652L14.586 465.178L10.4388 463.815H2.61826L1.96655 462.512L2.796 461.209L6.41002 456.232Z" fill="#C52D48" fill-opacity="0.4"/>
<path d="M7.95042 6.85357L8.30589 4.48372L12.5716 2.29161L19.0887 1.28442L27.7979 1.52141L34.8482 3.2988L36.6256 5.07618L36.8626 7.32754M7.95042 6.85357L11.9792 8.63095L20.9253 10.0529L27.2054 9.69739L34.8482 7.86075L36.8626 7.32754M7.95042 6.85357L5.59554 23.2851L5.97233 165.866L6.41742 271.796L5.52725 386.629L6.86251 430.692L7.95042 451.492L6.41002 456.232L2.796 461.209L1.96655 462.512L2.61826 463.815H10.4388L14.586 465.178L18.0223 465.652L19.3257 466.482L20.2736 468.437L22.9989 468.97L25.428 468.437L26.4352 466.896L28.0941 465.652L34.078 464.052L40.7136 463.815L41.78 463.164V461.979L38.6399 457.595L37.0403 452.677L36.8626 450.248L42.1947 446.575M42.1947 446.575L43.4389 445.153L43.7351 442.131L42.7279 439.939H41.2468M42.1947 446.575L40.8913 444.975L40.7136 441.776L41.2468 439.939M41.2468 439.939L36.8626 442.902L37.218 433.459L37.5735 424.016V395.531L37.1284 310.519L37.5735 194.351L38.2564 63.204L36.8626 7.32754" stroke="#C52D48" stroke-width="2"/>
<path d="M6.95042 414.661L7.30589 412.291M6.95042 414.661L11.9792 416.438M6.95042 414.661L19.3257 465.826M6.95042 414.661L12.5716 410.099M6.95042 414.661L34.8482 411.106M6.95042 414.661L6.86251 430.036M6.95042 414.661L36.8626 442.246M6.95042 414.661L36.8626 449.592M7.95042 450.836L6.41002 455.576M7.95042 450.836L34.8482 415.668M7.95042 450.836L7.53569 444.497M7.95042 450.836L14.586 464.522M6.41002 455.576L2.796 460.553M6.41002 455.576L2.61826 463.159M6.41002 455.576L25.428 467.781M2.796 460.553L1.96655 461.856M2.796 460.553L14.586 464.522M1.96655 461.856L2.61826 463.159M1.96655 461.856L10.4388 463.159M2.61826 463.159H10.4388M10.4388 463.159L14.586 464.522M10.4388 463.159L37.5735 423.36M14.586 464.522L18.0223 464.996M14.586 464.522L27.2054 417.505M14.586 464.522L20.9253 417.86M18.0223 464.996L19.3257 465.826M18.0223 464.996H28.0941M18.0223 464.996L7.53569 444.497M19.3257 465.826L20.2736 467.781M19.3257 465.826L22.8805 468.314M20.2736 467.781L27.2054 417.505M20.2736 467.781L22.8805 468.314M25.428 467.781L26.4352 466.24M25.428 467.781L20.9253 417.86M25.428 467.781L22.8805 468.314M26.4352 466.24L28.0941 464.996M26.4352 466.24L27.2054 417.505M26.4352 466.24L38.6399 456.939M26.4352 466.24L22.8805 468.314M28.0941 464.996L31.0861 464.196M28.0941 464.996L36.8626 415.135M34.078 463.396L40.7136 463.159M34.078 463.396L38.6399 456.939M34.078 463.396L31.0861 464.196M34.078 463.396L34.8482 415.668M34.078 463.396L41.78 461.323M40.7136 463.159L41.78 462.508V461.323M40.7136 463.159L38.6399 456.939M41.78 461.323L38.6399 456.939M38.6399 456.939L37.0403 452.021M37.0403 452.021L36.8626 449.592M37.0403 452.021L31.0861 464.196M37.0403 452.021L22.8805 468.314M36.8626 449.592L42.1947 445.919M36.8626 449.592L41.2468 439.283M36.8626 449.592L27.2054 417.505M42.1947 445.919L43.4389 444.497M42.1947 445.919L40.8913 444.319M42.1947 445.919L36.8626 442.246M42.1947 445.919L43.7351 441.475M42.1947 445.919L42.7279 439.283M43.4389 444.497L43.7351 441.475M43.4389 444.497L40.8913 444.319M43.4389 444.497L43.3641 444.319M43.7351 441.475L42.7279 439.283M43.7351 441.475L41.2468 439.283M43.7351 441.475L40.7136 441.12M42.7279 439.283H41.2468M42.7279 439.283L40.8913 444.319M41.2468 439.283L36.8626 442.246M41.2468 439.283L40.7136 441.12M41.2468 439.283L43.3641 444.319M36.8626 442.246L37.218 432.803M36.6256 412.883L34.8482 411.106M36.6256 412.883L36.8626 415.135M36.6256 412.883L12.5716 410.099M34.8482 411.106L27.7979 409.329M27.7979 409.329L19.0887 409.092M27.7979 409.329L20.9253 417.86M27.7979 409.329L27.2054 417.505M19.0887 409.092L12.5716 410.099M19.0887 409.092L34.8482 415.668M19.0887 409.092L27.2054 417.505M19.0887 409.092L20.9253 417.86M12.5716 410.099L7.30589 412.291M12.5716 410.099L11.9792 416.438M7.30589 412.291L20.9253 417.86M11.9792 416.438L20.9253 417.86M11.9792 416.438L31.0861 464.196M11.9792 416.438L22.8805 468.314M11.9792 416.438L7.53569 444.497M11.9792 416.438L6.86251 430.036M11.9792 416.438L37.218 432.803M20.9253 417.86L27.2054 417.505M20.9253 417.86L7.53569 444.497M20.9253 417.86L37.218 432.803M27.2054 417.505L34.8482 415.668M27.2054 417.505L6.86251 430.036M27.2054 417.505L37.5735 423.36M34.8482 415.668L36.8626 415.135M34.8482 415.668L37.5735 423.36M36.8626 415.135L37.5735 423.36M40.7136 441.12L40.8913 444.319M40.7136 441.12L43.3641 444.319M7.53569 444.497L6.86251 430.036M37.5735 423.36L37.218 432.803" stroke="#C52D48" stroke-width="0.5"/>
<path d="M6.58955 414.661L6.94502 412.291L12.5716 410.099L19.0887 409.092L27.7979 409.329L34.8482 411.106L37.0792 412.883L37.3162 415.135M6.58955 414.661L11.9792 416.438L20.9253 417.86L27.2054 417.505L34.8482 415.668L37.3162 415.135M6.58955 414.661L6.86251 430.036L7.95042 450.836L6.41002 455.576L2.796 460.553L1.96655 461.856L2.61826 463.159H10.4388L14.586 464.522L18.0223 464.996L19.3257 465.826L20.2736 467.781L22.9989 468.314L25.428 467.781L26.4352 466.24L28.0941 464.996L34.078 463.396L40.7136 463.159L41.78 462.508V461.323L38.6399 456.939L37.0403 452.021L36.8626 449.592L42.1947 445.919M42.1947 445.919L43.4389 444.497L43.7351 441.475L42.7279 439.283H41.2468M42.1947 445.919L40.8913 444.319L40.7136 441.12L41.2468 439.283M41.2468 439.283L36.8626 442.246L37.218 432.803L37.5735 423.36L37.3162 415.135" stroke="#C52D48" stroke-width="2"/>
</svg>
