<svg width="46" height="471" viewBox="0 0 46 471" fill="none" xmlns="http://www.w3.org/2000/svg">
<path d="M6.82677 456.232L8.36717 451.492L7.27926 430.692L5.944 386.629L6.83417 271.796L6.38909 165.866L6.01229 23.2851L8.36717 6.85357L8.72265 4.48372L12.9884 2.29161L19.5055 1.28442L28.2147 1.52141L35.265 3.2988L37.0423 5.07618L37.2793 7.32754L38.6732 63.204L37.9903 194.351L37.5452 310.519L37.9903 395.531V424.016L37.6348 433.459L37.2793 442.902L41.6635 439.939H43.1447L44.1519 442.131L43.8557 445.153L42.6115 446.575L37.2793 450.248L37.4571 452.677L39.0567 457.595L42.1968 461.979V463.164L41.1303 463.815L34.4948 464.052L28.5109 465.652L26.852 466.896L25.8448 468.437L23.4157 468.97L20.6904 468.437L19.7424 466.482L18.439 465.652L15.0027 465.178L10.8555 463.815H3.03501L2.3833 462.512L3.21275 461.209L6.82677 456.232Z" fill="#C52D48" fill-opacity="0.4"/>
<path d="M8.36717 6.85357L8.72265 4.48372L12.9884 2.29161L19.5055 1.28442L28.2147 1.52141L35.265 3.2988L37.0423 5.07618L37.2793 7.32754M8.36717 6.85357L12.3959 8.63095L21.3421 10.0529L27.6222 9.69739L35.265 7.86075L37.2793 7.32754M8.36717 6.85357L6.01229 23.2851L6.38909 165.866L6.83417 271.796L5.944 386.629L7.27926 430.692L8.36717 451.492L6.82677 456.232L3.21275 461.209L2.3833 462.512L3.03501 463.815H10.8555L15.0027 465.178L18.439 465.652L19.7424 466.482L20.6904 468.437L23.4157 468.97L25.8448 468.437L26.852 466.896L28.5109 465.652L34.4948 464.052L41.1303 463.815L42.1968 463.164V461.979L39.0567 457.595L37.4571 452.677L37.2793 450.248L42.6115 446.575M42.6115 446.575L43.8557 445.153L44.1519 442.131L43.1447 439.939H41.6635M42.6115 446.575L41.3081 444.975L41.1303 441.776L41.6635 439.939M41.6635 439.939L37.2793 442.902L37.6348 433.459L37.9903 424.016V395.531L37.5452 310.519L37.9903 194.351L38.6732 63.204L37.2793 7.32754" stroke="#C52D48" stroke-width="2"/>
</svg>
