<svg width="45" height="471" viewBox="0 0 45 471" fill="none" xmlns="http://www.w3.org/2000/svg">
<path d="M6.57677 456.043L8.11717 451.304L7.02926 430.504L5.694 386.44L6.58417 271.608L6.13909 165.677L5.76229 23.0965L8.11717 6.66497L8.47265 4.29512L12.7384 2.10301L19.2555 1.09583L27.9646 1.33281L35.0149 3.1102L36.7923 4.88758L37.0293 7.13894L38.4231 63.0154L37.7403 194.162L37.2952 310.33L37.7403 395.342V423.827L37.3848 433.27L37.0293 442.713L41.4135 439.751H42.8947L43.9019 441.943L43.6057 444.964L42.3615 446.386L37.0293 450.06L37.2071 452.489L38.8067 457.406L41.9468 461.79V462.975L40.8803 463.627L34.2447 463.864L28.2609 465.464L26.602 466.708L25.5948 468.248L23.1657 468.781L20.4404 468.248L19.4924 466.293L18.189 465.464L14.7527 464.99L10.6055 463.627H2.78501L2.1333 462.323L2.96275 461.02L6.57677 456.043Z" fill="#C52D48" fill-opacity="0.4"/>
<path d="M8.11717 6.66497L8.47265 4.29512L12.7384 2.10301L19.2555 1.09583L27.9646 1.33281L35.0149 3.1102L36.7923 4.88758L37.0293 7.13894M8.11717 6.66497L12.1459 8.44236L21.0921 9.86427L27.3722 9.50879L35.0149 7.67216L37.0293 7.13894M8.11717 6.66497L5.76229 23.0966L6.13909 165.677L6.58417 271.608L5.694 386.44L7.02926 430.504L8.11717 451.304L6.57677 456.043L2.96275 461.02L2.1333 462.323L2.78501 463.627H10.6055L14.7527 464.99L18.189 465.464L19.4924 466.293L20.4404 468.248L23.1657 468.781L25.5948 468.248L26.602 466.708L28.2609 465.464L34.2447 463.864L40.8803 463.627L41.9468 462.975V461.79L38.8067 457.406L37.2071 452.489L37.0293 450.06L42.3615 446.386M42.3615 446.386L43.6057 444.964L43.9019 441.943L42.8947 439.751H41.4135M42.3615 446.386L41.0581 444.787L40.8803 441.587L41.4135 439.751M41.4135 439.751L37.0293 442.713L37.3848 433.27L37.7403 423.827V395.342L37.2952 310.33L37.7403 194.162L38.4232 63.0154L37.0293 7.13894" stroke="#C52D48" stroke-width="2"/>
<path d="M8.17845 428.988L8.53392 426.618M8.17845 428.988L12.2072 430.766M8.17845 428.988L14.814 465.214M8.17845 428.988L7.76372 445.189M8.17845 428.988L12.7997 424.426M8.17845 428.988L35.0762 429.995M8.17845 451.528L6.63805 456.268M8.17845 451.528L35.0762 429.995M8.17845 451.528L7.76372 445.189M8.17845 451.528L14.814 465.214M6.63805 456.268L3.02403 461.244M6.63805 456.268L2.84629 463.851M3.02403 461.244L2.19458 462.548M3.02403 461.244L14.814 465.214M2.19458 462.548L2.84629 463.851M2.19458 462.548L10.6668 463.851M2.84629 463.851H10.6668M10.6668 463.851L14.814 465.214M10.6668 463.851L12.2072 430.766M10.6668 463.851L21.1534 432.188M10.6668 463.851L7.76372 445.189M14.814 465.214L18.2503 465.688M14.814 465.214L27.4335 431.832M18.2503 465.688L19.5537 466.517M18.2503 465.688L35.0762 429.995M18.2503 465.688H28.3222M18.2503 465.688L7.76372 445.189M19.5537 466.517L20.5017 468.473M19.5537 466.517L21.1534 432.188M19.5537 466.517L23.1085 469.006M20.5017 468.473L27.4335 431.832M20.5017 468.473L38.868 457.63M20.5017 468.473L23.1085 469.006M25.6561 468.473L26.6633 466.932M25.6561 468.473L21.1534 432.188M25.6561 468.473L23.1085 469.006M26.6633 466.932L28.3222 465.688M26.6633 466.932L27.4335 431.832M26.6633 466.932L35.0762 429.995M28.3222 465.688L31.3141 464.888M28.3222 465.688L21.1534 432.188M28.3222 465.688L41.4748 439.975M34.306 464.088L40.9416 463.851M34.306 464.088L38.868 457.63M34.306 464.088L31.3141 464.888M34.306 464.088L37.0906 442.937M34.306 464.088L42.008 462.015M34.306 464.088L21.1534 432.188M40.9416 463.851L42.008 463.2M40.9416 463.851L38.868 457.63M42.008 463.2V462.015M42.008 463.2L27.4335 431.832M42.008 462.015L38.868 457.63M38.868 457.63L37.2683 452.713L37.0906 450.284M37.0906 450.284L42.4228 446.611M37.0906 450.284L41.4748 439.975M37.0906 450.284L27.4335 431.832M42.4228 446.611L43.6669 445.189M42.4228 446.611L41.1193 445.011M42.4228 446.611L37.0906 442.937M42.4228 446.611L21.1534 432.188M42.4228 446.611L40.9416 441.812M42.4228 446.611L42.956 439.975M43.6669 445.189L43.9632 442.167M43.6669 445.189L41.1193 445.011M43.9632 442.167L42.956 439.975M43.9632 442.167L41.4748 439.975M43.9632 442.167L41.1193 445.011M43.9632 442.167L40.9416 441.812M42.956 439.975H41.4748M42.956 439.975L40.9416 441.812M41.4748 439.975L37.0906 442.937M41.4748 439.975L40.9416 441.812M37.0906 442.937V429.462M37.0906 442.937L21.1534 432.188M36.8536 427.211L35.0762 425.433M36.8536 427.211L37.0906 429.462M36.8536 427.211L12.7997 424.426M35.0762 425.433L28.0259 423.656M35.0762 425.433L27.4335 431.832M35.0762 425.433L19.3167 423.419M28.0259 423.656L19.3167 423.419M28.0259 423.656L21.1534 432.188M28.0259 423.656L27.4335 431.832M28.0259 423.656L8.53392 426.618M19.3167 423.419L12.7997 424.426M19.3167 423.419L37.0906 429.462M19.3167 423.419L12.2072 430.766M19.3167 423.419L21.1534 432.188M12.7997 424.426L8.53392 426.618M12.7997 424.426L12.2072 430.766M12.7997 424.426L21.1534 432.188M8.53392 426.618L21.1534 432.188M12.2072 430.766L21.1534 432.188M12.2072 430.766L31.3141 464.888M12.2072 430.766L23.1085 469.006M12.2072 430.766L7.76372 445.189M21.1534 432.188L27.4335 431.832M21.1534 432.188L7.76372 445.189M27.4335 431.832L35.0762 429.995M35.0762 429.995L37.0906 429.462M40.9416 441.812L41.1193 445.011" stroke="#C52D48" stroke-width="0.5"/>
<path d="M7.27132 428.988L8.17857 451.528L6.63817 456.268L3.02415 461.244L2.1947 462.548L2.84641 463.851H10.6669L14.8141 465.214L18.2504 465.688L19.5538 466.517L20.5018 468.473L23.2271 469.006L25.6562 468.473L26.6634 466.932L28.3223 465.688L34.3061 464.088L40.9417 463.851L42.0082 463.2V462.015L38.8681 457.63L37.2685 452.713L37.0907 450.284L42.4229 446.611M7.27132 428.988L7.6268 426.618L12.7998 424.426L19.3169 423.419L28.0261 423.656L35.0763 425.433L37.3074 427.211L37.5443 429.462M7.27132 428.988L12.2073 430.766L21.1535 432.188L27.4336 431.832L35.0763 429.995L37.5443 429.462M42.4229 446.611L43.6671 445.189L43.9633 442.167L42.9561 439.975H41.4749M42.4229 446.611L41.1195 445.011L40.9417 441.812L41.4749 439.975M41.4749 439.975L37.0907 442.937L37.5443 429.462" stroke="#C52D48" stroke-width="2"/>
</svg>
