<svg width="221" height="357" viewBox="0 0 221 357" fill="none" xmlns="http://www.w3.org/2000/svg">
<path d="M35.88 87.425L26.5786 74.0543L24.6409 44.0188L35.6862 17.0838L60.2959 3.51939L88.1998 1.77539L111.453 11.2705L120.173 37.6242L118.235 69.985L101.958 87.425M35.88 87.425L41.4995 95.3698L68.047 102.54L96.3385 93.6258L101.958 87.425M35.88 87.425L16.1147 102.54L1.77515 130.25V185.864L8.36357 215.124L24.0595 250.779L39.9493 255.236M101.958 87.425L123.661 107.965L133.931 131.412L139.938 157.572L169.393 161.254L185.088 165.13L188.576 175.594L184.507 193.615L166.098 198.459H140.326L125.54 195.165M39.3679 144.395L38.3991 163.579L41.6933 190.708L49.2506 214.737L54.095 239.734L44.2124 256.399L39.9493 255.236M39.9493 255.236L45.7626 280.621L45.1813 317.245L49.0568 340.111L56.2266 353.869L76.1856 353.481L85.8745 341.855M85.8745 341.855L89.75 311.819L93.6256 273.257V239.734M85.8745 341.855L99.8265 355.031L123.855 350.381L133.737 293.216L132.769 246.904L128.312 210.667L125.54 195.165M106.802 120.948L116.104 148.271L123.08 181.407L125.54 195.165" stroke="white" stroke-width="3"/>
<path d="M35.88 87.425L26.5786 74.0543M35.88 87.425L41.4995 95.3698M35.88 87.425L16.1147 102.54M26.5786 74.0543L24.6409 44.0188M26.5786 74.0543L118.235 69.985M26.5786 74.0543L120.173 37.6242M26.5786 74.0543L35.6862 17.0838M26.5786 74.0543L60.2959 3.51939M26.5786 74.0543L68.047 102.54M24.6409 44.0188L35.6862 17.0838M24.6409 44.0188L118.235 69.985M24.6409 44.0188L111.453 11.2705M24.6409 44.0188L120.173 37.6242M24.6409 44.0188L60.2959 3.51939M24.6409 44.0188L96.3385 93.6258M24.6409 44.0188L41.4995 95.3698M35.6862 17.0838L60.2959 3.51939M35.6862 17.0838L68.047 102.54M35.6862 17.0838L111.453 11.2705M60.2959 3.51939L88.1998 1.77539M60.2959 3.51939L41.4995 95.3698M60.2959 3.51939L96.3385 93.6258M60.2959 3.51939L111.453 11.2705M60.2959 3.51939L118.235 69.985M60.2959 3.51939L120.173 37.6242M88.1998 1.77539L111.453 11.2705M88.1998 1.77539L68.047 102.54M88.1998 1.77539L120.173 37.6242M111.453 11.2705L120.173 37.6242M111.453 11.2705L41.4995 95.3698M111.453 11.2705L96.3385 93.6258M111.453 11.2705L118.235 69.985M120.173 37.6242L118.235 69.985M120.173 37.6242L68.047 102.54M120.173 37.6242L96.3385 93.6258M118.235 69.985L101.958 87.425M118.235 69.985L68.047 102.54M101.958 87.425L96.3385 93.6258M101.958 87.425L123.661 107.965M101.958 87.425L106.802 120.948M96.3385 93.6258L68.047 102.54M96.3385 93.6258L41.4995 95.3698M96.3385 93.6258L39.3679 144.395M96.3385 93.6258L123.661 107.965M96.3385 93.6258L133.931 131.412M68.047 102.54L41.4995 95.3698M68.047 102.54L1.77515 130.25M68.047 102.54L39.3679 144.395M68.047 102.54L106.802 120.948M41.4995 95.3698L16.1147 102.54M41.4995 95.3698L39.3679 144.395M16.1147 102.54L1.77515 130.25M16.1147 102.54L39.3679 144.395M1.77515 130.25V185.864M1.77515 130.25L39.3679 144.395M1.77515 130.25L106.802 120.948M1.77515 130.25L8.36357 215.124M1.77515 130.25L49.2506 214.737M1.77515 130.25L38.3991 163.579M1.77515 185.864L8.36357 215.124M1.77515 185.864L49.2506 214.737M1.77515 185.864L38.3991 163.579M8.36357 215.124L24.0595 250.779M8.36357 215.124L49.2506 214.737M8.36357 215.124L44.2124 256.399M8.36357 215.124L54.095 239.734M24.0595 250.779L40.1431 255.43M24.0595 250.779L38.3991 163.579M24.0595 250.779L54.095 239.734M44.2124 256.399L54.095 239.734M44.2124 256.399L40.1431 255.43M44.2124 256.399L49.2506 214.737M44.2124 256.399L45.7626 280.427M54.095 239.734L49.2506 214.737M54.095 239.734L93.6256 273.451M54.095 239.734L76.1856 353.675M54.095 239.734L89.75 312.013M54.095 239.734L128.312 210.667M54.095 239.734L45.7626 280.427M54.095 239.734L49.0568 340.304M49.2506 214.737L41.6933 190.708M49.2506 214.737L123.08 181.407M49.2506 214.737L93.6256 240.509M49.2506 214.737L128.312 210.667M41.6933 190.708L38.3991 163.579M41.6933 190.708L106.802 120.948M41.6933 190.708L123.08 181.407M41.6933 190.708L128.312 210.667M38.3991 163.579L39.3679 144.395M38.3991 163.579L123.08 181.407M39.3679 144.395L116.104 148.271M39.3679 144.395L123.08 181.407M39.3679 144.395L93.6256 240.509M40.1431 255.43L45.7626 280.427M45.7626 280.427L44.9875 317.245M45.7626 280.427L93.6256 273.451M45.7626 280.427L89.75 312.013M45.7626 280.427L85.8745 342.242M44.9875 317.245L49.0568 340.304M44.9875 317.245L89.75 312.013M44.9875 317.245L85.8745 342.242M44.9875 317.245L93.6256 240.509M44.9875 317.245L56.2266 354.063M49.0568 340.304L56.2266 354.063M49.0568 340.304L89.75 312.013M49.0568 340.304L93.6256 273.451M56.2266 354.063L76.1856 353.675M56.2266 354.063L89.75 312.013M56.2266 354.063L93.6256 273.451M76.1856 353.675L85.8745 342.242M76.1856 353.675L89.75 312.013M85.8745 342.242L89.75 312.013M85.8745 342.242L99.8265 355.031M85.8745 342.242L128.796 321.411M85.8745 342.242L133.737 293.216M89.75 312.013L93.6256 273.451M89.75 312.013L133.737 293.216M89.75 312.013L128.796 321.411M89.75 312.013L123.855 350.381M89.75 312.013L99.8265 355.031M93.6256 273.451V240.509M93.6256 273.451L132.769 246.904M93.6256 273.451L133.737 293.216M93.6256 273.451L128.796 321.411M93.6256 240.509L132.769 246.904M93.6256 240.509L133.737 293.216M93.6256 240.509L128.796 321.411M93.6256 240.509L128.312 210.667M93.6256 240.509L116.104 148.271M99.8265 355.031L123.855 350.381M99.8265 355.031L128.796 321.411M123.855 350.381L128.796 321.411M133.737 293.216L132.769 246.904M133.737 293.216L128.796 321.411M132.769 246.904L128.312 210.667M128.312 210.667L125.54 195.165M123.08 181.407L116.104 148.271M123.08 181.407L125.54 195.165M123.08 181.407L166.098 198.459M123.08 181.407L184.507 193.615M116.104 148.271L106.802 120.948M116.104 148.271L123.661 107.965M116.104 148.271L133.931 131.412M116.104 148.271L139.938 157.572M116.104 148.271L140.326 198.459M116.104 148.271L166.098 198.459M106.802 120.948L139.938 157.572M125.54 195.165L140.326 198.459M125.54 195.165L139.938 157.572M125.54 195.165L185.088 165.13M140.326 198.459H166.098M140.326 198.459L188.576 175.594M166.098 198.459L184.507 193.615M166.098 198.459L188.576 175.594M184.507 193.615L188.576 175.594M184.507 193.615L139.938 157.572M188.576 175.594L185.088 165.13M188.576 175.594L139.938 157.572M185.088 165.13L169.393 161.254L139.938 157.572M139.938 157.572L133.931 131.412M133.931 131.412L123.661 107.965" stroke="white"/>
<path d="M186.399 165.59H191.795V160.195L200.465 156.148H213.761L219.349 160.195V196.998L208.944 201.044H199.117L191.795 196.998V190.446L188.326 191.217L184.28 190.446L180.619 187.171L179.27 182.546V174.261L181.968 168.288L186.399 165.59Z" fill="#C52D48" fill-opacity="0.4" stroke="#C52D48" stroke-width="2"/>
<path d="M191.795 185.63V170.985L187.17 169.059L183.124 171.756L181.197 178.886L181.968 184.859L187.17 188.134L191.795 185.63Z" fill="#20105C" stroke="#C52D48" stroke-width="2"/>
<path d="M191.795 170.985L187.17 169.058M191.795 170.985L186.399 165.59M191.795 170.985V178.307M191.795 170.985L219.349 160.195M191.795 185.629L187.17 188.134M191.795 185.629L188.326 191.217M191.795 185.629V178.307M187.17 188.134L181.968 184.859L181.197 178.885L183.124 171.756M187.17 188.134L188.326 191.217M187.17 188.134L191.795 190.446M183.124 171.756L187.17 169.058M183.124 171.756L186.399 165.59M187.17 169.058L191.795 165.59M191.795 165.59H186.399M191.795 165.59V160.195M186.399 165.59L181.968 168.288L179.27 174.261V182.546L180.619 187.171L184.28 190.446L188.326 191.217M188.326 191.217L191.795 190.446M191.795 190.446V196.998M191.795 190.446L219.349 196.998M191.795 196.998L199.117 201.044M191.795 196.998L213.761 156.148M191.795 196.998L219.349 178.596M199.117 201.044H208.944M199.117 201.044L191.795 178.307M199.117 201.044L219.349 178.596M199.117 201.044L191.795 160.195M199.117 201.044L200.465 156.148M208.944 201.044L219.349 196.998M208.944 201.044L219.349 160.195M208.944 201.044L200.465 156.148M219.349 196.998L191.795 160.195M219.349 196.998L200.465 156.148M219.349 196.998V178.596M219.349 160.195L213.761 156.148M219.349 160.195V178.596M219.349 160.195H191.795M213.761 156.148H200.465M200.465 156.148L191.795 160.195" stroke="#C52D48"/>
<path d="M40.3912 50.5699L77.2073 60.5649M40.3912 50.5699L46.9742 66.541M40.3912 50.5699L58.7993 70.5633L49.4109 36.7941M40.3912 50.5699L59.8953 29.725M40.3912 50.5699L69.4043 25.6995L49.4109 36.7941M40.3912 50.5699L82.3256 24.6035M40.3912 50.5699L98.5414 32.1618M40.3912 50.5699L103.05 41.3055M40.3912 50.5699L102.074 54.4713M40.3912 50.5699L43.3178 63.8562M77.2073 60.5649L49.4109 36.7941M77.2073 60.5649L102.074 54.4713M49.4109 36.7941L63.7968 63.005M49.4109 36.7941L50.5072 76.4153M49.4109 36.7941L82.3256 24.6035M49.4109 36.7941L98.5414 32.1618M49.4109 36.7941L103.05 41.3055M49.4109 36.7941L102.074 54.4713M49.4109 36.7941L43.3178 63.8562M49.4109 36.7941L39.5369 57.0322M63.7968 63.005L98.5414 32.1618M63.7968 63.005L103.05 41.3055M43.3178 63.8562L59.8957 29.7249M59.8957 29.7249L50.5072 76.4153M59.8957 29.7249L77.2078 60.5648L82.326 24.6035M59.8957 29.7249L82.326 24.6035M59.8957 29.7249L103.05 41.3055L82.326 24.6035M59.8957 29.7249L63.7973 63.0049M50.5072 76.4153L58.7997 70.5632M50.5072 76.4153L58.7997 75.1953L46.9745 66.5411L63.7973 63.0049M82.326 24.6035L63.7973 63.0049M82.3256 24.6035L87.4471 65.6864L103.05 41.3055M82.3256 24.6035L102.074 54.4713M102.074 54.4713L98.5414 32.1618" stroke="#C52D48" stroke-linecap="round" stroke-linejoin="round"/>
<path d="M43.3177 63.8563L46.9745 66.5411L50.5073 76.4154L55.2634 80.1929L58.7996 75.1954V70.5632L63.7971 63.0049L77.2076 60.5648L87.4473 65.6864L102.074 54.4713L103.05 41.3055L98.5417 32.1618L82.3258 24.6035L69.4046 25.6995L59.8956 29.725L49.4112 36.794L40.3916 50.5698L39.5369 57.032L43.3177 63.8563Z" fill="#C52D48" fill-opacity="0.4" stroke="#C52D48" stroke-width="2" stroke-linecap="round" stroke-linejoin="round"/>
</svg>
