<svg width="69" height="165" viewBox="0 0 69 165" fill="none" xmlns="http://www.w3.org/2000/svg">
<path d="M31.7446 49.1719L45.4193 44.9059L56.081 33.6168L56.9599 17.9348L52.8208 5.39059L41.5295 1L28.233 1.62753L16.4409 8.27681L11.1714 21.0725L12.0504 35.4972L19.2004 45.7849L31.7446 49.1719Z" stroke="white" stroke-width="1.01848" stroke-miterlimit="10"/>
<path d="M54.0077 57.0801L56.9598 73.0072L57.8388 88.8138L56.9598 110.891L65.4895 105.624L67.9997 92.4501L66.996 77.1464L59.9707 49.9238L51.2634 38.717" stroke="white" stroke-width="1.01848" stroke-miterlimit="10"/>
<path d="M56.96 110.892L56.2078 120.676L54.2005 136.61L50.5621 153.921L40.1498 163.957L31.5566 154.092" stroke="white" stroke-width="1.01848" stroke-miterlimit="10"/>
<path d="M14.4336 114.781L12.551 133.724V149.53L18.072 161.95L30.1134 158.812L35.1315 141.501L38.4456 125.35L38.3938 113.778" stroke="white" stroke-width="1.01848" stroke-miterlimit="10"/>
<path d="M16.5 41.9016L9.22738 53.1443L2.21257 78.8646L1.35474 94.724L2.96265 109.514L9.22738 117.657L18.6086 111.872L21.2878 96.0107L25.0382 65.79" stroke="white" stroke-width="1.01848" stroke-miterlimit="10"/>
<path d="M31.7446 49.1719L16.4409 8.27686" stroke="white" stroke-width="0.50924" stroke-linecap="round" stroke-linejoin="round"/>
<path d="M19.2004 45.7849L11.1714 21.0725" stroke="white" stroke-width="0.50924" stroke-linecap="round" stroke-linejoin="round"/>
<path d="M31.7446 49.1719L41.5294 1" stroke="white" stroke-width="0.50924" stroke-linecap="round" stroke-linejoin="round"/>
<path d="M19.2002 45.7848L28.2328 1.62744" stroke="white" stroke-width="0.50924" stroke-linecap="round" stroke-linejoin="round"/>
<path d="M31.7446 49.1718L56.9599 17.9348" stroke="white" stroke-width="0.50924" stroke-linecap="round" stroke-linejoin="round"/>
<path d="M19.2002 45.7847L52.8206 5.39038" stroke="white" stroke-width="0.50924" stroke-linecap="round" stroke-linejoin="round"/>
<path d="M56.9599 17.9346L11.1714 21.0723L52.8208 5.39038" stroke="white" stroke-width="0.50924" stroke-linecap="round" stroke-linejoin="round"/>
<path d="M41.5294 1L56.9599 17.9349L28.233 1.62753L52.8207 5.3906L16.4409 8.27681" stroke="white" stroke-width="0.50924" stroke-linecap="round" stroke-linejoin="round"/>
<path d="M56.081 33.6167L52.8208 5.39051L45.4193 44.9059L56.9599 17.9348L12.0504 35.4971L28.233 1.62744L11.1714 21.0724" stroke="white" stroke-width="0.50924" stroke-linecap="round" stroke-linejoin="round"/>
<path d="M56.0809 33.6167L28.2329 1.62744L45.4192 44.9059" stroke="white" stroke-width="0.50924" stroke-linecap="round" stroke-linejoin="round"/>
<path d="M12.0504 35.4972L56.081 33.6168L11.1714 21.0725L45.4193 44.906" stroke="white" stroke-width="0.50924" stroke-linecap="round" stroke-linejoin="round"/>
<path d="M19.2002 45.7847L45.4191 44.9058" stroke="white" stroke-width="0.50924" stroke-linecap="round" stroke-linejoin="round"/>
<path d="M16.4409 8.27686L12.0503 35.4973L31.7446 49.1719L56.0809 33.6168" stroke="white" stroke-width="0.50924" stroke-linecap="round" stroke-linejoin="round"/>
<path d="M18.6089 111.872L2.96289 109.514L9.22762 53.1443V117.657L25.0384 65.79L2.96289 109.514" stroke="white" stroke-width="0.50924" stroke-linecap="round" stroke-linejoin="round"/>
<path d="M2.21283 78.8644L18.6089 111.872L9.22764 53.1441L25.0384 65.7898L19.2005 45.7849L9.22764 117.659C9.22764 117.659 1.4712 78.1249 2.21283 78.8644Z" stroke="white" stroke-width="0.50924" stroke-linecap="round" stroke-linejoin="round"/>
<path d="M25.0385 65.7896L2.21289 78.8641L2.96297 109.514" stroke="white" stroke-width="0.50924" stroke-linecap="round" stroke-linejoin="round"/>
<path d="M1.35474 94.7236L9.22738 117.657" stroke="white" stroke-width="0.50924" stroke-linecap="round" stroke-linejoin="round"/>
<path d="M31.7447 49.1719L59.9708 49.9241L25.0383 65.7898L56.9599 73.0074" stroke="white" stroke-width="0.50924" stroke-linecap="round" stroke-linejoin="round"/>
<path d="M65.4895 105.624L54.0757 57.2006L67.9997 92.4501L51.2634 38.717L65.4895 105.624Z" stroke="white" stroke-width="0.50924" stroke-linecap="round" stroke-linejoin="round"/>
<path d="M67.6004 91.172L59.9708 49.9241L65.4897 105.624L57.8389 88.814" stroke="white" stroke-width="0.50924" stroke-linecap="round" stroke-linejoin="round"/>
<path d="M56.96 73.0075L59.9708 49.9241L57.8389 88.814L66.9962 77.1466L56.96 73.0075Z" stroke="white" stroke-width="0.50924" stroke-linecap="round" stroke-linejoin="round"/>
<path d="M66.9962 77.1464L56.9599 110.891L67.9998 92.4501L57.8389 88.8138L25.0383 65.7896L56.9599 110.891L38.3939 113.778" stroke="white" stroke-width="0.50924" stroke-linecap="round" stroke-linejoin="round"/>
<path d="M45.4192 44.9057L59.9707 49.9238L54.0757 57.2006M45.4192 44.9057L54.0757 57.2006M45.4192 44.9057L25.0382 65.7896M54.0757 57.2006L66.996 77.1464L51.2634 38.717L54.0757 57.2006ZM54.0757 57.2006L25.0382 65.7896M54.0757 57.2006L31.7445 49.1716M54.0757 57.2006L18.6086 111.872L1.35474 94.7235M54.0757 57.2006L38.3938 113.778M25.0382 65.7896L31.7445 49.1716M25.0382 65.7896L1.35474 94.7235M31.7445 49.1716L9.22738 53.1439L19.2002 45.7847L1.35474 94.7235M31.7445 49.1716L1.35474 94.7235" stroke="white" stroke-width="0.50924" stroke-linecap="round" stroke-linejoin="round"/>
<path d="M31.7446 49.1717L38.3939 113.778L45.4193 44.9058" stroke="white" stroke-width="0.50924" stroke-linecap="round" stroke-linejoin="round"/>
<path d="M56.2078 120.676L38.394 113.778L54.2005 136.61L31.5566 154.092" stroke="white" stroke-width="0.50924" stroke-linecap="round" stroke-linejoin="round"/>
<path d="M38.394 113.778L50.5622 153.921L38.394 113.778Z" stroke="white" stroke-width="0.50924" stroke-linecap="round" stroke-linejoin="round"/>
<path d="M56.96 110.892L31.5566 154.092L56.96 110.892Z" stroke="white" stroke-width="0.50924" stroke-linecap="round" stroke-linejoin="round"/>
<path d="M38.3937 125.443L54.2002 136.61L35.1313 141.501L56.9597 110.892L38.3937 125.443Z" stroke="white" stroke-width="0.50924" stroke-linecap="round" stroke-linejoin="round"/>
<path d="M31.5565 154.092L50.562 153.921L56.9598 110.892L40.2056 163.885L38.4616 125.443M38.4616 113.778L12.551 133.724M38.4616 113.778L14.4336 114.781L38.4616 125.443M38.4616 113.778L18.6087 111.872L12.551 133.724M38.4616 113.778L12.551 149.53L35.1315 141.501L12.551 133.724M38.4616 113.778L18.072 161.95L12.551 133.724M38.4616 113.778L30.1134 158.812L12.551 133.724M38.4616 113.778V125.443M12.551 133.724L38.4616 125.443" stroke="white" stroke-width="0.50924" stroke-linecap="round" stroke-linejoin="round"/>
<path d="M35.1314 141.501L18.0698 161.95L35.1314 141.501Z" stroke="white" stroke-width="0.50924" stroke-linecap="round" stroke-linejoin="round"/>
<path d="M54.2004 136.61L40.1496 163.957L35.1315 141.501L14.4336 114.781" stroke="white" stroke-width="0.50924" stroke-linecap="round" stroke-linejoin="round"/>
<path d="M12.551 149.53L38.3938 125.443L18.072 161.95" stroke="white" stroke-width="0.50924" stroke-linecap="round" stroke-linejoin="round"/>
<path d="M50.5621 153.921L38.3939 125.443L57.8389 88.8138L38.3939 113.778L25.0383 65.7896" stroke="white" stroke-width="0.50924" stroke-linecap="round" stroke-linejoin="round"/>
</svg>
