<svg width="268" height="277" viewBox="0 0 268 277" fill="none" xmlns="http://www.w3.org/2000/svg">
<path d="M122.351 193.331L176.665 176.388L219.011 131.549L222.503 69.2626L206.062 19.4388L161.215 2L108.404 4.49245L61.5673 30.9024L40.6375 81.7249L44.1286 139.018L72.5274 179.879L122.351 193.331Z" stroke="white" stroke-width="3" stroke-miterlimit="10"/>
<path d="M210.778 224.742L222.503 288.002L225.994 350.783L222.503 438.472L256.382 417.551L266.352 365.226L262.365 304.442L234.462 196.318L199.878 151.807" stroke="white" stroke-width="3" stroke-miterlimit="10"/>
<path d="M61.8025 164.455L32.9169 209.109L5.05514 311.266L1.64795 374.257L8.03433 433.002L32.9169 465.345L70.1778 442.367L80.819 379.368L95.7149 259.336" stroke="white" stroke-width="3" stroke-miterlimit="10"/>
<path d="M122.352 193.331L61.5679 30.9023" stroke="white" stroke-linecap="round" stroke-linejoin="round"/>
<path d="M72.5274 179.879L40.6375 81.7251" stroke="white" stroke-linecap="round" stroke-linejoin="round"/>
<path d="M122.352 193.331L161.216 2" stroke="white" stroke-linecap="round" stroke-linejoin="round"/>
<path d="M72.5278 179.879L108.404 4.49219" stroke="white" stroke-linecap="round" stroke-linejoin="round"/>
<path d="M122.352 193.331L222.503 69.2622" stroke="white" stroke-linecap="round" stroke-linejoin="round"/>
<path d="M72.5278 179.879L206.063 19.4385" stroke="white" stroke-linecap="round" stroke-linejoin="round"/>
<path d="M222.503 69.2623L40.6375 81.7246L206.062 19.4385" stroke="white" stroke-linecap="round" stroke-linejoin="round"/>
<path d="M161.216 2L222.503 69.2626L108.404 4.49245L206.063 19.4388L61.5679 30.9024" stroke="white" stroke-linecap="round" stroke-linejoin="round"/>
<path d="M219.011 131.548L206.062 19.4385L176.665 176.387L222.503 69.2624L44.1286 139.017L108.404 4.49219L40.6375 81.7246" stroke="white" stroke-linecap="round" stroke-linejoin="round"/>
<path d="M219.011 131.548L108.404 4.49219L176.665 176.387" stroke="white" stroke-linecap="round" stroke-linejoin="round"/>
<path d="M44.1286 139.018L219.011 131.549L40.6375 81.7251L176.665 176.388" stroke="white" stroke-linecap="round" stroke-linejoin="round"/>
<path d="M72.5278 179.879L176.665 176.388" stroke="white" stroke-linecap="round" stroke-linejoin="round"/>
<path d="M61.5677 30.9023L44.1289 139.018L122.352 193.331L219.012 131.549" stroke="white" stroke-linecap="round" stroke-linejoin="round"/>
<path d="M70.1779 442.367L8.03442 433.002L32.917 209.109V465.345L95.715 259.336L8.03442 433.002" stroke="white" stroke-linecap="round" stroke-linejoin="round"/>
<path d="M5.0562 311.266L70.1788 442.367L32.9179 209.109L95.716 259.335L72.5286 179.879L32.9179 465.353C32.9179 465.353 2.11057 308.328 5.0562 311.266Z" stroke="white" stroke-linecap="round" stroke-linejoin="round"/>
<path d="M95.7157 259.335L5.05591 311.265L8.0351 433.001" stroke="white" stroke-linecap="round" stroke-linejoin="round"/>
<path d="M122.352 193.331L234.462 196.319L95.7158 259.335L222.504 288.002" stroke="white" stroke-linecap="round" stroke-linejoin="round"/>
<path d="M256.382 417.551L211.048 225.221L266.352 365.226L199.878 151.807L256.382 417.551Z" stroke="white" stroke-linecap="round" stroke-linejoin="round"/>
<path d="M264.766 360.149L234.462 196.319L256.382 417.551L225.994 350.784" stroke="white" stroke-linecap="round" stroke-linejoin="round"/>
<path d="M222.503 288.002L234.461 196.319L225.994 350.784L262.365 304.443L222.503 288.002Z" stroke="white" stroke-linecap="round" stroke-linejoin="round"/>
<path d="M262.366 304.442L222.504 438.473L266.352 365.226L225.995 350.784L95.7158 259.335L222.504 438.473L148.762 449.936" stroke="white" stroke-linecap="round" stroke-linejoin="round"/>
<path d="M176.665 176.387L234.461 196.318L211.047 225.221M176.665 176.387L211.047 225.221M176.665 176.387L95.7149 259.335M211.047 225.221L262.365 304.442L199.878 151.807L211.047 225.221ZM211.047 225.221L95.7149 259.335M211.047 225.221L122.351 193.331M211.047 225.221L70.1778 442.366L1.64795 374.256M211.047 225.221L148.761 449.936M95.7149 259.335L122.351 193.331M95.7149 259.335L1.64795 374.256M122.351 193.331L32.9169 209.108L72.5276 179.878L1.64795 374.256M122.351 193.331L1.64795 374.256" stroke="white" stroke-linecap="round" stroke-linejoin="round"/>
<path d="M122.352 193.331L148.762 449.936L176.665 176.388" stroke="white" stroke-linecap="round" stroke-linejoin="round"/>
<path d="M197.092 609.378L148.762 496.269L225.995 350.784L148.762 449.936L95.7158 259.335" stroke="white" stroke-linecap="round" stroke-linejoin="round"/>
<path d="M75.3919 87.6374L145.69 106.722M75.3919 87.6374L87.9615 118.133M75.3919 87.6374L110.541 125.814L92.6144 61.3333M75.3919 87.6374L112.634 47.8354M75.3919 87.6374L130.791 40.149L92.6144 61.3333M75.3919 87.6374L155.463 38.0562M75.3919 87.6374L186.426 52.4882M75.3919 87.6374L195.034 69.9475M75.3919 87.6374L193.172 95.0868M75.3919 87.6374L80.9799 113.007M145.69 106.722L92.6144 61.3333M145.69 106.722L193.172 95.0868M92.6144 61.3333L120.083 111.382M92.6144 61.3333L94.7077 136.988M92.6144 61.3333L155.463 38.0562M92.6144 61.3333L186.426 52.4882M92.6144 61.3333L195.034 69.9475M92.6144 61.3333L193.172 95.0868M92.6144 61.3333L80.9799 113.007M92.6144 61.3333L73.7605 99.9767M120.083 111.382L186.426 52.4882M120.083 111.382L195.034 69.9475M80.9799 113.007L112.634 47.8352M112.634 47.8352L94.7077 136.988M112.634 47.8352L145.691 106.722L155.464 38.0562M112.634 47.8352L155.464 38.0562M112.634 47.8352L195.035 69.9475L155.464 38.0562M112.634 47.8352L120.084 111.381M94.7077 136.988L110.542 125.813M94.7077 136.988L110.542 134.658L87.9623 118.133L120.084 111.381M155.464 38.0562L120.084 111.381M155.463 38.0562L165.242 116.501L195.034 69.9475M155.463 38.0562L193.172 95.0868M193.172 95.0868L186.426 52.4882" stroke="#C52D48" stroke-linecap="round" stroke-linejoin="round"/>
<path d="M80.9797 113.007L87.9622 118.133L94.7078 136.988L103.789 144.201L110.541 134.658V125.813L120.084 111.381L145.69 106.722L165.243 116.501L193.172 95.0868L195.035 69.9475L186.427 52.4882L155.463 38.0562L130.791 40.149L112.634 47.8354L92.615 61.3331L75.3925 87.6372L73.7605 99.9764L80.9797 113.007Z" fill="#C52D48" fill-opacity="0.4" stroke="#C52D48" stroke-width="3" stroke-linecap="round" stroke-linejoin="round"/>
</svg>
