<svg width="508" height="2225" viewBox="0 0 508 2225" fill="none" xmlns="http://www.w3.org/2000/svg">
<path d="M416.995 658.654L602.833 600.68L747.725 447.26L759.67 234.144L703.419 63.668L549.97 4L369.272 12.5281L209.019 102.892L137.406 276.784L149.351 472.816L246.519 612.625L416.995 658.654Z" stroke="white" stroke-width="7.55321" stroke-miterlimit="10"/>
<path d="M759.672 1497.42L749.449 1630.4L722.171 1846.93L672.725 2082.18L531.222 2218.58L414.442 2084.51" stroke="white" stroke-width="7.55321" stroke-miterlimit="10"/>
<path d="M181.741 1550.29L156.156 1807.71V2022.52L231.187 2191.3L394.828 2148.66L463.024 1913.4L508.062 1693.91L507.359 1536.65" stroke="white" stroke-width="7.55321" stroke-miterlimit="10"/>
<path d="M209.823 559.85L110.989 712.638L15.6579 1062.17L4 1277.7L25.8515 1478.7L110.989 1589.37L238.48 1510.75L274.889 1295.19L325.857 884.492" stroke="white" stroke-width="7.55321" stroke-miterlimit="10"/>
<path d="M416.997 658.653L209.02 102.891" stroke="white" stroke-width="2.51774" stroke-linecap="round" stroke-linejoin="round"/>
<path d="M246.519 612.625L137.406 276.785" stroke="white" stroke-width="2.51774" stroke-linecap="round" stroke-linejoin="round"/>
<path d="M416.997 658.654L549.972 4" stroke="white" stroke-width="2.51774" stroke-linecap="round" stroke-linejoin="round"/>
<path d="M246.52 612.624L369.273 12.5269" stroke="white" stroke-width="2.51774" stroke-linecap="round" stroke-linejoin="round"/>
<path d="M416.997 658.653L759.671 234.143" stroke="white" stroke-width="2.51774" stroke-linecap="round" stroke-linejoin="round"/>
<path d="M246.52 612.624L703.42 63.667" stroke="white" stroke-width="2.51774" stroke-linecap="round" stroke-linejoin="round"/>
<path d="M759.67 234.143L137.406 276.783L703.419 63.667" stroke="white" stroke-width="2.51774" stroke-linecap="round" stroke-linejoin="round"/>
<path d="M549.972 4L759.671 234.144L369.274 12.5281L703.42 63.668L209.02 102.892" stroke="white" stroke-width="2.51774" stroke-linecap="round" stroke-linejoin="round"/>
<path d="M747.725 447.259L703.419 63.6667L602.833 600.679L759.67 234.143L149.351 472.815L369.272 12.5269L137.406 276.783" stroke="white" stroke-width="2.51774" stroke-linecap="round" stroke-linejoin="round"/>
<path d="M747.725 447.259L369.272 12.5269L602.833 600.679" stroke="white" stroke-width="2.51774" stroke-linecap="round" stroke-linejoin="round"/>
<path d="M149.351 472.816L747.725 447.261L137.406 276.785L602.833 600.68" stroke="white" stroke-width="2.51774" stroke-linecap="round" stroke-linejoin="round"/>
<path d="M246.52 612.624L602.834 600.679" stroke="white" stroke-width="2.51774" stroke-linecap="round" stroke-linejoin="round"/>
<path d="M209.02 102.891L149.352 472.815L416.996 658.653L747.726 447.26" stroke="white" stroke-width="2.51774" stroke-linecap="round" stroke-linejoin="round"/>
<path d="M238.48 1510.75L25.8521 1478.7L110.989 712.637V1589.37L325.857 884.491L25.8521 1478.7" stroke="white" stroke-width="2.51774" stroke-linecap="round" stroke-linejoin="round"/>
<path d="M15.6612 1062.17L238.483 1510.75L110.992 712.636L325.86 884.49L246.523 612.625L110.992 1589.39C110.992 1589.39 5.58255 1052.12 15.6612 1062.17Z" stroke="white" stroke-width="2.51774" stroke-linecap="round" stroke-linejoin="round"/>
<path d="M325.859 884.49L15.6604 1062.17L25.8539 1478.7" stroke="white" stroke-width="2.51774" stroke-linecap="round" stroke-linejoin="round"/>
<path d="M4 1277.7L110.989 1589.36" stroke="white" stroke-width="2.51774" stroke-linecap="round" stroke-linejoin="round"/>
<path d="M416.998 658.653L800.591 668.876L325.86 884.49L759.673 982.578" stroke="white" stroke-width="2.51774" stroke-linecap="round" stroke-linejoin="round"/>
<path d="M896.065 1038.83L759.673 1497.42L909.704 1246.81L771.618 1197.39L325.86 884.49L759.673 1497.42L507.362 1536.65" stroke="white" stroke-width="2.51774" stroke-linecap="round" stroke-linejoin="round"/>
<path d="M602.833 600.678L800.588 668.875L720.475 767.766M602.833 600.678L720.475 767.766M602.833 600.678L325.857 884.489M720.475 767.766L896.062 1038.83L682.257 516.575L720.475 767.766ZM720.475 767.766L325.857 884.489M720.475 767.766L416.996 658.652M720.475 767.766L238.48 1510.74L4 1277.7M720.475 767.766L507.359 1536.64M325.857 884.489L416.996 658.652M325.857 884.489L4 1277.7M416.996 658.652L110.989 712.635L246.52 612.624L4 1277.7M416.996 658.652L4 1277.7" stroke="white" stroke-width="2.51774" stroke-linecap="round" stroke-linejoin="round"/>
<path d="M416.997 658.653L507.36 1536.65L602.835 600.679" stroke="white" stroke-width="2.51774" stroke-linecap="round" stroke-linejoin="round"/>
<path d="M749.449 1630.4L507.36 1536.65L722.171 1846.93L414.442 2084.51" stroke="white" stroke-width="2.51774" stroke-linecap="round" stroke-linejoin="round"/>
<path d="M507.36 1536.65L672.725 2082.19L507.36 1536.65Z" stroke="white" stroke-width="2.51774" stroke-linecap="round" stroke-linejoin="round"/>
<path d="M759.672 1497.42L414.442 2084.51L759.672 1497.42Z" stroke="white" stroke-width="2.51774" stroke-linecap="round" stroke-linejoin="round"/>
<path d="M507.36 1695.17L722.171 1846.93L463.025 1913.4L759.671 1497.42L507.36 1695.17Z" stroke="white" stroke-width="2.51774" stroke-linecap="round" stroke-linejoin="round"/>
<path d="M414.44 2084.51L672.724 2082.18L759.67 1497.42L531.981 2217.6L508.281 1695.17M508.281 1536.64L156.156 1807.7M508.281 1536.64L181.741 1550.28L508.281 1695.17M508.281 1536.64L238.48 1510.74L156.156 1807.7M508.281 1536.64L156.156 2022.52L463.024 1913.4L156.156 1807.7M508.281 1536.64L231.187 2191.3L156.156 1807.7M508.281 1536.64L394.828 2148.66L156.156 1807.7M508.281 1536.64V1695.17M156.156 1807.7L508.281 1695.17" stroke="white" stroke-width="2.51774" stroke-linecap="round" stroke-linejoin="round"/>
<path d="M463.025 1913.4L231.159 2191.3L463.025 1913.4Z" stroke="white" stroke-width="2.51774" stroke-linecap="round" stroke-linejoin="round"/>
<path d="M722.172 1846.93L531.222 2218.58L463.026 1913.4L181.743 1550.29" stroke="white" stroke-width="2.51774" stroke-linecap="round" stroke-linejoin="round"/>
<path d="M156.156 2022.52L507.359 1695.18L231.187 2191.3" stroke="white" stroke-width="2.51774" stroke-linecap="round" stroke-linejoin="round"/>
<path d="M672.727 2082.19L507.362 1695.18L771.618 1197.39L507.362 1536.65L325.86 884.49" stroke="white" stroke-width="2.51774" stroke-linecap="round" stroke-linejoin="round"/>
<path d="M247.736 259.936L488.265 325.237L306.664 169.935L400.651 341.179" stroke="#C52D48" stroke-width="1.25887" stroke-linecap="round" stroke-linejoin="round"/>
<path d="M266.856 346.739L375.164 123.75" stroke="#C52D48" stroke-width="1.25887" stroke-linecap="round" stroke-linejoin="round"/>
<path d="M306.666 169.933L313.826 428.791L375.163 123.75" stroke="#C52D48" stroke-width="1.25887" stroke-linecap="round" stroke-linejoin="round"/>
<path d="M247.736 259.936L290.744 364.28" stroke="#C52D48" stroke-width="1.25887" stroke-linecap="round" stroke-linejoin="round"/>
<path d="M247.736 259.936L368.001 390.559L306.664 169.935" stroke="#C52D48" stroke-width="1.25887" stroke-linecap="round" stroke-linejoin="round"/>
<path d="M368.003 390.558L313.827 428.792L368.003 420.821" stroke="#C52D48" stroke-width="1.25887" stroke-linecap="round" stroke-linejoin="round"/>
<path d="M375.165 123.751L488.269 325.236L521.708 90.2905L375.165 123.751ZM375.165 123.751L657.104 199.409L521.708 90.2905L400.655 341.178L375.165 123.751Z" stroke="#C52D48" stroke-width="1.25887" stroke-linecap="round" stroke-linejoin="round"/>
<path d="M375.161 123.751L247.736 259.936M247.736 259.936L437.286 97.4512L306.664 169.934M247.736 259.936L521.704 90.2905L306.664 169.934M247.736 259.936L627.647 139.671L306.664 169.934M247.736 259.936L657.1 199.409L306.664 169.934M247.736 259.936L650.728 285.425L306.664 169.934" stroke="#C52D48" stroke-width="1.25887" stroke-linecap="round" stroke-linejoin="round"/>
<path d="M247.738 259.936L266.855 346.741L306.666 169.935L242.154 302.156" stroke="#C52D48" stroke-width="1.25887" stroke-linecap="round" stroke-linejoin="round"/>
<path d="M488.265 325.236L650.727 285.425L627.647 139.671L400.651 341.178L657.1 199.41L555.164 358.697" stroke="#C52D48" stroke-width="1.25887" stroke-linecap="round" stroke-linejoin="round"/>
<path d="M400.653 341.178L290.747 364.28L368.003 420.821" stroke="#C52D48" stroke-width="1.25887" stroke-linecap="round" stroke-linejoin="round"/>
<path d="M266.855 346.74L290.746 364.28L313.827 428.792L344.9 453.471L368.003 420.821V390.558L400.653 341.178L488.267 325.236L555.166 358.696L650.73 285.425L657.102 199.409L627.649 139.671L521.706 90.2905L437.289 97.4512L375.164 123.751L306.666 169.934L247.738 259.935L242.154 302.155L266.855 346.74Z" fill="#C52D48" fill-opacity="0.4" stroke="#C52D48" stroke-width="5.03547" stroke-linecap="round" stroke-linejoin="round"/>
</svg>
